{
.formatVersion = 3;
axes = (
{
name = Weight;
tag = wght;
}
);
familyName = "Goin to Home VF";
customParameters = (
{
name = glyphOrder;
value = (
.notdef,
uni0000,
CR,
space,
exclam,
quotedbl,
numbersign,
dollar,
percent,
ampersand,
quotesingle,
parenleft,
parenright,
asterisk,
plus,
comma,
hyphen,
period,
slash,
zero,
one,
two,
three,
four,
five,
six,
seven,
eight,
nine,
colon,
semicolon,
less,
equal,
greater,
question,
at,
A,
B,
C,
D,
E,
F,
G,
H,
I,
J,
K,
L,
M,
N,
O,
P,
Q,
R,
S,
T,
U,
V,
W,
X,
Y,
Z,
bracketleft,
backslash,
bracketright,
asciicircum,
underscore,
grave,
a,
b,
c,
d,
e,
f,
g,
h,
i,
j,
k,
l,
m,
n,
o,
p,
q,
r,
s,
t,
u,
v,
w,
x,
y,
z,
braceleft,
bar,
braceright,
asciitilde,
nbspace,
exclamdown,
cent,
sterling,
currency,
yen,
brokenbar,
section,
dieresis,
copyright,
ordfeminine,
guillemotleft,
logicalnot,
softhyphen,
registered,
macron,
degree,
plusminus,
twosuperior,
threesuperior,
acute,
mu,
paragraph,
periodcentered,
cedilla,
onesuperior,
ordmasculine,
guillemotright,
onequarter,
onehalf,
threequarters,
questiondown,
Agrave,
Aacute,
Acircumflex,
Atilde,
Adieresis,
Aring,
AE,
Ccedilla,
Egrave,
Eacute,
Ecircumflex,
Edieresis,
Igrave,
Iacute,
Icircumflex,
Idieresis,
Eth,
Ntilde,
Ograve,
Oacute,
Ocircumflex,
Otilde,
Odieresis,
multiply,
Oslash,
Ugrave,
Uacute,
Ucircumflex,
Udieresis,
Yacute,
Thorn,
germandbls,
agrave,
aacute,
acircumflex,
atilde,
adieresis,
aring,
ae,
ccedilla,
egrave,
eacute,
ecircumflex,
edieresis,
igrave,
iacute,
icircumflex,
idieresis,
eth,
ntilde,
ograve,
oacute,
ocircumflex,
otilde,
odieresis,
divide,
oslash,
ugrave,
uacute,
ucircumflex,
udieresis,
yacute,
thorn,
ydieresis,
Amacron,
amacron,
Abreve,
abreve,
Aogonek,
aogonek,
Cacute,
cacute,
Ccircumflex,
ccircumflex,
Cdotaccent,
cdotaccent,
Ccaron,
ccaron,
Dcaron,
dcaron,
Dcroat,
dcroat,
Emacron,
emacron,
Ebreve,
ebreve,
Edotaccent,
edotaccent,
Eogonek,
eogonek,
Ecaron,
ecaron,
Gcircumflex,
gcircumflex,
Gbreve,
gbreve,
Gdotaccent,
gdotaccent,
Gcommaaccent,
gcommaaccent,

glyphs = (
{
glyphname = .notdef;
layers = (
{
layerId = "B4DBF483-61C5-4288-8615-E64CC28AC39C";
shapes = (
{
closed = 1;
nodes = (
(256,0,l),
(256,1280,l),
(1280,1280,l),
(1280,0,l)
);
},
{
closed = 1;
nodes = (
(320,64,l),
(1216,64,l),
(1216,1216,l),
(320,1216,l)
);
}
);
width = 1536;
},
{
layerId = "F7275F4E-BE84-4E16-A55D-D0D293F4C807";
shapes = (
{
closed = 1;
nodes = (
(256,0,l),
(256,1280,l),
(1280,1280,l),
(1280,0,l)
);
},
{
closed = 1;
nodes = (
(320,64,l),
(1216,64,l),
(1216,1216,l),
(320,1216,l)
);
}
);
width = 1536;
},
{
layerId = "5B74239F-5503-441B-9A3C-1744D3E8E825";
shapes = (
{
closed = 1;
nodes = (
(256,0,l),
(256,1280,l),
(1280,1280,l),
(1280,0,l)
);
},
{
closed = 1;
nodes = (
(320,64,l),
(1216,64,l),
(1216,1216,l),
(320,1216,l)
);
}
);
width = 1536;
},
{
layerId = "FCCE09BD-6896-404A-801B-05958BD13330";
shapes = (
{
closed = 1;
nodes = (
(256,0,l),
(256,1280,l),
(1280,1280,l),
(1280,0,l)
);
},
{
closed = 1;
nodes = (
(320,64,l),
(1216,64,l),
(1216,1216,l),
(320,1216,l)
);
}
);
width = 1536;
}
);
},
{
glyphname = exclam;
layers = (
{
layerId = "B4DBF483-61C5-4288-8615-E64CC28AC39C";
shapes = (
{
closed = 1;
nodes = (
(203,0,l),
(203,257,l),
(519,257,l),
(519,0,l)
);
},
{
closed = 1;
nodes = (
(262,432,l),
(213,1184,l),
(213,1480,l),
(509,1480,l),
(509,1184,l),
(460,432,l)
);
}
);
width = 682;
},
{
layerId = "F7275F4E-BE84-4E16-A55D-D0D293F4C807";
shapes = (
{
closed = 1;
nodes = (
(200,0,l),
(200,207,l),
(417,207,l),
(417,0,l)
);
},
{
closed = 1;
nodes = (
(235,407,l),
(210,1184,l),
(210,1480,l),
(407,1480,l),
(407,1184,l),
(383,407,l)
);
}
);
width = 569;
},
{
layerId = "5B74239F-5503-441B-9A3C-1744D3E8E825";
shapes = (
{
closed = 1;
nodes = (
(199,0,l),
(199,190,l),
(383,190,l),
(383,0,l)
);
},
{
closed = 1;
nodes = (
(226,399,l),
(209,1184,l),
(209,1480,l),
(373,1480,l),
(373,1184,l),
(357,399,l)
);
}
);
width = 531;
},
{
layerId = "FCCE09BD-6896-404A-801B-05958BD13330";
shapes = (
{
closed = 1;
nodes = (
(204,0,l),
(204,274,l),
(553,274,l),
(553,0,l)
);
},
{
closed = 1;
nodes = (
(271,440,l),
(214,1184,l),
(214,1480,l),
(543,1480,l),
(543,1184,l),
(486,440,l)
);
}
);
width = 720;
}
);
unicode = 33;
},
{
glyphname = quotedbl;
layers = (
{
layerId = "B4DBF483-61C5-4288-8615-E64CC28AC39C";
shapes = (
{
closed = 1;
nodes = (
(163,952,l),
(114,1579,l),
(410,1579,l),
(348,952,l)
);
},
{
closed = 1;
nodes = (
(610,952,l),
(561,1579,l),
(857,1579,l),
(796,952,l)
);
}
);
width = 971;
},
{
layerId = "F7275F4E-BE84-4E16-A55D-D0D293F4C807";
shapes = (
{
closed = 1;
nodes = (
(117,1056,l),
(92,1579,l),
(289,1579,l),
(265,1056,l)
);
},
{
closed = 1;
nodes = (
(462,1056,l),
(437,1579,l),
(635,1579,l),
(610,1056,l)
);
}
);
width = 727;
},
{
layerId = "5B74239F-5503-441B-9A3C-1744D3E8E825";
shapes = (
{
closed = 1;
nodes = (
(102,1091,l),
(85,1579,l),
(249,1579,l),
(237,1091,l)
);
},
{
closed = 1;
nodes = (
(413,1091,l),
(396,1579,l),
(561,1579,l),
(548,1091,l)
);
}
);
width = 646;
},
{
layerId = "FCCE09BD-6896-404A-801B-05958BD13330";
shapes = (
{
closed = 1;
nodes = (
(178,917,l),
(121,1579,l),
(450,1579,l),
(376,917,l)
);
},
{
closed = 1;
nodes = (
(659,917,l),
(602,1579,l),
(931,1579,l),
(858,917,l)
);
}
);
width = 1052;
}
);
unicode = 34;
},
{
glyphname = numbersign;
layers = (
{
layerId = "B4DBF483-61C5-4288-8615-E64CC28AC39C";
shapes = (
{
closed = 1;
nodes = (
(125,0,l),
(231,426,l),
(25,426,l),
(54,574,l),
(268,574,l),
(352,907,l),
(120,907,l),
(150,1055,l),
(389,1055,l),
(495,1480,l),
(648,1480,l),
(541,1055,l),
(754,1055,l),
(861,1480,l),
(1013,1480,l),
(907,1055,l),
(1114,1055,l),
(1084,907,l),
(870,907,l),
(787,574,l),
(1018,574,l),
(989,426,l),
(750,426,l),
(643,0,l),
(491,0,l),
(597,426,l),
(384,426,l),
(278,0,l)
);
},
{
closed = 1;
nodes = (
(421,574,l),
(634,574,l),
(717,907,l),
(504,907,l)
);
}
);
width = 1139;
},
{
layerId = "F7275F4E-BE84-4E16-A55D-D0D293F4C807";
shapes = (
{
closed = 1;
nodes = (
(125,0,l),
(236,444,l),
(25,444,l),
(49,568,l),
(267,568,l),
(354,913,l),
(118,913,l),
(143,1036,l),
(384,1036,l),
(496,1480,l),
(623,1480,l),
(512,1036,l),
(775,1036,l),
(886,1480,l),
(1014,1480,l),
(903,1036,l),
(1114,1036,l),
(1090,913,l),
(872,913,l),
(785,568,l),
(1021,568,l),
(997,444,l),
(755,444,l),
(644,0,l),
(516,0,l),
(627,444,l),
(364,444,l),
(253,0,l)
);
},
{
closed = 1;
nodes = (
(394,568,l),
(658,568,l),
(745,913,l),
(481,913,l)
);
}
);
width = 1139;
},
{
layerId = "5B74239F-5503-441B-9A3C-1744D3E8E825";
shapes = (
{
closed = 1;
nodes = (
(125,0,l),
(238,450,l),
(25,450,l),
(47,566,l),
(267,566,l),
(355,915,l),
(117,915,l),
(141,1030,l),
(382,1030,l),
(496,1480,l),
(615,1480,l),
(502,1030,l),
(782,1030,l),
(894,1480,l),
(1014,1480,l),
(902,1030,l),
(1114,1030,l),
(1092,915,l),
(873,915,l),
(784,566,l),
(1022,566,l),
(1000,450,l),
(757,450,l),
(644,0,l),
(524,0,l),
(637,450,l),
(357,450,l),
(245,0,l)
);
},
{
closed = 1;
nodes = (
(385,566,l),
(666,566,l),
(754,915,l),
(473,915,l)
);
}
);
width = 1139;
},
{
layerId = "FCCE09BD-6896-404A-801B-05958BD13330";
shapes = (
{
closed = 1;
nodes = (
(125,0,l),
(229,420,l),
(25,420,l),
(56,576,l),
(268,576,l),
(351,905,l),
(121,905,l),
(152,1061,l),
(391,1061,l),
(495,1480,l),
(656,1480,l),
(551,1061,l),
(747,1061,l),
(853,1480,l),
(1013,1480,l),
(908,1061,l),
(1114,1061,l),
(1082,905,l),
(869,905,l),
(788,576,l),
(1017,576,l),
(986,420,l),
(748,420,l),
(643,0,l),
(483,0,l),
(587,420,l),
(391,420,l),
(286,0,l)
);
},
{
closed = 1;
nodes = (
(430,576,l),
(626,576,l),
(708,905,l),
(512,905,l)
);
}
);
width = 1139;
}
);
unicode = 35;
},
{
glyphname = dollar;
layers = (
{
layerId = "B4DBF483-61C5-4288-8615-E64CC28AC39C";
shapes = (
{
closed = 1;
nodes = (
(480,-160,l),
(480,4,l),
(378,3,o),
(252,30,o),
(99,78,c),
(99,296,l),
(221,229,o),
(348,192,o),
(480,185,c),
(480,669,l),
(180,801,o),
(111,923,o),
(111,1112,cs),
(111,1325,o),
(234,1455,o),
(480,1479,c),
(480,1641,l),
(640,1641,l),
(640,1479,l),
(743,1474,o),
(841,1453,o),
(934,1416,c),
(934,1215,l),
(806,1276,o),
(708,1306,o),
(640,1306,c),
(640,848,l),
(695,818,ls),
(719,805,o),
(741,791,o),
(762,777,cs),
(929,668,o),
(1013,543,o),
(1013,408,cs),
(1013,204,o),
(866,26,o),
(640,3,c),
(640,-160,l)
);
},
{
closed = 1;
nodes = (
(609,197,l),
(721,221,o),
(778,281,o),
(778,376,cs),
(778,455,o),
(721,524,o),
(609,584,c)
);
},
{
closed = 1;
nodes = (
(510,1298,l),
(401,1279,o),
(346,1224,o),
(346,1133,cs),
(346,1045,o),
(401,980,o),
(510,932,c)
);
}
);
width = 1139;
},
{
layerId = "F7275F4E-BE84-4E16-A55D-D0D293F4C807";
shapes = (
{
closed = 1;
nodes = (
(528,-123,l),
(528,0,l),
(404,0,o),
(264,27,o),
(123,83,c),
(123,253,l),
(273,183,o),
(408,148,o),
(528,148,c),
(528,679,l),
(242,843,o),
(167,945,o),
(167,1125,cs),
(167,1321,o),
(304,1464,o),
(528,1480,c),
(528,1604,l),
(627,1604,l),
(627,1480,l),
(729,1480,o),
(840,1457,o),
(958,1413,c),
(958,1252,l),
(830,1307,o),
(720,1338,o),
(627,1345,c),
(627,818,l),
(673,789,ls),
(686,781,o),
(698,774,o),
(707,769,cs),
(935,643,o),
(989,565,o),
(989,415,cs),
(989,204,o),
(861,44,o),
(627,0,c),
(627,-123,l)
);
},
{
closed = 1;
nodes = (
(627,160,l),
(753,188,o),
(816,263,o),
(816,385,cs),
(816,481,o),
(795,518,o),
(627,621,c)
);
},
{
closed = 1;
nodes = (
(528,1339,l),
(402,1310,o),
(339,1240,o),
(339,1129,cs),
(339,1041,o),
(402,959,o),
(528,883,c)
);
}
);
width = 1139;
},
{
layerId = "5B74239F-5503-441B-9A3C-1744D3E8E825";
shapes = (
{
closed = 1;
nodes = (
(544,-111,l),
(544,-1,l),
(413,-1,o),
(268,26,o),
(131,85,c),
(131,239,l),
(290,168,o),
(428,133,o),
(544,136,c),
(544,682,l),
(263,857,o),
(186,952,o),
(186,1129,cs),
(186,1320,o),
(327,1467,o),
(544,1480,c),
(544,1592,l),
(623,1592,l),
(623,1480,l),
(724,1482,o),
(840,1458,o),
(966,1412,c),
(966,1264,l),
(838,1317,o),
(724,1349,o),
(623,1358,c),
(623,808,l),
(666,779,ls),
(675,773,o),
(684,768,o),
(689,766,c),
(937,635,o),
(981,572,o),
(981,417,cs),
(981,204,o),
(859,50,o),
(623,-1,c),
(623,-111,l)
);
},
{
closed = 1;
nodes = (
(633,148,l),
(764,177,o),
(829,257,o),
(829,388,cs),
(829,490,o),
(820,516,o),
(633,633,c)
);
},
{
closed = 1;
nodes = (
(534,1353,l),
(402,1320,o),
(337,1245,o),
(337,1128,cs),
(337,1040,o),
(402,952,o),
(534,867,c)
);
}
);
width = 1139;
},
{
layerId = "FCCE09BD-6896-404A-801B-05958BD13330";
shapes = (
{
closed = 1;
nodes = (
(464,-172,l),
(464,5,l),
(369,4,o),
(248,31,o),
(91,76,c),
(91,310,l),
(204,244,o),
(328,207,o),
(464,197,c),
(464,666,l),
(159,787,o),
(92,916,o),
(92,1108,cs),
(92,1326,o),
(211,1452,o),
(464,1479,c),
(464,1653,l),
(644,1653,l),
(644,1479,l),
(748,1472,o),
(841,1452,o),
(926,1417,c),
(926,1203,l),
(798,1266,o),
(704,1295,o),
(644,1293,c),
(644,858,l),
(702,828,ls),
(730,813,o),
(755,797,o),
(780,780,cs),
(927,676,o),
(1021,536,o),
(1021,406,cs),
(1021,204,o),
(868,20,o),
(644,4,c),
(644,-172,l)
);
},
{
closed = 1;
nodes = (
(603,209,l),
(710,232,o),
(765,287,o),
(765,373,cs),
(765,446,o),
(696,526,o),
(603,572,c)
);
},
{
closed = 1;
nodes = (
(504,1284,l),
(401,1269,o),
(348,1219,o),
(348,1134,cs),
(348,1046,o),
(401,987,o),
(504,948,c)
);
}
);
width = 1139;
}
);
unicode = 36;
},
{
glyphname = percent;
layers = (
{
layerId = "B4DBF483-61C5-4288-8615-E64CC28AC39C";
shapes = (
{
closed = 1;
nodes = (
(228,-37,l),
(1392,1517,l),
(1592,1517,l),
(429,-37,l)
);
},
{
closed = 1;
nodes = (
(84,1336,o),
(213,1480,o),
(435,1480,cs),
(645,1480,o),
(787,1346,o),
(787,1111,cs),
(787,880,o),
(656,740,o),
(431,740,cs),
(224,740,o),
(84,872,o),
(84,1110,cs)
);
},
{
closed = 1;
nodes = (
(306,965,o),
(347,888,o),
(433,888,cs),
(521,888,o),
(565,965,o),
(565,1111,cs),
(565,1240,o),
(531,1317,o),
(460,1330,cs),
(452,1331,o),
(444,1332,o),
(435,1332,cs),
(348,1332,o),
(306,1256,o),
(306,1110,cs)
);
},
{
closed = 1;
nodes = (
(1034,599,o),
(1167,740,o),
(1385,740,cs),
(1595,740,o),
(1737,606,o),
(1737,371,cs),
(1737,137,o),
(1605,0,o),
(1381,0,cs),
(1171,0,o),
(1034,135,o),
(1034,375,cs)
);
},
{
closed = 1;
nodes = (
(1256,225,o),
(1297,148,o),
(1383,148,cs),
(1471,148,o),
(1515,225,o),
(1515,371,cs),
(1515,500,o),
(1481,577,o),
(1410,590,cs),
(1402,591,o),
(1394,592,o),
(1385,592,cs),
(1298,592,o),
(1256,516,o),
(1256,370,cs)
);
}
);
width = 1821;
},
{
layerId = "F7275F4E-BE84-4E16-A55D-D0D293F4C807";
shapes = (
{
closed = 1;
nodes = (
(250,0,l),
(1402,1480,l),
(1556,1480,l),
(405,0,l)
);
},
{
closed = 1;
nodes = (
(120,1335,o),
(238,1480,o),
(447,1480,cs),
(656,1480,o),
(775,1337,o),
(775,1110,cs),
(775,884,o),
(656,740,o),
(448,740,cs),
(236,740,o),
(120,880,o),
(120,1116,cs)
);
},
{
closed = 1;
nodes = (
(284,962,o),
(347,849,o),
(447,849,cs),
(547,849,o),
(611,963,o),
(611,1110,cs),
(611,1257,o),
(546,1372,o),
(447,1372,cs),
(422,1372,o),
(401,1365,o),
(381,1353,cs),
(319,1316,o),
(284,1217,o),
(284,1115,cs)
);
},
{
closed = 1;
nodes = (
(1056,632,o),
(1188,777,o),
(1384,777,cs),
(1579,777,o),
(1711,634,o),
(1711,407,cs),
(1711,179,o),
(1593,37,o),
(1384,37,cs),
(1172,37,o),
(1056,177,o),
(1056,413,cs)
);
},
{
closed = 1;
nodes = (
(1220,263,o),
(1282,146,o),
(1384,146,cs),
(1483,146,o),
(1547,264,o),
(1547,397,cs),
(1547,559,o),
(1481,669,o),
(1384,669,cs),
(1359,669,o),
(1337,662,o),
(1317,650,cs),
(1255,613,o),
(1220,516,o),
(1220,402,cs)
);
}
);
width = 1821;
},
{
layerId = "5B74239F-5503-441B-9A3C-1744D3E8E825";
shapes = (
{
closed = 1;
nodes = (
(257,12,l),
(1405,1468,l),
(1544,1468,l),
(397,12,l)
);
},
{
closed = 1;
nodes = (
(132,1335,o),
(246,1480,o),
(451,1480,cs),
(660,1480,o),
(771,1334,o),
(771,1110,cs),
(771,885,o),
(656,740,o),
(454,740,cs),
(240,740,o),
(132,883,o),
(132,1118,cs)
);
},
{
closed = 1;
nodes = (
(277,961,o),
(347,836,o),
(452,836,cs),
(556,836,o),
(626,962,o),
(626,1110,cs),
(626,1263,o),
(551,1390,o),
(443,1386,c),
(412,1386,o),
(387,1376,o),
(363,1360,c),
(309,1311,o),
(277,1204,o),
(277,1117,cs)
);
},
{
closed = 1;
nodes = (
(1063,643,o),
(1195,789,o),
(1384,789,cs),
(1574,789,o),
(1702,643,o),
(1702,419,cs),
(1702,193,o),
(1589,49,o),
(1385,49,cs),
(1172,49,o),
(1063,191,o),
(1063,426,cs)
);
},
{
closed = 1;
nodes = (
(1208,276,o),
(1277,145,o),
(1384,145,cs),
(1487,145,o),
(1558,277,o),
(1558,406,cs),
(1558,579,o),
(1481,700,o),
(1375,695,c),
(1345,695,o),
(1318,685,o),
(1294,669,c),
(1241,620,o),
(1208,516,o),
(1208,413,cs)
);
}
);
width = 1821;
},
{
layerId = "FCCE09BD-6896-404A-801B-05958BD13330";
shapes = (
{
closed = 1;
nodes = (
(221,-49,l),
(1389,1529,l),
(1604,1529,l),
(437,-49,l)
);
},
{
closed = 1;
nodes = (
(72,1336,o),
(205,1480,o),
(431,1480,cs),
(641,1480,o),
(791,1349,o),
(791,1111,cs),
(791,879,o),
(656,740,o),
(425,740,cs),
(220,740,o),
(72,869,o),
(72,1108,cs)
);
},
{
closed = 1;
nodes = (
(313,966,o),
(347,901,o),
(428,901,cs),
(512,901,o),
(550,966,o),
(550,1111,cs),
(550,1234,o),
(526,1299,o),
(464,1316,c),
(462,1317,o),
(458,1321,o),
(453,1325,c),
(358,1337,o),
(313,1269,o),
(313,1108,cs)
);
},
{
closed = 1;
nodes = (
(1027,588,o),
(1160,728,o),
(1385,728,cs),
(1600,728,o),
(1746,597,o),
(1746,359,cs),
(1746,123,o),
(1609,-12,o),
(1380,-12,cs),
(1171,-12,o),
(1027,121,o),
(1027,362,cs)
);
},
{
closed = 1;
nodes = (
(1268,212,o),
(1302,149,o),
(1383,149,cs),
(1467,149,o),
(1504,212,o),
(1504,362,cs),
(1504,480,o),
(1481,546,o),
(1419,564,c),
(1416,565,o),
(1413,569,o),
(1408,573,c),
(1312,585,o),
(1268,516,o),
(1268,359,cs)
);
}
);
width = 1821;
}
);
unicode = 37;
},
{
glyphname = ampersand;
layers = (
{
layerId = "B4DBF483-61C5-4288-8615-E64CC28AC39C";
shapes = (
{
closed = 1;
nodes = (
(1046,0,l),
(980,79,l),
(864,2,o),
(736,-37,o),
(595,-37,cs),
(278,-37,o),
(45,162,o),
(45,437,cs),
(45,641,o),
(168,794,o),
(415,895,c),
(345,1018,o),
(308,1119,o),
(308,1199,cs),
(308,1375,o),
(484,1518,o),
(717,1518,cs),
(931,1518,o),
(1100,1390,o),
(1100,1204,cs),
(1100,1062,o),
(991,940,o),
(773,839,c),
(858,682,o),
(958,534,o),
(1073,395,c),
(1126,492,o),
(1154,584,o),
(1154,678,cs),
(1154,703,l),
(1403,703,l),
(1403,566,o),
(1331,414,o),
(1187,246,c),
(1252,161,o),
(1321,79,o),
(1394,0,c)
);
},
{
closed = 1;
nodes = (
(738,382,o),
(627,555,o),
(515,742,c),
(393,687,o),
(332,605,o),
(332,491,cs),
(332,311,o),
(465,154,o),
(648,154,cs),
(726,154,o),
(798,177,o),
(862,224,c)
);
},
{
closed = 1;
nodes = (
(795,1037,o),
(853,1111,o),
(853,1198,cs),
(853,1287,o),
(809,1332,o),
(721,1332,cs),
(635,1332,o),
(589,1290,o),
(589,1203,cs),
(589,1143,o),
(619,1074,o),
(680,977,c)
);
}
);
width = 1479;
},
{
layerId = "F7275F4E-BE84-4E16-A55D-D0D293F4C807";
shapes = (
{
closed = 1;
nodes = (
(1025,0,l),
(952,87,l),
(822,4,o),
(697,-37,o),
(575,-37,cs),
(280,-37,o),
(56,167,o),
(56,440,cs),
(56,666,o),
(172,821,o),
(405,904,c),
(346,1010,o),
(317,1103,o),
(317,1183,cs),
(317,1388,o),
(449,1517,o),
(659,1517,cs),
(856,1517,o),
(982,1401,o),
(982,1217,cs),
(982,1052,o),
(875,924,o),
(661,832,c),
(772,628,o),
(883,460,o),
(995,328,c),
(1061,412,o),
(1094,510,o),
(1094,623,cs),
(1094,703,l),
(1289,703,l),
(1289,528,o),
(1221,367,o),
(1087,221,c),
(1145,146,o),
(1214,72,o),
(1293,0,c)
);
},
{
closed = 1;
nodes = (
(736,349,o),
(601,549,o),
(475,790,c),
(327,724,o),
(254,620,o),
(254,478,cs),
(254,274,o),
(409,111,o),
(606,111,cs),
(680,111,o),
(767,141,o),
(866,202,c)
);
},
{
closed = 1;
nodes = (
(727,1012,o),
(797,1098,o),
(797,1213,cs),
(797,1317,o),
(750,1369,o),
(658,1369,cs),
(558,1369,o),
(509,1314,o),
(509,1205,cs),
(509,1138,o),
(535,1055,o),
(587,956,c)
);
}
);
width = 1366;
},
{
layerId = "5B74239F-5503-441B-9A3C-1744D3E8E825";
shapes = (
{
closed = 1;
nodes = (
(1018,0,l),
(943,90,l),
(808,5,o),
(684,-37,o),
(568,-37,cs),
(281,-37,o),
(60,169,o),
(60,441,cs),
(60,674,o),
(173,830,o),
(402,907,c),
(346,1007,o),
(320,1098,o),
(320,1178,cs),
(320,1392,o),
(437,1517,o),
(640,1517,cs),
(831,1517,o),
(943,1405,o),
(943,1221,cs),
(943,1049,o),
(836,919,o),
(624,830,c),
(743,610,o),
(858,435,o),
(969,306,c),
(1039,385,o),
(1074,485,o),
(1074,605,cs),
(1074,703,l),
(1251,703,l),
(1251,515,o),
(1184,351,o),
(1054,213,c),
(1109,141,o),
(1178,70,o),
(1259,0,c)
);
},
{
closed = 1;
nodes = (
(735,338,o),
(592,547,o),
(462,806,c),
(305,736,o),
(228,625,o),
(228,474,cs),
(228,262,o),
(390,97,o),
(592,97,cs),
(665,97,o),
(757,129,o),
(867,195,c)
);
},
{
closed = 1;
nodes = (
(704,1004,o),
(778,1094,o),
(778,1218,cs),
(778,1327,o),
(730,1381,o),
(637,1381,cs),
(532,1381,o),
(482,1322,o),
(482,1206,cs),
(482,1136,o),
(507,1049,o),
(556,949,c)
);
}
);
width = 1328;
},
{
layerId = "FCCE09BD-6896-404A-801B-05958BD13330";
shapes = (
{
closed = 1;
nodes = (
(1053,0,l),
(989,76,l),
(878,1,o),
(749,-37,o),
(602,-37,cs),
(277,-37,o),
(41,160,o),
(41,436,cs),
(41,633,o),
(167,785,o),
(418,892,c),
(345,1021,o),
(305,1124,o),
(305,1204,cs),
(305,1371,o),
(496,1518,o),
(736,1518,cs),
(956,1518,o),
(1139,1386,o),
(1139,1200,cs),
(1139,1065,o),
(1030,945,o),
(810,841,c),
(887,700,o),
(983,559,o),
(1099,417,c),
(1148,519,o),
(1174,609,o),
(1174,696,cs),
(1174,703,l),
(1441,703,l),
(1441,579,o),
(1368,430,o),
(1220,254,c),
(1288,166,o),
(1357,81,o),
(1428,0,c)
);
},
{
closed = 1;
nodes = (
(739,393,o),
(636,557,o),
(528,726,c),
(415,675,o),
(358,600,o),
(358,495,cs),
(358,323,o),
(484,168,o),
(662,168,cs),
(741,168,o),
(808,189,o),
(861,231,c)
);
},
{
closed = 1;
nodes = (
(818,1045,o),
(872,1115,o),
(872,1193,cs),
(872,1277,o),
(829,1320,o),
(742,1320,cs),
(661,1320,o),
(616,1282,o),
(616,1202,cs),
(616,1145,o),
(647,1080,o),
(711,984,c)
);
}
);
width = 1517;
}
);
unicode = 38;
},
{
glyphname = quotesingle;
layers = (
{
layerId = "B4DBF483-61C5-4288-8615-E64CC28AC39C";
shapes = (
{
closed = 1;
nodes = (
(145,952,l),
(83,1579,l),
(404,1579,l),
(330,952,l)
);
}
);
width = 487;
},
{
layerId = "F7275F4E-BE84-4E16-A55D-D0D293F4C807";
shapes = (
{
closed = 1;
nodes = (
(121,1036,l),
(72,1579,l),
(319,1579,l),
(269,1036,l)
);
}
);
width = 391;
},
{
layerId = "5B74239F-5503-441B-9A3C-1744D3E8E825";
shapes = (
{
closed = 1;
nodes = (
(113,1064,l),
(68,1579,l),
(291,1579,l),
(249,1064,l)
);
}
);
width = 359;
},
{
layerId = "FCCE09BD-6896-404A-801B-05958BD13330";
shapes = (
{
closed = 1;
nodes = (
(153,924,l),
(87,1579,l),
(432,1579,l),
(350,924,l)
);
}
);
width = 519;
}
);
unicode = 39;
},
{
glyphname = parenleft;
layers = (
{
layerId = "B4DBF483-61C5-4288-8615-E64CC28AC39C";
shapes = (
{
closed = 1;
nodes = (
(621,-308,l),
(298,-134,o),
(84,251,o),
(84,642,cs),
(84,1036,o),
(291,1407,o),
(621,1591,c),
(621,1400,l),
(442,1219,o),
(355,963,o),
(355,641,cs),
(355,315,o),
(444,60,o),
(621,-117,c)
);
}
);
width = 682;
},
{
layerId = "F7275F4E-BE84-4E16-A55D-D0D293F4C807";
shapes = (
{
closed = 1;
nodes = (
(600,-296,l),
(313,-101,o),
(131,263,o),
(131,642,cs),
(131,1019,o),
(313,1384,o),
(600,1579,c),
(600,1443,l),
(400,1225,o),
(328,1009,o),
(328,642,cs),
(328,271,o),
(401,55,o),
(600,-160,c)
);
}
);
width = 682;
},
{
layerId = "5B74239F-5503-441B-9A3C-1744D3E8E825";
shapes = (
{
closed = 1;
nodes = (
(593,-292,l),
(318,-90,o),
(147,267,o),
(147,642,cs),
(147,1013,o),
(320,1376,o),
(593,1575,c),
(593,1457,l),
(386,1227,o),
(319,1024,o),
(319,642,cs),
(319,256,o),
(387,53,o),
(593,-174,c)
);
}
);
width = 682;
},
{
layerId = "FCCE09BD-6896-404A-801B-05958BD13330";
shapes = (
{
closed = 1;
nodes = (
(628,-312,l),
(293,-145,o),
(68,247,o),
(68,642,cs),
(68,1042,o),
(284,1415,o),
(628,1595,c),
(628,1386,l),
(456,1217,o),
(364,948,o),
(364,641,cs),
(364,330,o),
(458,62,o),
(628,-103,c)
);
}
);
width = 682;
}
);
unicode = 40;
},
{
glyphname = parenright;
layers = (
{
layerId = "B4DBF483-61C5-4288-8615-E64CC28AC39C";
shapes = (
{
closed = 1;
nodes = (
(61,1591,l),
(379,1420,o),
(598,1038,o),
(598,641,cs),
(598,247,o),
(389,-125,o),
(61,-308,c),
(61,-117,l),
(239,63,o),
(326,316,o),
(326,639,cs),
(326,970,o),
(241,1215,o),
(61,1400,c)
);
}
);
width = 682;
},
{
layerId = "F7275F4E-BE84-4E16-A55D-D0D293F4C807";
shapes = (
{
closed = 1;
nodes = (
(82,1579,l),
(367,1385,o),
(551,1017,o),
(551,642,cs),
(551,264,o),
(367,-102,o),
(82,-296,c),
(82,-160,l),
(280,56,o),
(353,274,o),
(353,642,cs),
(353,1007,o),
(281,1227,o),
(82,1443,c)
);
}
);
width = 682;
},
{
layerId = "5B74239F-5503-441B-9A3C-1744D3E8E825";
shapes = (
{
closed = 1;
nodes = (
(89,1575,l),
(363,1373,o),
(535,1010,o),
(535,642,cs),
(535,270,o),
(360,-94,o),
(89,-292,c),
(89,-174,l),
(294,54,o),
(362,260,o),
(362,643,cs),
(362,1019,o),
(294,1231,o),
(89,1457,c)
);
}
);
width = 682;
},
{
layerId = "FCCE09BD-6896-404A-801B-05958BD13330";
shapes = (
{
closed = 1;
nodes = (
(54,1595,l),
(383,1432,o),
(614,1045,o),
(614,641,cs),
(614,241,o),
(396,-133,o),
(54,-312,c),
(54,-103,l),
(225,65,o),
(317,330,o),
(317,638,cs),
(317,958,o),
(228,1211,o),
(54,1386,c)
);
}
);
width = 682;
}
);
unicode = 41;
},
{
glyphname = asterisk;
layers = (
{
layerId = "B4DBF483-61C5-4288-8615-E64CC28AC39C";
shapes = (
{
closed = 1;
nodes = (
(431,1202,l),
(710,1202,l),
(634,844,l),
(612,855,o),
(591,860,o),
(570,860,cs),
(549,860,o),
(528,855,o),
(508,844,c)
);
},
{
closed = 1;
nodes = (
(87,757,l),
(173,1023,l),
(488,831,l),
(461,802,o),
(448,770,o),
(448,736,c),
(449,729,o),
(449,721,o),
(449,711,c)
);
},
{
closed = 1;
nodes = (
(967,1023,l),
(1056,758,l),
(691,711,l),
(692,721,o),
(693,729,o),
(693,736,cs),
(693,771,o),
(680,802,o),
(653,830,c)
);
},
{
closed = 1;
nodes = (
(958,445,l),
(844,362,ls),
(806,334,o),
(769,306,o),
(731,279,c),
(583,614,l),
(627,624,o),
(662,648,o),
(684,688,c)
);
},
{
closed = 1;
nodes = (
(411,280,l),
(184,444,l),
(457,688,l),
(479,648,o),
(514,623,o),
(559,615,c)
);
}
);
width = 1143;
},
{
layerId = "F7275F4E-BE84-4E16-A55D-D0D293F4C807";
shapes = (
{
closed = 1;
nodes = (
(495,1125,l),
(703,1125,l),
(655,765,l),
(639,773,o),
(620,778,o),
(599,778,cs),
(579,778,o),
(561,774,o),
(546,765,c)
);
},
{
closed = 1;
nodes = (
(141,722,l),
(205,919,l),
(533,761,l),
(518,747,o),
(511,732,o),
(504,712,cs),
(498,694,o),
(494,676,o),
(499,659,c)
);
},
{
closed = 1;
nodes = (
(991,918,l),
(1055,720,l),
(698,654,l),
(700,672,o),
(698,691,o),
(692,711,cs),
(686,730,o),
(677,745,o),
(665,757,c)
);
},
{
closed = 1;
nodes = (
(948,383,l),
(863,321,ls),
(835,301,o),
(808,282,o),
(780,262,c),
(606,582,l),
(639,586,o),
(680,613,o),
(694,644,c)
);
},
{
closed = 1;
nodes = (
(422,262,l),
(254,383,l),
(504,646,l),
(518,618,o),
(558,585,o),
(592,583,c)
);
}
);
width = 1196;
},
{
layerId = "5B74239F-5503-441B-9A3C-1744D3E8E825";
shapes = (
{
closed = 1;
nodes = (
(516,1099,l),
(701,1099,l),
(662,739,l),
(648,746,o),
(630,751,o),
(609,751,cs),
(589,751,o),
(572,747,o),
(559,739,c)
);
},
{
closed = 1;
nodes = (
(159,710,l),
(216,884,l),
(548,738,l),
(537,729,o),
(532,719,o),
(523,704,c),
(514,682,o),
(509,661,o),
(516,642,c)
);
},
{
closed = 1;
nodes = (
(999,883,l),
(1055,707,l),
(700,635,l),
(703,656,o),
(700,678,o),
(692,703,c),
(684,716,o),
(676,726,o),
(669,733,c)
);
},
{
closed = 1;
nodes = (
(945,362,l),
(869,307,ls),
(845,290,o),
(821,274,o),
(796,256,c),
(614,571,l),
(643,573,o),
(686,601,o),
(697,629,c)
);
},
{
closed = 1;
nodes = (
(426,256,l),
(277,363,l),
(520,632,l),
(531,608,o),
(573,572,o),
(603,572,c)
);
}
);
width = 1214;
},
{
layerId = "FCCE09BD-6896-404A-801B-05958BD13330";
shapes = (
{
closed = 1;
nodes = (
(410,1228,l),
(712,1228,l),
(627,870,l),
(603,882,o),
(581,887,o),
(560,887,cs),
(539,887,o),
(517,882,o),
(495,870,c)
);
},
{
closed = 1;
nodes = (
(69,769,l),
(162,1058,l),
(473,854,l),
(442,820,o),
(427,783,o),
(429,744,c),
(433,741,o),
(434,736,o),
(432,728,c)
);
},
{
closed = 1;
nodes = (
(959,1058,l),
(1056,771,l),
(689,730,l),
(689,737,o),
(691,742,o),
(693,744,c),
(695,785,o),
(681,821,o),
(649,854,c)
);
},
{
closed = 1;
nodes = (
(961,466,l),
(838,376,ls),
(796,345,o),
(756,314,o),
(715,285,c),
(575,625,l),
(623,637,o),
(656,660,o),
(681,703,c)
);
},
{
closed = 1;
nodes = (
(407,286,l),
(161,464,l),
(441,702,l),
(466,658,o),
(499,636,o),
(548,626,c)
);
}
);
width = 1125;
}
);
unicode = 42;
},
{
glyphname = plus;
layers = (
{
layerId = "B4DBF483-61C5-4288-8615-E64CC28AC39C";
shapes = (
{
closed = 1;
nodes = (
(500,99,l),
(500,495,l),
(104,495,l),
(104,690,l),
(500,690,l),
(500,1086,l),
(695,1086,l),
(695,690,l),
(1091,690,l),
(1091,495,l),
(695,495,l),
(695,99,l)
);
}
);
width = 1196;
},
{
layerId = "F7275F4E-BE84-4E16-A55D-D0D293F4C807";
shapes = (
{
closed = 1;
nodes = (
(523,99,l),
(523,518,l),
(104,518,l),
(104,666,l),
(523,666,l),
(523,1086,l),
(671,1086,l),
(671,666,l),
(1091,666,l),
(1091,518,l),
(671,518,l),
(671,99,l)
);
}
);
width = 1196;
},
{
layerId = "5B74239F-5503-441B-9A3C-1744D3E8E825";
shapes = (
{
closed = 1;
nodes = (
(531,99,l),
(531,526,l),
(104,526,l),
(104,658,l),
(531,658,l),
(531,1086,l),
(663,1086,l),
(663,658,l),
(1091,658,l),
(1091,526,l),
(663,526,l),
(663,99,l)
);
}
);
width = 1196;
},
{
layerId = "FCCE09BD-6896-404A-801B-05958BD13330";
shapes = (
{
closed = 1;
nodes = (
(492,99,l),
(492,487,l),
(104,487,l),
(104,698,l),
(492,698,l),
(492,1086,l),
(703,1086,l),
(703,698,l),
(1091,698,l),
(1091,487,l),
(703,487,l),
(703,99,l)
);
}
);
width = 1196;
}
);
unicode = 43;
},
{
glyphname = comma;
layers = (
{
layerId = "B4DBF483-61C5-4288-8615-E64CC28AC39C";
shapes = (
{
closed = 1;
nodes = (
(124,-239,l),
(206,-239,o),
(247,-170,o),
(247,-32,cs),
(247,0,l),
(124,0,l),
(124,321,l),
(445,321,l),
(445,72,ls),
(445,-209,o),
(337,-350,o),
(124,-350,c)
);
}
);
width = 569;
},
{
layerId = "F7275F4E-BE84-4E16-A55D-D0D293F4C807";
shapes = (
{
closed = 1;
nodes = (
(200,-276,l),
(264,-258,o),
(296,-172,o),
(296,-20,cs),
(296,0,l),
(200,0,l),
(200,247,l),
(447,247,l),
(447,33,ls),
(447,-222,o),
(364,-350,o),
(200,-350,c)
);
}
);
width = 648;
},
{
layerId = "5B74239F-5503-441B-9A3C-1744D3E8E825";
shapes = (
{
closed = 1;
nodes = (
(225,-288,l),
(283,-264,o),
(312,-173,o),
(312,-16,cs),
(312,0,l),
(225,0,l),
(225,222,l),
(448,222,l),
(448,20,ls),
(448,-226,o),
(373,-350,o),
(225,-350,c)
);
}
);
width = 674;
},
{
layerId = "FCCE09BD-6896-404A-801B-05958BD13330";
shapes = (
{
closed = 1;
nodes = (
(99,-227,l),
(187,-233,o),
(231,-169,o),
(231,-36,cs),
(231,0,l),
(99,0,l),
(99,346,l),
(444,346,l),
(444,85,ls),
(444,-205,o),
(328,-350,o),
(99,-350,c)
);
}
);
width = 543;
}
);
unicode = 44;
},
{
glyphname = hyphen;
layers = (
{
layerId = "B4DBF483-61C5-4288-8615-E64CC28AC39C";
shapes = (
{
closed = 1;
nodes = (
(104,495,l),
(104,690,l),
(1092,690,l),
(1092,495,l)
);
}
);
width = 1196;
},
{
layerId = "F7275F4E-BE84-4E16-A55D-D0D293F4C807";
shapes = (
{
closed = 1;
nodes = (
(104,518,l),
(104,666,l),
(1092,666,l),
(1092,518,l)
);
}
);
width = 1196;
},
{
layerId = "5B74239F-5503-441B-9A3C-1744D3E8E825";
shapes = (
{
closed = 1;
nodes = (
(104,526,l),
(104,658,l),
(1092,658,l),
(1092,526,l)
);
}
);
width = 1196;
},
{
layerId = "FCCE09BD-6896-404A-801B-05958BD13330";
shapes = (
{
closed = 1;
nodes = (
(104,487,l),
(104,698,l),
(1092,698,l),
(1092,487,l)
);
}
);
width = 1196;
}
);
unicode = 45;
},
{
glyphname = period;
layers = (
{
layerId = "B4DBF483-61C5-4288-8615-E64CC28AC39C";
shapes = (
{
closed = 1;
nodes = (
(124,0,l),
(124,321,l),
(445,321,l),
(445,0,l)
);
}
);
width = 569;
},
{
layerId = "F7275F4E-BE84-4E16-A55D-D0D293F4C807";
shapes = (
{
closed = 1;
nodes = (
(200,0,l),
(200,257,l),
(457,257,l),
(457,0,l)
);
}
);
width = 648;
},
{
layerId = "5B74239F-5503-441B-9A3C-1744D3E8E825";
shapes = (
{
closed = 1;
nodes = (
(225,0,l),
(225,236,l),
(461,236,l),
(461,0,l)
);
}
);
width = 674;
},
{
layerId = "FCCE09BD-6896-404A-801B-05958BD13330";
shapes = (
{
closed = 1;
nodes = (
(99,0,l),
(99,342,l),
(441,342,l),
(441,0,l)
);
}
);
width = 543;
}
);
unicode = 46;
},
{
glyphname = slash;
layers = (
{
layerId = "B4DBF483-61C5-4288-8615-E64CC28AC39C";
shapes = (
{
closed = 1;
nodes = (
(0,-123,l),
(369,1406,l),
(569,1406,l),
(200,-123,l)
);
}
);
width = 569;
},
{
layerId = "F7275F4E-BE84-4E16-A55D-D0D293F4C807";
shapes = (
{
closed = 1;
nodes = (
(0,-140,l),
(414,1480,l),
(569,1480,l),
(155,-140,l)
);
}
);
width = 569;
},
{
layerId = "5B74239F-5503-441B-9A3C-1744D3E8E825";
shapes = (
{
closed = 1;
nodes = (
(0,-146,l),
(429,1505,l),
(569,1505,l),
(140,-146,l)
);
}
);
width = 569;
},
{
layerId = "FCCE09BD-6896-404A-801B-05958BD13330";
shapes = (
{
closed = 1;
nodes = (
(0,-117,l),
(354,1381,l),
(569,1381,l),
(215,-117,l)
);
}
);
width = 569;
}
);
unicode = 47;
},
{
glyphname = zero;
layers = (
{
layerId = "B4DBF483-61C5-4288-8615-E64CC28AC39C";
shapes = (
{
closed = 1;
nodes = (
(274,-37,o),
(80,273,o),
(80,741,cs),
(80,1203,o),
(269,1517,o),
(570,1517,cs),
(863,1517,o),
(1060,1209,o),
(1060,741,c),
(1060,274,o),
(871,-37,o),
(570,-37,cs)
);
},
{
closed = 1;
nodes = (
(376,457,l),
(403,252,o),
(470,148,o),
(570,148,cs),
(694,148,o),
(763,305,o),
(777,617,cs),
(779,656,o),
(780,697,o),
(780,741,cs),
(780,794,o),
(779,844,o),
(776,890,c)
);
},
{
closed = 1;
nodes = (
(763,1025,l),
(735,1230,o),
(671,1332,o),
(570,1332,cs),
(446,1332,o),
(377,1176,o),
(363,865,cs),
(361,826,o),
(360,785,o),
(360,741,cs),
(360,688,o),
(361,638,o),
(363,592,c)
);
}
);
width = 1139;
},
{
layerId = "F7275F4E-BE84-4E16-A55D-D0D293F4C807";
shapes = (
{
closed = 1;
nodes = (
(242,-37,o),
(80,222,o),
(80,741,cs),
(80,1257,o),
(242,1517,o),
(569,1517,cs),
(891,1517,o),
(1055,1256,o),
(1058,741,c),
(1058,222,o),
(895,-37,o),
(569,-37,cs)
);
},
{
closed = 1;
nodes = (
(319,395,l),
(359,205,o),
(442,111,o),
(569,111,cs),
(759,111,o),
(854,319,o),
(854,737,cs),
(854,775,o),
(853,813,o),
(851,851,cs),
(849,888,o),
(845,925,o),
(841,961,c)
);
},
{
closed = 1;
nodes = (
(820,1086,l),
(779,1274,o),
(695,1369,o),
(569,1369,cs),
(379,1369,o),
(285,1159,o),
(285,740,cs),
(285,700,o),
(286,662,o),
(288,626,cs),
(290,590,o),
(293,555,o),
(298,521,c)
);
}
);
width = 1139;
},
{
layerId = "5B74239F-5503-441B-9A3C-1744D3E8E825";
shapes = (
{
closed = 1;
nodes = (
(231,-37,o),
(80,205,o),
(80,741,cs),
(80,1275,o),
(233,1517,o),
(569,1517,cs),
(900,1517,o),
(1053,1272,o),
(1057,741,c),
(1057,205,o),
(903,-37,o),
(569,-37,cs)
);
},
{
closed = 1;
nodes = (
(300,374,l),
(344,189,o),
(433,99,o),
(569,99,cs),
(781,99,o),
(884,324,o),
(880,777,cs),
(879,815,o),
(877,852,o),
(875,888,c),
(872,919,o),
(867,952,o),
(863,985,c)
);
},
{
closed = 1;
nodes = (
(839,1106,l),
(794,1289,o),
(703,1381,o),
(569,1381,cs),
(357,1381,o),
(254,1153,o),
(259,698,cs),
(260,658,o),
(261,621,o),
(264,588,cs),
(267,557,o),
(270,527,o),
(276,497,c)
);
}
);
width = 1139;
},
{
layerId = "FCCE09BD-6896-404A-801B-05958BD13330";
shapes = (
{
closed = 1;
nodes = (
(285,-37,o),
(80,290,o),
(80,741,cs),
(80,1185,o),
(278,1517,o),
(570,1517,cs),
(854,1517,o),
(1062,1193,o),
(1061,741,c),
(1061,291,o),
(863,-37,o),
(570,-37,cs)
);
},
{
closed = 1;
nodes = (
(395,478,l),
(418,268,o),
(479,160,o),
(570,160,cs),
(672,160,o),
(733,300,o),
(751,577,cs),
(754,616,o),
(756,658,o),
(756,704,cs),
(757,763,o),
(757,817,o),
(754,866,c)
);
},
{
closed = 1;
nodes = (
(744,1005,l),
(720,1215,o),
(663,1320,o),
(570,1320,cs),
(468,1320,o),
(408,1182,o),
(389,907,cs),
(386,868,o),
(385,826,o),
(384,779,cs),
(383,721,o),
(384,666,o),
(385,616,c)
);
}
);
width = 1139;
}
);
unicode = 48;
},
{
glyphname = one;
layers = (
{
layerId = "B4DBF483-61C5-4288-8615-E64CC28AC39C";
shapes = (
{
closed = 1;
nodes = (
(182,0,l),
(182,173,l),
(478,173,l),
(478,1265,l),
(182,1191,l),
(182,1369,l),
(774,1517,l),
(774,173,l),
(1070,173,l),
(1070,0,l)
);
}
);
width = 1139;
},
{
layerId = "F7275F4E-BE84-4E16-A55D-D0D293F4C807";
shapes = (
{
closed = 1;
nodes = (
(210,0,l),
(210,148,l),
(526,148,l),
(526,1316,l),
(210,1237,l),
(210,1389,l),
(724,1517,l),
(724,148,l),
(1040,148,l),
(1040,0,l)
);
}
);
width = 1139;
},
{
layerId = "5B74239F-5503-441B-9A3C-1744D3E8E825";
shapes = (
{
closed = 1;
nodes = (
(219,0,l),
(219,140,l),
(542,140,l),
(542,1333,l),
(219,1252,l),
(219,1396,l),
(707,1517,l),
(707,140,l),
(1030,140,l),
(1030,0,l)
);
}
);
width = 1139;
},
{
layerId = "FCCE09BD-6896-404A-801B-05958BD13330";
shapes = (
{
closed = 1;
nodes = (
(173,0,l),
(173,181,l),
(462,181,l),
(462,1248,l),
(173,1176,l),
(173,1362,l),
(791,1517,l),
(791,181,l),
(1080,181,l),
(1080,0,l)
);
}
);
width = 1139;
}
);
unicode = 49;
},
{
glyphname = two;
layers = (
{
layerId = "B4DBF483-61C5-4288-8615-E64CC28AC39C";
shapes = (
{
closed = 1;
nodes = (
(77,0,l),
(77,234,l),
(131,329,o),
(197,417,o),
(276,498,c),
(437,663,l),
(496,723,ls),
(577,804,o),
(632,873,o),
(657,919,c),
(682,966,o),
(695,1024,o),
(695,1095,cs),
(695,1249,o),
(621,1326,o),
(475,1326,cs),
(380,1326,o),
(260,1289,o),
(115,1216,c),
(115,1433,l),
(266,1489,o),
(402,1517,o),
(524,1517,cs),
(823,1517,o),
(1010,1360,o),
(1010,1098,c),
(1010,924,o),
(941,815,o),
(723,627,cs),
(624,544,ls),
(496,435,o),
(425,332,o),
(412,234,c),
(1005,234,l),
(1005,0,l)
);
}
);
width = 1139;
},
{
layerId = "F7275F4E-BE84-4E16-A55D-D0D293F4C807";
shapes = (
{
closed = 1;
nodes = (
(102,0,l),
(102,173,l),
(147,279,o),
(224,388,o),
(332,502,c),
(440,612,l),
(489,662,ls),
(552,726,o),
(604,784,o),
(645,843,c),
(702,928,o),
(731,1016,o),
(731,1099,cs),
(731,1279,o),
(650,1370,o),
(489,1370,cs),
(394,1370,o),
(277,1330,o),
(139,1250,c),
(139,1424,l),
(269,1486,o),
(396,1517,o),
(518,1517,cs),
(772,1517,o),
(941,1356,o),
(941,1101,c),
(940,924,o),
(882,821,o),
(658,620,cs),
(589,558,ls),
(449,432,o),
(367,302,o),
(340,173,c),
(933,173,l),
(933,0,l)
);
}
);
width = 1139;
},
{
layerId = "5B74239F-5503-441B-9A3C-1744D3E8E825";
shapes = (
{
closed = 1;
nodes = (
(110,0,l),
(110,153,l),
(152,262,o),
(233,378,o),
(351,503,c),
(441,595,l),
(487,642,ls),
(544,700,o),
(595,754,o),
(641,818,c),
(709,915,o),
(743,1013,o),
(743,1100,cs),
(743,1289,o),
(660,1385,o),
(494,1385,cs),
(399,1385,o),
(283,1344,o),
(147,1261,c),
(147,1421,l),
(270,1485,o),
(394,1517,o),
(516,1517,cs),
(755,1517,o),
(918,1355,o),
(918,1102,c),
(917,924,o),
(862,823,o),
(636,618,c),
(577,563,ls),
(433,431,o),
(348,292,o),
(316,153,c),
(909,153,l),
(909,0,l)
);
}
);
width = 1139;
},
{
layerId = "FCCE09BD-6896-404A-801B-05958BD13330";
shapes = (
{
closed = 1;
nodes = (
(69,0,l),
(69,254,l),
(126,346,o),
(188,427,o),
(257,497,cs),
(436,680,l),
(498,743,ls),
(585,830,o),
(641,903,o),
(661,944,c),
(675,979,o),
(683,1027,o),
(683,1094,cs),
(683,1239,o),
(611,1311,o),
(470,1311,cs),
(375,1311,o),
(254,1275,o),
(107,1205,c),
(107,1436,l),
(265,1490,o),
(404,1517,o),
(526,1517,cs),
(840,1517,o),
(1033,1361,o),
(1033,1097,c),
(1033,924,o),
(961,813,o),
(745,629,c),
(636,539,ls),
(512,436,o),
(444,342,o),
(436,254,c),
(1029,254,l),
(1029,0,l)
);
}
);
width = 1139;
}
);
unicode = 50;
},
{
glyphname = three;
layers = (
{
layerId = "B4DBF483-61C5-4288-8615-E64CC28AC39C";
shapes = (
{
closed = 1;
nodes = (
(137,233,l),
(280,178,o),
(393,148,o),
(465,148,cs),
(630,148,o),
(713,228,o),
(713,389,cs),
(713,606,o),
(618,690,o),
(325,690,cs),
(274,690,l),
(274,867,l),
(461,867,o),
(572,896,o),
(623,956,cs),
(656,995,o),
(672,1051,o),
(672,1123,cs),
(672,1264,o),
(599,1333,o),
(457,1333,cs),
(351,1333,o),
(251,1305,o),
(157,1249,c),
(157,1451,l),
(266,1495,o),
(386,1517,o),
(518,1517,cs),
(807,1517,o),
(974,1388,o),
(974,1162,cs),
(974,989,o),
(865,866,o),
(647,794,c),
(896,737,o),
(1021,603,o),
(1021,394,cs),
(1021,134,o),
(804,-37,o),
(486,-37,cs),
(375,-37,o),
(262,-20,o),
(137,11,c)
);
}
);
width = 1139;
},
{
layerId = "F7275F4E-BE84-4E16-A55D-D0D293F4C807";
shapes = (
{
closed = 1;
nodes = (
(153,195,l),
(286,139,o),
(386,111,o),
(454,111,cs),
(654,111,o),
(755,208,o),
(755,403,cs),
(755,604,o),
(616,719,o),
(368,719,cs),
(290,719,l),
(290,852,l),
(436,852,o),
(539,863,o),
(623,931,cs),
(687,983,o),
(720,1055,o),
(720,1147,cs),
(720,1295,o),
(639,1369,o),
(477,1369,cs),
(394,1369,o),
(293,1341,o),
(173,1286,c),
(173,1458,l),
(290,1497,o),
(394,1517,o),
(485,1517,cs),
(773,1517,o),
(917,1402,o),
(917,1172,cs),
(917,999,o),
(814,876,o),
(609,802,c),
(847,747,o),
(966,616,o),
(966,410,cs),
(966,138,o),
(773,-37,o),
(478,-37,cs),
(402,-37,o),
(294,-21,o),
(153,11,c)
);
}
);
width = 1139;
},
{
layerId = "5B74239F-5503-441B-9A3C-1744D3E8E825";
shapes = (
{
closed = 1;
nodes = (
(158,182,l),
(288,126,o),
(384,99,o),
(450,99,cs),
(662,99,o),
(769,201,o),
(769,408,cs),
(769,603,o),
(615,729,o),
(382,729,cs),
(295,729,l),
(295,847,l),
(428,847,o),
(528,852,o),
(623,923,cs),
(697,979,o),
(736,1056,o),
(736,1155,cs),
(736,1305,o),
(652,1381,o),
(484,1381,cs),
(408,1381,o),
(307,1353,o),
(178,1298,c),
(178,1460,l),
(298,1498,o),
(397,1517,o),
(474,1517,cs),
(762,1517,o),
(898,1407,o),
(898,1175,cs),
(898,1002,o),
(797,879,o),
(596,805,c),
(831,750,o),
(948,620,o),
(948,415,cs),
(948,139,o),
(763,-37,o),
(475,-37,cs),
(411,-37,o),
(305,-21,o),
(158,11,c)
);
}
);
width = 1139;
},
{
layerId = "FCCE09BD-6896-404A-801B-05958BD13330";
shapes = (
{
closed = 1;
nodes = (
(132,246,l),
(278,191,o),
(395,160,o),
(469,160,cs),
(622,160,o),
(699,235,o),
(699,384,cs),
(699,607,o),
(619,680,o),
(311,680,cs),
(269,680,l),
(269,872,l),
(469,872,o),
(583,907,o),
(623,964,c),
(646,999,o),
(656,1050,o),
(656,1115,cs),
(656,1254,o),
(586,1321,o),
(450,1321,cs),
(337,1321,o),
(237,1293,o),
(152,1237,c),
(152,1449,l),
(258,1494,o),
(383,1517,o),
(529,1517,cs),
(818,1517,o),
(993,1383,o),
(993,1159,cs),
(993,986,o),
(882,863,o),
(660,791,c),
(912,734,o),
(1039,599,o),
(1039,389,cs),
(1039,133,o),
(814,-37,o),
(489,-37,cs),
(366,-37,o),
(251,-20,o),
(132,11,c)
);
}
);
width = 1139;
}
);
unicode = 51;
},
{
glyphname = four;
layers = (
{
layerId = "B4DBF483-61C5-4288-8615-E64CC28AC39C";
shapes = (
{
closed = 1;
nodes = (
(673,0,l),
(673,395,l),
(31,395,l),
(31,617,l),
(661,1480,l),
(932,1480,l),
(932,617,l),
(1068,617,l),
(1068,395,l),
(932,395,l),
(932,0,l)
);
},
{
closed = 1;
nodes = (
(269,617,l),
(679,617,l),
(679,1197,l)
);
}
);
width = 1139;
},
{
layerId = "F7275F4E-BE84-4E16-A55D-D0D293F4C807";
shapes = (
{
closed = 1;
nodes = (
(688,0,l),
(688,419,l),
(31,419,l),
(31,568,l),
(688,1480,l),
(873,1480,l),
(873,580,l),
(1071,580,l),
(1071,419,l),
(873,419,l),
(873,0,l)
);
},
{
closed = 1;
nodes = (
(224,580,l),
(701,580,l),
(701,1238,l)
);
}
);
width = 1139;
},
{
layerId = "5B74239F-5503-441B-9A3C-1744D3E8E825";
shapes = (
{
closed = 1;
nodes = (
(693,0,l),
(693,427,l),
(31,427,l),
(31,552,l),
(697,1480,l),
(853,1480,l),
(853,568,l),
(1072,568,l),
(1072,427,l),
(853,427,l),
(853,0,l)
);
},
{
closed = 1;
nodes = (
(209,568,l),
(708,568,l),
(708,1252,l)
);
}
);
width = 1139;
},
{
layerId = "FCCE09BD-6896-404A-801B-05958BD13330";
shapes = (
{
closed = 1;
nodes = (
(668,0,l),
(668,387,l),
(31,387,l),
(31,633,l),
(652,1480,l),
(952,1480,l),
(952,629,l),
(1067,629,l),
(1067,387,l),
(952,387,l),
(952,0,l)
);
},
{
closed = 1;
nodes = (
(284,629,l),
(672,629,l),
(672,1183,l)
);
}
);
width = 1139;
}
);
unicode = 52;
},
{
glyphname = five;
layers = (
{
layerId = "B4DBF483-61C5-4288-8615-E64CC28AC39C";
shapes = (
{
closed = 1;
nodes = (
(144,220,l),
(244,172,o),
(336,148,o),
(441,148,cs),
(596,148,o),
(701,268,o),
(701,420,cs),
(701,632,o),
(580,724,o),
(292,724,cs),
(170,724,l),
(170,1480,l),
(986,1480,l),
(986,1246,l),
(381,1246,l),
(381,905,l),
(412,905,ls),
(738,905,o),
(1016,790,o),
(1016,442,cs),
(1016,132,o),
(751,-37,o),
(469,-37,cs),
(379,-37,o),
(273,-24,o),
(144,6,c)
);
}
);
width = 1139;
},
{
layerId = "F7275F4E-BE84-4E16-A55D-D0D293F4C807";
shapes = (
{
closed = 1;
nodes = (
(163,170,l),
(261,130,o),
(355,111,o),
(443,111,cs),
(654,111,o),
(756,239,o),
(756,434,cs),
(756,622,o),
(650,742,o),
(358,742,cs),
(188,742,l),
(188,1480,l),
(936,1480,l),
(936,1308,l),
(361,1308,l),
(361,893,l),
(426,893,ls),
(768,893,o),
(966,731,o),
(966,434,cs),
(966,92,o),
(702,-37,o),
(417,-37,cs),
(341,-37,o),
(259,-26,o),
(163,-6,c)
);
}
);
width = 1139;
},
{
layerId = "5B74239F-5503-441B-9A3C-1744D3E8E825";
shapes = (
{
closed = 1;
nodes = (
(169,153,l),
(267,116,o),
(361,99,o),
(444,99,cs),
(673,99,o),
(774,229,o),
(774,439,cs),
(774,619,o),
(673,748,o),
(380,748,cs),
(194,748,l),
(194,1480,l),
(919,1480,l),
(919,1329,l),
(354,1329,l),
(354,889,l),
(431,889,ls),
(778,889,o),
(949,711,o),
(949,431,cs),
(949,79,o),
(686,-37,o),
(400,-37,cs),
(328,-37,o),
(254,-27,o),
(169,-10,c)
);
}
);
width = 1139;
},
{
layerId = "FCCE09BD-6896-404A-801B-05958BD13330";
shapes = (
{
closed = 1;
nodes = (
(138,237,l),
(238,186,o),
(330,160,o),
(440,160,cs),
(577,160,o),
(683,278,o),
(683,415,cs),
(683,635,o),
(557,718,o),
(270,718,cs),
(164,718,l),
(164,1480,l),
(1003,1480,l),
(1003,1225,l),
(388,1225,l),
(388,909,l),
(407,909,ls),
(728,909,o),
(1033,810,o),
(1033,445,cs),
(1033,145,o),
(767,-37,o),
(486,-37,cs),
(392,-37,o),
(278,-23,o),
(138,10,c)
);
}
);
width = 1139;
}
);
unicode = 53;
},
{
glyphname = six;
layers = (
{
layerId = "B4DBF483-61C5-4288-8615-E64CC28AC39C";
shapes = (
{
closed = 1;
nodes = (
(444,905,o),
(541,953,o),
(653,953,cs),
(904,953,o),
(1061,774,o),
(1061,494,cs),
(1061,156,o),
(893,-37,o),
(587,-37,cs),
(250,-37,o),
(52,237,o),
(52,695,cs),
(52,1189,o),
(294,1517,o),
(686,1517,cs),
(771,1517,o),
(872,1502,o),
(989,1471,c),
(989,1255,l),
(861,1307,o),
(766,1333,o),
(703,1333,cs),
(487,1333,o),
(362,1145,o),
(362,832,cs),
(362,824,o),
(363,816,o),
(363,808,c)
);
},
{
closed = 1;
nodes = (
(789,667,o),
(725,771,o),
(597,771,cs),
(458,771,o),
(377,640,o),
(377,464,cs),
(377,270,o),
(459,148,o),
(594,148,cs),
(724,148,o),
(789,253,o),
(789,460,cs)
);
}
);
width = 1139;
},
{
layerId = "F7275F4E-BE84-4E16-A55D-D0D293F4C807";
shapes = (
{
closed = 1;
nodes = (
(385,892,o),
(497,950,o),
(633,950,cs),
(877,950,o),
(1027,774,o),
(1027,487,cs),
(1027,151,o),
(863,-37,o),
(568,-37,cs),
(266,-37,o),
(84,242,o),
(84,690,cs),
(84,1206,o),
(300,1518,o),
(670,1518,cs),
(756,1518,o),
(849,1499,o),
(947,1462,c),
(947,1290,l),
(829,1343,o),
(736,1370,o),
(670,1370,cs),
(421,1370,o),
(298,1171,o),
(298,778,c),
(298,1173,o),
(298,975,o),
(298,778,c)
);
},
{
closed = 1;
nodes = (
(833,685,o),
(750,808,o),
(586,808,cs),
(413,808,o),
(305,681,o),
(305,491,cs),
(305,271,o),
(421,111,o),
(586,111,cs),
(750,111,o),
(833,220,o),
(833,440,cs)
);
}
);
width = 1139;
},
{
layerId = "5B74239F-5503-441B-9A3C-1744D3E8E825";
shapes = (
{
closed = 1;
nodes = (
(365,888,o),
(482,949,o),
(626,949,cs),
(868,949,o),
(1016,774,o),
(1016,485,cs),
(1016,149,o),
(853,-37,o),
(562,-37,cs),
(271,-37,o),
(95,244,o),
(95,688,cs),
(95,1212,o),
(302,1518,o),
(665,1518,cs),
(751,1518,o),
(841,1498,o),
(933,1459,c),
(933,1302,l),
(818,1355,o),
(726,1382,o),
(659,1382,cs),
(399,1382,o),
(277,1180,o),
(277,760,c),
(277,1289,o),
(276,1028,o),
(276,768,c)
);
},
{
closed = 1;
nodes = (
(848,691,o),
(758,820,o),
(582,820,cs),
(398,820,o),
(281,695,o),
(281,500,cs),
(281,271,o),
(408,99,o),
(583,99,cs),
(759,99,o),
(848,209,o),
(848,433,cs)
);
}
);
width = 1139;
},
{
layerId = "FCCE09BD-6896-404A-801B-05958BD13330";
shapes = (
{
closed = 1;
nodes = (
(464,909,o),
(556,954,o),
(660,954,cs),
(913,954,o),
(1072,774,o),
(1072,496,cs),
(1072,158,o),
(903,-37,o),
(593,-37,cs),
(245,-37,o),
(41,235,o),
(41,697,cs),
(41,1183,o),
(292,1517,o),
(691,1517,cs),
(776,1517,o),
(880,1503,o),
(1003,1474,c),
(1003,1243,l),
(872,1295,o),
(776,1321,o),
(714,1321,cs),
(509,1321,o),
(383,1136,o),
(383,850,cs),
(383,708,o),
(385,763,o),
(385,818,c)
);
},
{
closed = 1;
nodes = (
(774,661,o),
(717,759,o),
(601,759,cs),
(473,759,o),
(401,626,o),
(401,455,cs),
(401,270,o),
(472,160,o),
(597,160,cs),
(715,160,o),
(774,264,o),
(774,467,cs)
);
}
);
width = 1139;
}
);
unicode = 54;
},
{
glyphname = seven;
layers = (
{
layerId = "B4DBF483-61C5-4288-8615-E64CC28AC39C";
shapes = (
{
closed = 1;
nodes = (
(176,0,l),
(201,204,o),
(260,336,o),
(475,696,c),
(809,1240,l),
(113,1240,l),
(113,1480,l),
(1051,1480,l),
(1051,1240,l),
(702,748,o),
(520,335,o),
(505,0,c)
);
}
);
width = 1139;
},
{
layerId = "F7275F4E-BE84-4E16-A55D-D0D293F4C807";
shapes = (
{
closed = 1;
nodes = (
(237,0,l),
(277,244,o),
(325,339,o),
(494,645,c),
(898,1295,l),
(136,1295,l),
(136,1480,l),
(1086,1480,l),
(1086,1295,l),
(706,735,o),
(493,303,o),
(449,0,c)
);
}
);
width = 1139;
},
{
layerId = "5B74239F-5503-441B-9A3C-1744D3E8E825";
shapes = (
{
closed = 1;
nodes = (
(257,0,l),
(302,257,o),
(347,340,o),
(500,628,c),
(928,1313,l),
(144,1313,l),
(144,1480,l),
(1098,1480,l),
(1098,1313,l),
(707,731,o),
(484,292,o),
(430,0,c)
);
}
);
width = 1139;
},
{
layerId = "FCCE09BD-6896-404A-801B-05958BD13330";
shapes = (
{
closed = 1;
nodes = (
(156,0,l),
(176,191,o),
(238,335,o),
(469,713,cs),
(779,1222,l),
(105,1222,l),
(105,1480,l),
(1039,1480,l),
(1039,1222,l),
(701,752,o),
(529,346,o),
(524,0,c)
);
}
);
width = 1139;
}
);
unicode = 55;
},
{
glyphname = eight;
layers = (
{
layerId = "B4DBF483-61C5-4288-8615-E64CC28AC39C";
shapes = (
{
closed = 1;
nodes = (
(204,926,o),
(168,990,o),
(168,1139,cs),
(168,1374,o),
(334,1517,o),
(603,1517,cs),
(841,1517,o),
(1011,1394,o),
(1011,1181,cs),
(1011,1040,o),
(936,917,o),
(786,813,c),
(1012,667,o),
(1078,574,o),
(1078,406,cs),
(1078,145,o),
(866,-37,o),
(566,-37,cs),
(276,-37,o),
(86,115,o),
(86,364,cs),
(86,545,o),
(155,646,o),
(361,797,c)
);
},
{
closed = 1;
nodes = (
(714,960,o),
(755,1043,o),
(755,1144,cs),
(755,1267,o),
(702,1332,o),
(592,1332,cs),
(482,1332,o),
(424,1279,o),
(424,1169,cs),
(424,1071,o),
(499,1007,o),
(632,897,c)
);
},
{
closed = 1;
nodes = (
(509,699,l),
(413,611,o),
(367,508,o),
(367,393,cs),
(367,229,o),
(441,145,o),
(596,145,cs),
(721,145,o),
(810,229,o),
(810,346,cs),
(810,458,o),
(791,483,o),
(617,616,cs)
);
}
);
width = 1139;
},
{
layerId = "F7275F4E-BE84-4E16-A55D-D0D293F4C807";
shapes = (
{
closed = 1;
nodes = (
(248,906,o),
(176,1016,o),
(176,1140,cs),
(176,1363,o),
(358,1517,o),
(620,1517,cs),
(860,1517,o),
(1030,1389,o),
(1030,1194,cs),
(1030,1053,o),
(938,924,o),
(754,806,c),
(977,695,o),
(1089,555,o),
(1089,383,cs),
(1089,135,o),
(879,-37,o),
(586,-37,cs),
(295,-37,o),
(99,122,o),
(99,370,cs),
(99,543,o),
(196,690,o),
(393,806,c)
);
},
{
closed = 1;
nodes = (
(782,959,o),
(851,1057,o),
(851,1163,cs),
(851,1290,o),
(751,1369,o),
(598,1369,cs),
(451,1369,o),
(355,1292,o),
(355,1176,cs),
(355,1065,o),
(420,994,o),
(644,868,c)
);
},
{
closed = 1;
nodes = (
(500,726,l),
(337,600,o),
(296,532,o),
(296,396,cs),
(296,226,o),
(414,111,o),
(594,111,cs),
(763,111,o),
(886,208,o),
(886,352,cs),
(886,468,o),
(837,526,o),
(640,643,cs)
);
}
);
width = 1139;
},
{
layerId = "5B74239F-5503-441B-9A3C-1744D3E8E825";
shapes = (
{
closed = 1;
nodes = (
(263,899,o),
(179,1025,o),
(179,1140,cs),
(179,1359,o),
(366,1517,o),
(626,1517,cs),
(866,1517,o),
(1036,1387,o),
(1036,1198,cs),
(1036,1057,o),
(939,926,o),
(743,804,c),
(965,704,o),
(1093,549,o),
(1093,375,cs),
(1093,132,o),
(883,-37,o),
(593,-37,cs),
(301,-37,o),
(103,124,o),
(103,372,cs),
(103,542,o),
(210,705,o),
(404,809,c)
);
},
{
closed = 1;
nodes = (
(805,959,o),
(883,1062,o),
(883,1169,cs),
(883,1298,o),
(767,1381,o),
(600,1381,cs),
(441,1381,o),
(332,1296,o),
(332,1178,cs),
(332,1063,o),
(394,990,o),
(648,858,c)
);
},
{
closed = 1;
nodes = (
(497,735,l),
(312,596,o),
(272,540,o),
(272,397,cs),
(272,225,o),
(405,100,o),
(593,100,cs),
(777,100,o),
(911,201,o),
(911,354,cs),
(911,471,o),
(852,540,o),
(648,652,cs)
);
}
);
width = 1139;
},
{
layerId = "FCCE09BD-6896-404A-801B-05958BD13330";
shapes = (
{
closed = 1;
nodes = (
(189,933,o),
(165,981,o),
(165,1139,cs),
(165,1378,o),
(326,1517,o),
(597,1517,cs),
(835,1517,o),
(1005,1396,o),
(1005,1177,cs),
(1005,1036,o),
(935,915,o),
(797,815,c),
(1024,658,o),
(1074,580,o),
(1074,414,cs),
(1074,148,o),
(862,-37,o),
(559,-37,cs),
(270,-37,o),
(82,113,o),
(82,362,cs),
(82,546,o),
(141,631,o),
(350,794,c)
);
},
{
closed = 1;
nodes = (
(691,960,o),
(723,1038,o),
(723,1138,cs),
(723,1259,o),
(686,1320,o),
(590,1320,cs),
(492,1320,o),
(447,1275,o),
(447,1167,cs),
(447,1073,o),
(525,1011,o),
(628,907,c)
);
},
{
closed = 1;
nodes = (
(512,690,l),
(438,615,o),
(391,500,o),
(391,392,cs),
(391,230,o),
(450,156,o),
(597,156,cs),
(707,156,o),
(785,236,o),
(785,344,cs),
(785,455,o),
(776,469,o),
(609,607,c)
);
}
);
width = 1139;
}
);
unicode = 56;
},
{
glyphname = nine;
layers = (
{
layerId = "B4DBF483-61C5-4288-8615-E64CC28AC39C";
shapes = (
{
closed = 1;
nodes = (
(778,672,l),
(695,575,o),
(598,527,o),
(487,527,cs),
(238,527,o),
(79,704,o),
(79,987,cs),
(79,1324,o),
(247,1517,o),
(553,1517,cs),
(890,1517,o),
(1088,1239,o),
(1088,786,cs),
(1088,289,o),
(843,-37,o),
(455,-37,cs),
(370,-37,o),
(268,-22,o),
(151,9,c),
(151,226,l),
(280,174,o),
(375,148,o),
(437,148,cs),
(655,148,o),
(778,337,o),
(778,648,c)
);
},
{
closed = 1;
nodes = (
(351,813,o),
(414,709,o),
(543,709,cs),
(679,709,o),
(764,837,o),
(764,1017,cs),
(764,1212,o),
(678,1333,o),
(546,1333,cs),
(415,1333,o),
(351,1227,o),
(351,1021,cs)
);
}
);
width = 1139;
},
{
layerId = "F7275F4E-BE84-4E16-A55D-D0D293F4C807";
shapes = (
{
closed = 1;
nodes = (
(725,587,o),
(614,530,o),
(478,530,cs),
(232,530,o),
(84,705,o),
(84,994,cs),
(84,1326,o),
(246,1518,o),
(542,1518,cs),
(842,1518,o),
(1027,1237,o),
(1027,790,cs),
(1027,272,o),
(808,-38,o),
(441,-38,cs),
(353,-38,o),
(261,-19,o),
(163,18,c),
(163,190,l),
(281,137,o),
(374,111,o),
(441,111,cs),
(688,111,o),
(813,309,o),
(813,702,c)
);
},
{
closed = 1;
nodes = (
(278,794,o),
(360,672,o),
(525,672,cs),
(694,672,o),
(806,795,o),
(806,989,cs),
(806,1205,o),
(689,1369,o),
(524,1369,cs),
(360,1369,o),
(278,1259,o),
(278,1040,cs)
);
}
);
width = 1139;
},
{
layerId = "5B74239F-5503-441B-9A3C-1744D3E8E825";
shapes = (
{
closed = 1;
nodes = (
(825,712,l),
(735,591,o),
(619,531,o),
(475,531,cs),
(230,531,o),
(86,705,o),
(86,996,cs),
(86,1327,o),
(246,1518,o),
(538,1518,cs),
(826,1518,o),
(1007,1236,o),
(1007,791,cs),
(1007,266,o),
(796,-38,o),
(436,-38,cs),
(347,-38,o),
(259,-18,o),
(167,21,c),
(167,178,l),
(281,125,o),
(374,99,o),
(442,99,cs),
(699,99,o),
(825,300,o),
(825,720,c)
);
},
{
closed = 1;
nodes = (
(254,788,o),
(342,660,o),
(519,660,cs),
(699,660,o),
(820,781,o),
(820,980,cs),
(820,1203,o),
(693,1381,o),
(517,1381,cs),
(342,1381,o),
(254,1270,o),
(254,1046,cs)
);
}
);
width = 1139;
},
{
layerId = "FCCE09BD-6896-404A-801B-05958BD13330";
shapes = (
{
closed = 1;
nodes = (
(766,662,l),
(685,571,o),
(593,526,o),
(490,526,cs),
(240,526,o),
(77,704,o),
(77,985,cs),
(77,1323,o),
(247,1517,o),
(557,1517,cs),
(906,1517,o),
(1108,1240,o),
(1108,785,cs),
(1108,295,o),
(855,-37,o),
(460,-37,cs),
(376,-37,o),
(270,-23,o),
(147,6,c),
(147,238,l),
(280,186,o),
(375,160,o),
(436,160,cs),
(644,160,o),
(766,346,o),
(766,630,cs)
);
},
{
closed = 1;
nodes = (
(375,819,o),
(432,721,o),
(549,721,cs),
(674,721,o),
(750,851,o),
(750,1026,cs),
(750,1214,o),
(674,1321,o),
(553,1321,cs),
(433,1321,o),
(375,1216,o),
(375,1015,cs)
);
}
);
width = 1139;
}
);
unicode = 57;
},
{
glyphname = colon;
layers = (
{
layerId = "B4DBF483-61C5-4288-8615-E64CC28AC39C";
shapes = (
{
closed = 1;
nodes = (
(214,0,l),
(214,321,l),
(535,321,l),
(535,0,l)
);
},
{
closed = 1;
nodes = (
(214,802,l),
(214,1123,l),
(535,1123,l),
(535,802,l)
);
}
);
width = 682;
},
{
layerId = "F7275F4E-BE84-4E16-A55D-D0D293F4C807";
shapes = (
{
closed = 1;
nodes = (
(200,0,l),
(200,247,l),
(447,247,l),
(447,0,l)
);
},
{
closed = 1;
nodes = (
(200,851,l),
(200,1098,l),
(447,1098,l),
(447,851,l)
);
}
);
width = 627;
},
{
layerId = "5B74239F-5503-441B-9A3C-1744D3E8E825";
shapes = (
{
closed = 1;
nodes = (
(195,0,l),
(195,222,l),
(418,222,l),
(418,0,l)
);
},
{
closed = 1;
nodes = (
(195,867,l),
(195,1090,l),
(418,1090,l),
(418,867,l)
);
}
);
width = 609;
},
{
layerId = "FCCE09BD-6896-404A-801B-05958BD13330";
shapes = (
{
closed = 1;
nodes = (
(219,0,l),
(219,346,l),
(564,346,l),
(564,0,l)
);
},
{
closed = 1;
nodes = (
(219,786,l),
(219,1131,l),
(564,1131,l),
(564,786,l)
);
}
);
width = 700;
}
);
unicode = 58;
},
{
glyphname = semicolon;
layers = (
{
layerId = "B4DBF483-61C5-4288-8615-E64CC28AC39C";
shapes = (
{
closed = 1;
nodes = (
(214,802,l),
(214,1123,l),
(535,1123,l),
(535,802,l)
);
},
{
closed = 1;
nodes = (
(214,-239,l),
(296,-239,o),
(337,-170,o),
(337,-32,cs),
(337,0,l),
(214,0,l),
(214,321,l),
(535,321,l),
(535,72,ls),
(535,-209,o),
(427,-350,o),
(214,-350,c)
);
}
);
width = 682;
},
{
layerId = "F7275F4E-BE84-4E16-A55D-D0D293F4C807";
shapes = (
{
closed = 1;
nodes = (
(200,851,l),
(200,1098,l),
(447,1098,l),
(447,851,l)
);
},
{
closed = 1;
nodes = (
(200,-276,l),
(264,-258,o),
(296,-172,o),
(296,-20,cs),
(296,0,l),
(200,0,l),
(200,247,l),
(447,247,l),
(447,33,ls),
(447,-222,o),
(364,-350,o),
(200,-350,c)
);
}
);
width = 627;
},
{
layerId = "5B74239F-5503-441B-9A3C-1744D3E8E825";
shapes = (
{
closed = 1;
nodes = (
(195,867,l),
(195,1090,l),
(418,1090,l),
(418,867,l)
);
},
{
closed = 1;
nodes = (
(195,-288,l),
(253,-264,o),
(282,-173,o),
(282,-16,cs),
(282,0,l),
(195,0,l),
(195,222,l),
(418,222,l),
(418,20,ls),
(418,-226,o),
(343,-350,o),
(195,-350,c)
);
}
);
width = 609;
},
{
layerId = "FCCE09BD-6896-404A-801B-05958BD13330";
shapes = (
{
closed = 1;
nodes = (
(219,786,l),
(219,1131,l),
(564,1131,l),
(564,786,l)
);
},
{
closed = 1;
nodes = (
(219,-227,l),
(307,-233,o),
(351,-169,o),
(351,-36,cs),
(351,0,l),
(219,0,l),
(219,346,l),
(564,346,l),
(564,85,ls),
(564,-205,o),
(448,-350,o),
(219,-350,c)
);
}
);
width = 700;
}
);
unicode = 59;
},
{
glyphname = less;
layers = (
{
layerId = "B4DBF483-61C5-4288-8615-E64CC28AC39C";
shapes = (
{
closed = 1;
nodes = (
(1091,99,l),
(104,592,l),
(1091,1086,l),
(1091,868,l),
(542,593,l),
(542,591,l),
(1091,317,l)
);
}
);
width = 1196;
},
{
layerId = "F7275F4E-BE84-4E16-A55D-D0D293F4C807";
shapes = (
{
closed = 1;
nodes = (
(1091,99,l),
(104,592,l),
(1091,1086,l),
(1091,920,l),
(437,593,l),
(437,591,l),
(1091,264,l)
);
}
);
width = 1196;
},
{
layerId = "5B74239F-5503-441B-9A3C-1744D3E8E825";
shapes = (
{
closed = 1;
nodes = (
(1091,99,l),
(104,592,l),
(1091,1086,l),
(1091,937,l),
(402,593,l),
(402,591,l),
(1091,246,l)
);
}
);
width = 1196;
},
{
layerId = "FCCE09BD-6896-404A-801B-05958BD13330";
shapes = (
{
closed = 1;
nodes = (
(1091,99,l),
(104,592,l),
(1091,1086,l),
(1091,851,l),
(577,593,l),
(577,591,l),
(1091,335,l)
);
}
);
width = 1196;
}
);
unicode = 60;
},
{
glyphname = equal;
layers = (
{
layerId = "B4DBF483-61C5-4288-8615-E64CC28AC39C";
shapes = (
{
closed = 1;
nodes = (
(104,269,l),
(104,481,l),
(1091,481,l),
(1091,269,l)
);
},
{
closed = 1;
nodes = (
(104,703,l),
(104,898,l),
(1091,898,l),
(1091,703,l)
);
}
);
width = 1196;
},
{
layerId = "F7275F4E-BE84-4E16-A55D-D0D293F4C807";
shapes = (
{
closed = 1;
nodes = (
(30,294,l),
(30,464,l),
(1166,464,l),
(1166,294,l)
);
},
{
closed = 1;
nodes = (
(30,720,l),
(30,890,l),
(1166,890,l),
(1166,720,l)
);
}
);
width = 1196;
},
{
layerId = "5B74239F-5503-441B-9A3C-1744D3E8E825";
shapes = (
{
closed = 1;
nodes = (
(5,302,l),
(5,458,l),
(1191,458,l),
(1191,302,l)
);
},
{
closed = 1;
nodes = (
(5,726,l),
(5,887,l),
(1191,887,l),
(1191,726,l)
);
}
);
width = 1196;
},
{
layerId = "FCCE09BD-6896-404A-801B-05958BD13330";
shapes = (
{
closed = 1;
nodes = (
(129,261,l),
(129,487,l),
(1066,487,l),
(1066,261,l)
);
},
{
closed = 1;
nodes = (
(129,697,l),
(129,901,l),
(1066,901,l),
(1066,697,l)
);
}
);
width = 1196;
}
);
unicode = 61;
},
{
glyphname = greater;
layers = (
{
layerId = "B4DBF483-61C5-4288-8615-E64CC28AC39C";
shapes = (
{
closed = 1;
nodes = (
(105,1086,l),
(1092,592,l),
(105,99,l),
(105,317,l),
(654,591,l),
(654,593,l),
(105,868,l)
);
}
);
width = 1196;
},
{
layerId = "F7275F4E-BE84-4E16-A55D-D0D293F4C807";
shapes = (
{
closed = 1;
nodes = (
(104,1086,l),
(1091,592,l),
(104,99,l),
(104,264,l),
(758,591,l),
(758,593,l),
(104,920,l)
);
}
);
width = 1196;
},
{
layerId = "5B74239F-5503-441B-9A3C-1744D3E8E825";
shapes = (
{
closed = 1;
nodes = (
(104,1086,l),
(1091,592,l),
(104,99,l),
(104,246,l),
(793,591,l),
(793,593,l),
(104,937,l)
);
}
);
width = 1196;
},
{
layerId = "FCCE09BD-6896-404A-801B-05958BD13330";
shapes = (
{
closed = 1;
nodes = (
(105,1086,l),
(1092,592,l),
(105,99,l),
(105,335,l),
(619,591,l),
(619,593,l),
(105,851,l)
);
}
);
width = 1196;
}
);
unicode = 62;
},
{
glyphname = question;
layers = (
{
layerId = "B4DBF483-61C5-4288-8615-E64CC28AC39C";
shapes = (
{
closed = 1;
nodes = (
(352,0,l),
(352,247,l),
(668,247,l),
(668,0,l)
);
},
{
closed = 1;
nodes = (
(362,432,l),
(362,450,ls),
(362,613,o),
(409,700,o),
(562,815,c),
(662,889,l),
(746,957,o),
(788,1038,o),
(788,1131,cs),
(788,1258,o),
(699,1320,o),
(525,1320,cs),
(381,1320,o),
(253,1292,o),
(140,1237,c),
(140,1463,l),
(270,1499,o),
(408,1517,o),
(555,1517,cs),
(930,1517,o),
(1119,1402,o),
(1119,1170,cs),
(1119,1004,o),
(1044,944,o),
(791,799,c),
(687,738,o),
(658,684,o),
(658,503,cs),
(658,432,l)
);
}
);
width = 1251;
},
{
layerId = "F7275F4E-BE84-4E16-A55D-D0D293F4C807";
shapes = (
{
closed = 1;
nodes = (
(396,0,l),
(396,197,l),
(593,197,l),
(593,0,l)
);
},
{
closed = 1;
nodes = (
(396,395,l),
(396,422,ls),
(396,602,o),
(439,730,o),
(549,822,c),
(628,891,l),
(745,982,o),
(804,1076,o),
(804,1172,cs),
(804,1303,o),
(712,1369,o),
(529,1369,cs),
(413,1369,o),
(293,1346,o),
(170,1300,c),
(170,1467,l),
(289,1500,o),
(414,1517,o),
(544,1517,cs),
(857,1517,o),
(1014,1401,o),
(1014,1171,cs),
(1014,1020,o),
(923,935,o),
(752,821,c),
(616,734,o),
(593,670,o),
(593,505,cs),
(593,395,l)
);
}
);
width = 1139;
},
{
layerId = "5B74239F-5503-441B-9A3C-1744D3E8E825";
shapes = (
{
closed = 1;
nodes = (
(411,0,l),
(411,180,l),
(568,180,l),
(568,0,l)
);
},
{
closed = 1;
nodes = (
(407,383,l),
(407,413,ls),
(407,598,o),
(449,740,o),
(545,824,c),
(617,892,l),
(745,990,o),
(809,1089,o),
(809,1186,cs),
(809,1318,o),
(716,1385,o),
(530,1385,cs),
(424,1385,o),
(306,1364,o),
(180,1321,c),
(180,1468,l),
(295,1500,o),
(416,1517,o),
(540,1517,cs),
(833,1517,o),
(979,1401,o),
(979,1171,cs),
(979,1025,o),
(883,932,o),
(739,828,c),
(592,733,o),
(571,665,o),
(571,506,cs),
(571,383,l)
);
}
);
width = 1102;
},
{
layerId = "FCCE09BD-6896-404A-801B-05958BD13330";
shapes = (
{
closed = 1;
nodes = (
(337,0,l),
(337,264,l),
(693,264,l),
(693,0,l)
);
},
{
closed = 1;
nodes = (
(351,444,l),
(351,459,ls),
(351,617,o),
(399,690,o),
(566,813,c),
(673,888,l),
(746,949,o),
(783,1025,o),
(783,1117,cs),
(783,1243,o),
(695,1304,o),
(524,1304,cs),
(370,1304,o),
(240,1274,o),
(130,1216,c),
(130,1462,l),
(264,1499,o),
(406,1517,o),
(559,1517,cs),
(954,1517,o),
(1154,1402,o),
(1154,1170,cs),
(1154,999,o),
(1084,947,o),
(804,792,cs),
(711,739,o),
(680,689,o),
(680,502,cs),
(680,444,l)
);
}
);
width = 1288;
}
);
unicode = 63;
},
{
glyphname = at;
layers = (
{
layerId = "B4DBF483-61C5-4288-8615-E64CC28AC39C";
shapes = (
{
closed = 1;
nodes = (
(1192,45,l),
(1075,-10,o),
(959,-37,o),
(843,-37,cs),
(650,-37,o),
(504,21,o),
(374,136,c),
(252,251,o),
(191,399,o),
(191,578,cs),
(191,826,o),
(285,1045,o),
(473,1233,cs),
(661,1422,o),
(878,1517,o),
(1125,1517,cs),
(1312,1517,o),
(1468,1457,o),
(1594,1338,cs),
(1719,1219,o),
(1782,1071,o),
(1782,892,cs),
(1782,724,o),
(1732,583,o),
(1629,468,cs),
(1528,353,o),
(1402,296,o),
(1252,296,cs),
(1143,296,o),
(1089,332,o),
(1089,405,cs),
(1089,436,o),
(1107,512,o),
(1145,635,c),
(1124,635,l),
(1021,440,o),
(856,296,o),
(723,296,cs),
(604,296,o),
(544,375,o),
(544,527,cs),
(544,684,o),
(598,831,o),
(705,967,cs),
(813,1104,o),
(930,1172,o),
(1055,1172,cs),
(1092,1172,o),
(1172,1158,o),
(1251,1158,cs),
(1385,1158,l),
(1274,600,ls),
(1267,565,o),
(1264,533,o),
(1264,503,cs),
(1264,458,o),
(1289,435,o),
(1340,435,cs),
(1504,435,o),
(1653,666,o),
(1653,883,cs),
(1653,1167,o),
(1419,1388,o),
(1124,1388,cs),
(912,1388,o),
(726,1305,o),
(564,1143,cs),
(401,980,o),
(320,794,o),
(320,581,cs),
(320,294,o),
(541,92,o),
(840,92,cs),
(943,92,o),
(1046,116,o),
(1149,164,c)
);
},
{
closed = 1;
nodes = (
(1180,1010,l),
(1127,1035,o),
(1079,1047,o),
(1038,1047,cs),
(866,1047,o),
(723,829,o),
(723,573,cs),
(723,491,o),
(747,450,o),
(794,450,cs),
(865,450,o),
(1032,632,o),
(1142,824,c)
);
}
);
width = 1997;
},
{
layerId = "F7275F4E-BE84-4E16-A55D-D0D293F4C807";
shapes = (
{
closed = 1;
nodes = (
(1253,44,l),
(1133,-10,o),
(1015,-37,o),
(900,-37,cs),
(712,-37,o),
(558,20,o),
(436,136,cs),
(314,252,o),
(253,398,o),
(253,576,cs),
(253,825,o),
(347,1044,o),
(535,1233,cs),
(723,1422,o),
(940,1517,o),
(1188,1517,cs),
(1374,1517,o),
(1530,1457,o),
(1656,1337,cs),
(1781,1217,o),
(1844,1068,o),
(1844,890,cs),
(1844,724,o),
(1793,584,o),
(1693,469,cs),
(1592,353,o),
(1470,296,o),
(1326,296,cs),
(1215,296,o),
(1160,334,o),
(1160,411,cs),
(1160,462,o),
(1195,560,o),
(1221,642,c),
(1209,642,l),
(1087,410,o),
(958,296,o),
(822,296,cs),
(693,296,o),
(629,369,o),
(629,517,cs),
(629,687,o),
(682,840,o),
(790,975,cs),
(898,1110,o),
(1019,1178,o),
(1154,1178,cs),
(1190,1178,o),
(1275,1172,o),
(1311,1172,cs),
(1448,1172,l),
(1322,536,ls),
(1318,514,o),
(1316,494,o),
(1316,474,cs),
(1316,429,o),
(1341,407,o),
(1391,407,cs),
(1567,407,o),
(1733,632,o),
(1733,873,cs),
(1733,1177,o),
(1494,1407,o),
(1173,1407,cs),
(961,1407,o),
(774,1323,o),
(610,1157,cs),
(446,991,o),
(364,801,o),
(364,587,cs),
(364,285,o),
(593,74,o),
(915,74,cs),
(1020,74,o),
(1121,98,o),
(1217,146,c)
);
},
{
closed = 1;
nodes = (
(1272,1028,l),
(1210,1050,o),
(1157,1061,o),
(1112,1061,cs),
(921,1061,o),
(783,839,o),
(783,561,cs),
(783,466,o),
(810,419,o),
(865,419,cs),
(955,419,o),
(1077,558,o),
(1233,833,c)
);
}
);
width = 2079;
},
{
layerId = "5B74239F-5503-441B-9A3C-1744D3E8E825";
shapes = (
{
closed = 1;
nodes = (
(1273,44,l),
(1152,-10,o),
(1034,-37,o),
(919,-37,cs),
(733,-37,o),
(576,20,o),
(457,136,c),
(335,252,o),
(274,398,o),
(274,575,cs),
(274,825,o),
(368,1044,o),
(556,1233,cs),
(744,1422,o),
(961,1517,o),
(1209,1517,cs),
(1395,1517,o),
(1551,1457,o),
(1677,1337,cs),
(1802,1216,o),
(1865,1067,o),
(1865,889,cs),
(1865,724,o),
(1813,584,o),
(1714,469,cs),
(1613,353,o),
(1493,296,o),
(1351,296,cs),
(1239,296,o),
(1184,335,o),
(1184,413,cs),
(1184,471,o),
(1224,576,o),
(1246,644,c),
(1237,644,l),
(1109,400,o),
(992,296,o),
(855,296,cs),
(723,296,o),
(657,367,o),
(657,514,cs),
(657,688,o),
(710,843,o),
(818,978,cs),
(926,1112,o),
(1049,1180,o),
(1187,1180,cs),
(1223,1180,o),
(1309,1177,o),
(1331,1177,cs),
(1469,1177,l),
(1338,515,l),
(1335,497,o),
(1333,481,o),
(1333,464,cs),
(1333,419,o),
(1358,398,o),
(1408,398,cs),
(1588,398,o),
(1760,621,o),
(1760,870,cs),
(1760,1180,o),
(1519,1413,o),
(1189,1413,cs),
(977,1413,o),
(790,1329,o),
(625,1162,cs),
(461,995,o),
(379,803,o),
(379,589,cs),
(379,282,o),
(610,68,o),
(940,68,cs),
(1046,68,o),
(1146,92,o),
(1240,140,c)
);
},
{
closed = 1;
nodes = (
(1303,1034,l),
(1238,1055,o),
(1183,1066,o),
(1137,1066,cs),
(939,1066,o),
(803,842,o),
(803,557,cs),
(803,458,o),
(831,409,o),
(889,409,cs),
(985,409,o),
(1092,533,o),
(1263,836,c)
);
}
);
width = 2106;
},
{
layerId = "FCCE09BD-6896-404A-801B-05958BD13330";
shapes = (
{
closed = 1;
nodes = (
(1172,45,l),
(1056,-10,o),
(940,-37,o),
(824,-37,cs),
(629,-37,o),
(486,21,o),
(353,136,c),
(231,251,o),
(170,399,o),
(170,579,cs),
(170,826,o),
(264,1045,o),
(452,1233,cs),
(640,1422,o),
(857,1517,o),
(1104,1517,cs),
(1291,1517,o),
(1447,1457,o),
(1573,1338,cs),
(1698,1220,o),
(1761,1072,o),
(1761,893,cs),
(1761,724,o),
(1712,583,o),
(1608,468,c),
(1507,353,o),
(1379,296,o),
(1227,296,cs),
(1119,296,o),
(1065,331,o),
(1065,403,cs),
(1065,427,o),
(1078,496,o),
(1120,633,c),
(1096,633,l),
(999,450,o),
(822,296,o),
(690,296,cs),
(574,296,o),
(516,377,o),
(516,530,cs),
(516,683,o),
(570,828,o),
(677,964,cs),
(785,1102,o),
(900,1170,o),
(1022,1170,cs),
(1059,1170,o),
(1138,1153,o),
(1231,1153,cs),
(1364,1153,l),
(1258,621,ls),
(1250,582,o),
(1247,546,o),
(1247,513,cs),
(1247,468,o),
(1272,444,o),
(1323,444,cs),
(1483,444,o),
(1626,677,o),
(1626,886,cs),
(1626,1164,o),
(1394,1382,o),
(1108,1382,cs),
(896,1382,o),
(710,1299,o),
(549,1138,cs),
(386,976,o),
(305,792,o),
(305,579,cs),
(305,297,o),
(524,98,o),
(815,98,cs),
(917,98,o),
(1021,122,o),
(1126,170,c)
);
},
{
closed = 1;
nodes = (
(1149,1004,l),
(1099,1030,o),
(1053,1042,o),
(1013,1042,cs),
(848,1042,o),
(703,826,o),
(703,577,cs),
(703,499,o),
(726,460,o),
(770,460,cs),
(835,460,o),
(1017,657,o),
(1112,821,c)
);
}
);
width = 1970;
}
);
unicode = 64;
},
{
glyphname = A;
layers = (
{
layerId = "B4DBF483-61C5-4288-8615-E64CC28AC39C";
shapes = (
{
closed = 1;
nodes = (
(12,0,l),
(586,1480,l),
(894,1480,l),
(1466,0,l),
(1151,0,l),
(1000,395,l),
(388,395,l),
(237,0,l)
);
},
{
closed = 1;
nodes = (
(464,592,l),
(924,592,l),
(694,1182,l)
);
}
);
width = 1479;
},
{
layerId = "F7275F4E-BE84-4E16-A55D-D0D293F4C807";
shapes = (
{
closed = 1;
nodes = (
(19,0,l),
(581,1480,l),
(789,1480,l),
(1342,0,l),
(1116,0,l),
(962,410,l),
(368,410,l),
(214,0,l)
);
},
{
closed = 1;
nodes = (
(428,566,l),
(904,566,l),
(667,1200,l)
);
}
);
width = 1366;
},
{
layerId = "5B74239F-5503-441B-9A3C-1744D3E8E825";
shapes = (
{
closed = 1;
nodes = (
(21,0,l),
(579,1480,l),
(754,1480,l),
(1301,0,l),
(1104,0,l),
(949,415,l),
(361,415,l),
(206,0,l)
);
},
{
closed = 1;
nodes = (
(416,557,l),
(897,557,l),
(658,1206,l)
);
}
);
width = 1328;
},
{
layerId = "FCCE09BD-6896-404A-801B-05958BD13330";
shapes = (
{
closed = 1;
nodes = (
(10,0,l),
(588,1480,l),
(929,1480,l),
(1507,0,l),
(1163,0,l),
(1013,390,l),
(395,390,l),
(245,0,l)
);
},
{
closed = 1;
nodes = (
(476,601,l),
(931,601,l),
(703,1176,l)
);
}
);
width = 1517;
}
);
unicode = 65;
},
{
glyphname = B;
layers = (
{
layerId = "B4DBF483-61C5-4288-8615-E64CC28AC39C";
shapes = (
{
closed = 1;
nodes = (
(173,0,l),
(173,1480,l),
(650,1480,ls),
(1064,1480,o),
(1345,1467,o),
(1345,1151,cs),
(1345,973,o),
(1227,847,o),
(990,773,c),
(1267,706,o),
(1406,571,o),
(1406,366,cs),
(1406,169,o),
(1289,46,o),
(1075,11,cs),
(997,-2,o),
(900,0,o),
(808,0,cs)
);
},
{
closed = 1;
nodes = (
(463,210,l),
(602,210,ls),
(809,210,o),
(941,214,o),
(1009,251,cs),
(1058,279,o),
(1083,329,o),
(1083,402,cs),
(1083,588,o),
(899,666,o),
(668,666,cs),
(463,666,l)
);
},
{
closed = 1;
nodes = (
(463,864,l),
(606,864,ls),
(823,864,o),
(1032,865,o),
(1032,1102,cs),
(1032,1236,o),
(968,1277,o),
(738,1277,cs),
(463,1277,l)
);
}
);
width = 1479;
},
{
layerId = "F7275F4E-BE84-4E16-A55D-D0D293F4C807";
shapes = (
{
closed = 1;
nodes = (
(165,0,l),
(165,1480,l),
(639,1480,ls),
(1027,1480,o),
(1172,1390,o),
(1172,1145,cs),
(1172,965,o),
(1062,840,o),
(844,771,c),
(1102,700,o),
(1231,567,o),
(1231,371,cs),
(1231,201,o),
(1132,66,o),
(993,26,cs),
(930,8,o),
(829,0,o),
(691,0,cs)
);
},
{
closed = 1;
nodes = (
(375,157,l),
(530,157,ls),
(724,157,o),
(856,171,o),
(917,200,cs),
(978,229,o),
(1009,290,o),
(1009,384,cs),
(1009,586,o),
(844,697,o),
(546,697,cs),
(375,697,l)
);
},
{
closed = 1;
nodes = (
(375,830,l),
(554,830,ls),
(820,830,o),
(956,922,o),
(956,1111,cs),
(956,1275,o),
(875,1323,o),
(569,1323,cs),
(375,1323,l)
);
}
);
width = 1366;
},
{
layerId = "5B74239F-5503-441B-9A3C-1744D3E8E825";
shapes = (
{
closed = 1;
nodes = (
(162,0,l),
(162,1480,l),
(635,1480,ls),
(1015,1480,o),
(1114,1364,o),
(1114,1143,cs),
(1114,962,o),
(1007,838,o),
(795,770,c),
(1047,698,o),
(1173,566,o),
(1173,373,cs),
(1173,212,o),
(1080,73,o),
(966,31,c),
(908,11,o),
(805,0,o),
(652,0,cs)
);
},
{
closed = 1;
nodes = (
(346,139,l),
(506,139,ls),
(696,139,o),
(828,157,o),
(886,183,cs),
(951,212,o),
(984,277,o),
(984,378,cs),
(984,585,o),
(826,707,o),
(505,707,cs),
(346,707,l)
);
},
{
closed = 1;
nodes = (
(346,819,l),
(537,819,ls),
(819,819,o),
(931,941,o),
(931,1114,cs),
(931,1288,o),
(844,1338,o),
(513,1338,cs),
(346,1338,l)
);
}
);
width = 1328;
},
{
layerId = "FCCE09BD-6896-404A-801B-05958BD13330";
shapes = (
{
closed = 1;
nodes = (
(176,0,l),
(176,1480,l),
(654,1480,ls),
(1076,1480,o),
(1403,1493,o),
(1403,1153,cs),
(1403,976,o),
(1282,849,o),
(1039,774,c),
(1322,708,o),
(1464,572,o),
(1464,364,cs),
(1464,158,o),
(1341,39,o),
(1102,6,cs),
(1019,-5,o),
(924,0,o),
(847,0,cs)
);
},
{
closed = 1;
nodes = (
(492,228,l),
(626,228,ls),
(837,228,o),
(969,228,o),
(1040,268,c),
(1085,296,o),
(1108,342,o),
(1108,408,cs),
(1108,589,o),
(917,656,o),
(709,656,cs),
(492,656,l)
);
},
{
closed = 1;
nodes = (
(492,875,l),
(623,875,ls),
(824,875,o),
(1057,846,o),
(1057,1099,cs),
(1057,1223,o),
(999,1262,o),
(794,1262,cs),
(492,1262,l)
);
}
);
width = 1517;
}
);
unicode = 66;
},
{
glyphname = C;
layers = (
{
layerId = "B4DBF483-61C5-4288-8615-E64CC28AC39C";
shapes = (
{
closed = 1;
nodes = (
(1406,59,l),
(1263,-5,o),
(1084,-37,o),
(871,-37,cs),
(365,-37,o),
(80,239,o),
(80,740,cs),
(80,1251,o),
(363,1517,o),
(893,1517,cs),
(1066,1517,o),
(1232,1498,o),
(1393,1460,c),
(1393,1219,l),
(1211,1282,o),
(1053,1314,o),
(920,1314,cs),
(576,1314,o),
(407,1122,o),
(407,744,cs),
(407,368,o),
(586,176,o),
(949,176,cs),
(1106,176,o),
(1258,213,o),
(1406,286,c)
);
}
);
width = 1479;
},
{
layerId = "F7275F4E-BE84-4E16-A55D-D0D293F4C807";
shapes = (
{
closed = 1;
nodes = (
(1352,76,l),
(1206,0,o),
(1043,-37,o),
(863,-37,cs),
(375,-37,o),
(116,232,o),
(116,739,cs),
(116,1239,o),
(379,1517,o),
(871,1517,cs),
(1013,1517,o),
(1172,1495,o),
(1350,1452,c),
(1350,1255,l),
(1146,1325,o),
(984,1360,o),
(864,1360,cs),
(523,1360,o),
(341,1140,o),
(341,737,cs),
(341,350,o),
(539,127,o),
(888,127,cs),
(1036,127,o),
(1191,170,o),
(1352,256,c)
);
}
);
width = 1479;
},
{
layerId = "5B74239F-5503-441B-9A3C-1744D3E8E825";
shapes = (
{
closed = 1;
nodes = (
(1334,82,l),
(1187,2,o),
(1029,-37,o),
(860,-37,cs),
(378,-37,o),
(128,230,o),
(128,739,cs),
(128,1235,o),
(384,1517,o),
(864,1517,cs),
(995,1517,o),
(1152,1494,o),
(1336,1449,c),
(1336,1267,l),
(1124,1339,o),
(961,1375,o),
(845,1375,cs),
(505,1375,o),
(319,1146,o),
(319,735,cs),
(319,344,o),
(523,111,o),
(868,111,cs),
(1013,111,o),
(1169,156,o),
(1334,246,c)
);
}
);
width = 1479;
},
{
layerId = "FCCE09BD-6896-404A-801B-05958BD13330";
shapes = (
{
closed = 1;
nodes = (
(1424,53,l),
(1282,-7,o),
(1098,-37,o),
(874,-37,cs),
(362,-37,o),
(68,241,o),
(68,740,cs),
(68,1255,o),
(358,1517,o),
(900,1517,cs),
(1084,1517,o),
(1252,1499,o),
(1407,1463,c),
(1407,1207,l),
(1233,1268,o),
(1076,1299,o),
(939,1299,cs),
(594,1299,o),
(429,1116,o),
(429,746,cs),
(429,374,o),
(602,192,o),
(969,192,cs),
(1129,192,o),
(1280,227,o),
(1424,296,c)
);
}
);
width = 1479;
}
);
unicode = 67;
},
{
glyphname = D;
layers = (
{
layerId = "B4DBF483-61C5-4288-8615-E64CC28AC39C";
shapes = (
{
closed = 1;
nodes = (
(173,0,l),
(173,1480,l),
(688,1480,ls),
(1145,1480,o),
(1399,1229,o),
(1399,771,cs),
(1399,285,o),
(1129,0,o),
(661,0,cs)
);
},
{
closed = 1;
nodes = (
(481,210,l),
(590,210,ls),
(636,210,o),
(679,214,o),
(719,221,cs),
(957,265,o),
(1072,442,o),
(1072,753,cs),
(1072,993,o),
(979,1171,o),
(809,1242,cs),
(754,1265,o),
(691,1277,o),
(621,1277,cs),
(481,1277,l)
);
}
);
width = 1479;
},
{
layerId = "F7275F4E-BE84-4E16-A55D-D0D293F4C807";
shapes = (
{
closed = 1;
nodes = (
(165,0,l),
(165,1480,l),
(639,1480,ls),
(1136,1480,o),
(1386,1245,o),
(1386,775,cs),
(1386,283,o),
(1113,0,o),
(642,0,cs)
);
},
{
closed = 1;
nodes = (
(375,157,l),
(501,157,ls),
(543,157,o),
(585,157,o),
(627,157,cs),
(988,157,o),
(1161,350,o),
(1161,755,cs),
(1161,1028,o),
(1045,1229,o),
(851,1289,cs),
(779,1311,o),
(672,1323,o),
(530,1323,cs),
(375,1323,l)
);
}
);
width = 1479;
},
{
layerId = "5B74239F-5503-441B-9A3C-1744D3E8E825";
shapes = (
{
closed = 1;
nodes = (
(162,0,l),
(162,1480,l),
(623,1480,ls),
(1133,1480,o),
(1382,1250,o),
(1382,776,cs),
(1382,282,o),
(1108,0,o),
(636,0,cs)
);
},
{
closed = 1;
nodes = (
(340,139,l),
(471,139,ls),
(512,139,o),
(554,138,o),
(596,136,c),
(998,121,o),
(1191,319,o),
(1191,756,cs),
(1191,1040,o),
(1067,1248,o),
(865,1305,cs),
(787,1326,o),
(666,1338,o),
(500,1338,cs),
(340,1338,l)
);
}
);
width = 1479;
},
{
layerId = "FCCE09BD-6896-404A-801B-05958BD13330";
shapes = (
{
closed = 1;
nodes = (
(176,0,l),
(176,1480,l),
(704,1480,ls),
(1148,1480,o),
(1403,1224,o),
(1403,770,cs),
(1403,286,o),
(1134,0,o),
(667,0,cs)
);
},
{
closed = 1;
nodes = (
(516,228,l),
(620,228,ls),
(667,228,o),
(710,233,o),
(750,242,c),
(947,301,o),
(1042,473,o),
(1042,752,cs),
(1042,981,o),
(957,1152,o),
(795,1226,c),
(746,1250,o),
(697,1262,o),
(651,1262,cs),
(516,1262,l)
);
}
);
width = 1479;
}
);
unicode = 68;
},
{
glyphname = E;
layers = (
{
layerId = "B4DBF483-61C5-4288-8615-E64CC28AC39C";
shapes = (
{
closed = 1;
nodes = (
(173,0,l),
(173,1480,l),
(1259,1480,l),
(1259,1277,l),
(481,1277,l),
(481,864,l),
(1148,864,l),
(1148,666,l),
(481,666,l),
(481,210,l),
(1306,210,l),
(1306,0,l)
);
}
);
width = 1366;
},
{
layerId = "F7275F4E-BE84-4E16-A55D-D0D293F4C807";
shapes = (
{
closed = 1;
nodes = (
(190,0,l),
(190,1480,l),
(1263,1480,l),
(1263,1323,l),
(400,1323,l),
(400,848,l),
(1164,848,l),
(1164,693,l),
(400,693,l),
(400,157,l),
(1307,157,l),
(1307,0,l)
);
}
);
width = 1366;
},
{
layerId = "5B74239F-5503-441B-9A3C-1744D3E8E825";
shapes = (
{
closed = 1;
nodes = (
(196,0,l),
(196,1480,l),
(1264,1480,l),
(1264,1338,l),
(373,1338,l),
(373,843,l),
(1169,843,l),
(1169,702,l),
(373,702,l),
(373,139,l),
(1307,139,l),
(1307,0,l)
);
}
);
width = 1366;
},
{
layerId = "FCCE09BD-6896-404A-801B-05958BD13330";
shapes = (
{
closed = 1;
nodes = (
(167,0,l),
(167,1480,l),
(1258,1480,l),
(1258,1262,l),
(508,1262,l),
(508,869,l),
(1143,869,l),
(1143,657,l),
(508,657,l),
(508,228,l),
(1306,228,l),
(1306,0,l)
);
}
);
width = 1366;
}
);
unicode = 69;
},
{
glyphname = F;
layers = (
{
layerId = "B4DBF483-61C5-4288-8615-E64CC28AC39C";
shapes = (
{
closed = 1;
nodes = (
(173,0,l),
(173,1480,l),
(1205,1480,l),
(1205,1277,l),
(481,1277,l),
(481,827,l),
(1094,827,l),
(1094,623,l),
(481,623,l),
(481,0,l)
);
}
);
width = 1251;
},
{
layerId = "F7275F4E-BE84-4E16-A55D-D0D293F4C807";
shapes = (
{
closed = 1;
nodes = (
(191,0,l),
(191,1480,l),
(1196,1480,l),
(1196,1323,l),
(401,1323,l),
(401,827,l),
(1096,827,l),
(1096,672,l),
(401,672,l),
(401,0,l)
);
}
);
width = 1251;
},
{
layerId = "5B74239F-5503-441B-9A3C-1744D3E8E825";
shapes = (
{
closed = 1;
nodes = (
(197,0,l),
(197,1480,l),
(1193,1480,l),
(1193,1338,l),
(374,1338,l),
(374,827,l),
(1097,827,l),
(1097,688,l),
(374,688,l),
(374,0,l)
);
}
);
width = 1251;
},
{
layerId = "FCCE09BD-6896-404A-801B-05958BD13330";
shapes = (
{
closed = 1;
nodes = (
(167,0,l),
(167,1480,l),
(1208,1480,l),
(1208,1262,l),
(508,1262,l),
(508,827,l),
(1093,827,l),
(1093,607,l),
(508,607,l),
(508,0,l)
);
}
);
width = 1251;
}
);
unicode = 70;
},
{
glyphname = G;
layers = (
{
layerId = "B4DBF483-61C5-4288-8615-E64CC28AC39C";
shapes = (
{
closed = 1;
nodes = (
(1445,719,l),
(1445,35,l),
(1258,-13,o),
(1087,-37,o),
(932,-37,cs),
(333,-37,o),
(80,243,o),
(80,742,cs),
(80,1269,o),
(391,1517,o),
(913,1517,cs),
(1106,1517,o),
(1283,1498,o),
(1444,1460,c),
(1444,1219,l),
(1241,1282,o),
(1066,1314,o),
(917,1314,cs),
(583,1314,o),
(407,1115,o),
(407,739,cs),
(407,379,o),
(594,171,o),
(946,171,cs),
(993,171,o),
(1057,176,o),
(1137,185,c),
(1137,516,l),
(887,516,l),
(887,719,l)
);
}
);
width = 1593;
},
{
layerId = "F7275F4E-BE84-4E16-A55D-D0D293F4C807";
shapes = (
{
closed = 1;
nodes = (
(1405,688,l),
(1405,40,l),
(1229,-11,o),
(1050,-37,o),
(868,-37,cs),
(354,-37,o),
(93,219,o),
(93,737,cs),
(93,1224,o),
(356,1517,o),
(868,1517,cs),
(1044,1517,o),
(1222,1494,o),
(1403,1450,c),
(1403,1256,l),
(1193,1325,o),
(1015,1360,o),
(868,1360,cs),
(501,1360,o),
(318,1153,o),
(318,740,cs),
(318,339,o),
(527,120,o),
(904,120,cs),
(981,120,o),
(1078,132,o),
(1196,157,c),
(1196,534,l),
(949,534,l),
(949,688,l)
);
}
);
width = 1593;
},
{
layerId = "5B74239F-5503-441B-9A3C-1744D3E8E825";
shapes = (
{
closed = 1;
nodes = (
(1392,678,l),
(1392,42,l),
(1219,-10,o),
(1038,-37,o),
(847,-37,cs),
(361,-37,o),
(97,211,o),
(97,735,cs),
(97,1209,o),
(344,1517,o),
(853,1517,cs),
(1023,1517,o),
(1202,1493,o),
(1389,1447,c),
(1389,1268,l),
(1177,1339,o),
(998,1375,o),
(852,1375,cs),
(474,1375,o),
(288,1166,o),
(288,740,cs),
(288,326,o),
(505,103,o),
(890,103,cs),
(977,103,o),
(1085,117,o),
(1216,148,c),
(1216,540,l),
(970,540,l),
(970,678,l)
);
}
);
width = 1593;
},
{
layerId = "FCCE09BD-6896-404A-801B-05958BD13330";
shapes = (
{
closed = 1;
nodes = (
(1458,729,l),
(1458,33,l),
(1268,-14,o),
(1099,-37,o),
(953,-37,cs),
(326,-37,o),
(76,251,o),
(76,744,cs),
(76,1284,o),
(403,1517,o),
(928,1517,cs),
(1127,1517,o),
(1303,1499,o),
(1458,1463,c),
(1458,1207,l),
(1257,1268,o),
(1083,1299,o),
(933,1299,cs),
(610,1299,o),
(437,1102,o),
(437,739,cs),
(437,392,o),
(616,188,o),
(960,188,cs),
(997,188,o),
(1050,191,o),
(1117,194,c),
(1117,510,l),
(866,510,l),
(866,729,l)
);
}
);
width = 1593;
}
);
unicode = 71;
},
{
glyphname = H;
layers = (
{
layerId = "B4DBF483-61C5-4288-8615-E64CC28AC39C";
shapes = (
{
closed = 1;
nodes = (
(173,0,l),
(173,1480,l),
(481,1480,l),
(481,879,l),
(998,879,l),
(998,1480,l),
(1306,1480,l),
(1306,0,l),
(998,0,l),
(998,675,l),
(481,675,l),
(481,0,l)
);
}
);
width = 1479;
},
{
layerId = "F7275F4E-BE84-4E16-A55D-D0D293F4C807";
shapes = (
{
closed = 1;
nodes = (
(165,0,l),
(165,1480,l),
(375,1480,l),
(375,856,l),
(1104,856,l),
(1104,1480,l),
(1313,1480,l),
(1313,0,l),
(1104,0,l),
(1104,699,l),
(375,699,l),
(375,0,l)
);
}
);
width = 1479;
},
{
layerId = "5B74239F-5503-441B-9A3C-1744D3E8E825";
shapes = (
{
closed = 1;
nodes = (
(162,0,l),
(162,1480,l),
(340,1480,l),
(340,848,l),
(1139,848,l),
(1139,1480,l),
(1315,1480,l),
(1315,0,l),
(1139,0,l),
(1139,707,l),
(340,707,l),
(340,0,l)
);
}
);
width = 1479;
},
{
layerId = "FCCE09BD-6896-404A-801B-05958BD13330";
shapes = (
{
closed = 1;
nodes = (
(176,0,l),
(176,1480,l),
(516,1480,l),
(516,887,l),
(963,887,l),
(963,1480,l),
(1304,1480,l),
(1304,0,l),
(963,0,l),
(963,667,l),
(516,667,l),
(516,0,l)
);
}
);
width = 1479;
}
);
unicode = 72;
},
{
glyphname = I;
layers = (
{
layerId = "B4DBF483-61C5-4288-8615-E64CC28AC39C";
shapes = (
{
closed = 1;
nodes = (
(100,0,l),
(100,210,l),
(310,210,l),
(310,1270,l),
(100,1270,l),
(100,1480,l),
(828,1480,l),
(828,1270,l),
(618,1270,l),
(618,210,l),
(828,210,l),
(828,0,l)
);
}
);
width = 928;
},
{
layerId = "F7275F4E-BE84-4E16-A55D-D0D293F4C807";
shapes = (
{
closed = 1;
nodes = (
(124,0,l),
(124,157,l),
(304,157,l),
(304,1323,l),
(124,1323,l),
(124,1480,l),
(693,1480,l),
(693,1323,l),
(513,1323,l),
(513,157,l),
(693,157,l),
(693,0,l)
);
}
);
width = 817;
},
{
layerId = "5B74239F-5503-441B-9A3C-1744D3E8E825";
shapes = (
{
closed = 1;
nodes = (
(132,0,l),
(132,139,l),
(302,139,l),
(302,1341,l),
(132,1341,l),
(132,1480,l),
(648,1480,l),
(648,1341,l),
(478,1341,l),
(478,139,l),
(648,139,l),
(648,0,l)
);
}
);
width = 780;
},
{
layerId = "FCCE09BD-6896-404A-801B-05958BD13330";
shapes = (
{
closed = 1;
nodes = (
(92,0,l),
(92,228,l),
(312,228,l),
(312,1252,l),
(92,1252,l),
(92,1480,l),
(873,1480,l),
(873,1252,l),
(653,1252,l),
(653,228,l),
(873,228,l),
(873,0,l)
);
}
);
width = 965;
}
);
unicode = 73;
},
{
glyphname = J;
layers = (
{
layerId = "B4DBF483-61C5-4288-8615-E64CC28AC39C";
shapes = (
{
closed = 1;
nodes = (
(0,228,l),
(124,191,o),
(242,172,o),
(355,172,cs),
(559,172,o),
(621,240,o),
(621,443,cs),
(621,1270,l),
(361,1270,l),
(361,1480,l),
(929,1480,l),
(929,476,ls),
(929,117,o),
(760,-37,o),
(366,-37,cs),
(251,-37,o),
(126,-22,o),
(0,7,c)
);
}
);
width = 1139;
},
{
layerId = "F7275F4E-BE84-4E16-A55D-D0D293F4C807";
shapes = (
{
closed = 1;
nodes = (
(20,208,l),
(130,157,o),
(235,131,o),
(335,131,cs),
(547,131,o),
(601,194,o),
(601,439,cs),
(601,1324,l),
(351,1324,l),
(351,1480,l),
(811,1480,l),
(811,446,ls),
(811,124,o),
(650,-37,o),
(329,-37,cs),
(217,-37,o),
(114,-15,o),
(20,27,c)
);
}
);
width = 1015;
},
{
layerId = "5B74239F-5503-441B-9A3C-1744D3E8E825";
shapes = (
{
closed = 1;
nodes = (
(27,201,l),
(132,146,o),
(233,117,o),
(328,117,cs),
(543,117,o),
(594,179,o),
(594,438,cs),
(594,1342,l),
(348,1342,l),
(348,1480,l),
(772,1480,l),
(772,436,ls),
(772,126,o),
(613,-37,o),
(317,-37,cs),
(206,-37,o),
(110,-13,o),
(27,34,c)
);
}
);
width = 974;
},
{
layerId = "FCCE09BD-6896-404A-801B-05958BD13330";
shapes = (
{
closed = 1;
nodes = (
(-7,235,l),
(122,202,o),
(244,186,o),
(362,186,cs),
(563,186,o),
(628,255,o),
(628,444,cs),
(628,1252,l),
(364,1252,l),
(364,1480,l),
(968,1480,l),
(968,486,ls),
(968,115,o),
(797,-37,o),
(378,-37,cs),
(262,-37,o),
(130,-24,o),
(-7,0,c)
);
}
);
width = 1180;
}
);
unicode = 74;
},
{
glyphname = K;
layers = (
{
layerId = "B4DBF483-61C5-4288-8615-E64CC28AC39C";
shapes = (
{
closed = 1;
nodes = (
(455,745,l),
(1085,1480,l),
(1340,1480,l),
(778,816,l),
(1464,0,l),
(1079,0,l)
);
},
{
closed = 1;
nodes = (
(173,0,l),
(173,1480,l),
(469,1480,l),
(469,0,l)
);
}
);
width = 1479;
},
{
layerId = "F7275F4E-BE84-4E16-A55D-D0D293F4C807";
shapes = (
{
closed = 1;
nodes = (
(387,751,l),
(1003,1480,l),
(1214,1480,l),
(618,774,l),
(1317,0,l),
(1051,0,l)
);
},
{
closed = 1;
nodes = (
(191,0,l),
(191,1480,l),
(388,1480,l),
(388,0,l)
);
}
);
width = 1366;
},
{
layerId = "5B74239F-5503-441B-9A3C-1744D3E8E825";
shapes = (
{
closed = 1;
nodes = (
(364,753,l),
(976,1480,l),
(1172,1480,l),
(565,760,l),
(1268,0,l),
(1042,0,l)
);
},
{
closed = 1;
nodes = (
(197,0,l),
(197,1480,l),
(361,1480,l),
(361,0,l)
);
}
);
width = 1328;
},
{
layerId = "FCCE09BD-6896-404A-801B-05958BD13330";
shapes = (
{
closed = 1;
nodes = (
(478,744,l),
(1112,1480,l),
(1382,1480,l),
(831,830,l),
(1513,0,l),
(1088,0,l)
);
},
{
closed = 1;
nodes = (
(167,0,l),
(167,1480,l),
(496,1480,l),
(496,0,l)
);
}
);
width = 1517;
}
);
unicode = 75;
},
{
glyphname = L;
layers = (
{
layerId = "B4DBF483-61C5-4288-8615-E64CC28AC39C";
shapes = (
{
closed = 1;
nodes = (
(173,0,l),
(173,1480,l),
(481,1480,l),
(481,210,l),
(1233,210,l),
(1233,0,l)
);
}
);
width = 1251;
},
{
layerId = "F7275F4E-BE84-4E16-A55D-D0D293F4C807";
shapes = (
{
closed = 1;
nodes = (
(165,0,l),
(165,1480,l),
(375,1480,l),
(375,157,l),
(1101,157,l),
(1101,0,l)
);
}
);
width = 1139;
},
{
layerId = "5B74239F-5503-441B-9A3C-1744D3E8E825";
shapes = (
{
closed = 1;
nodes = (
(162,0,l),
(162,1480,l),
(340,1480,l),
(340,139,l),
(1057,139,l),
(1057,0,l)
);
}
);
width = 1102;
},
{
layerId = "FCCE09BD-6896-404A-801B-05958BD13330";
shapes = (
{
closed = 1;
nodes = (
(176,0,l),
(176,1480,l),
(516,1480,l),
(516,228,l),
(1277,228,l),
(1277,0,l)
);
}
);
width = 1288;
}
);
unicode = 76;
},
{
glyphname = M;
layers = (
{
layerId = "B4DBF483-61C5-4288-8615-E64CC28AC39C";
shapes = (
{
closed = 1;
nodes = (
(173,0,l),
(173,1480,l),
(581,1480,l),
(873,439,l),
(1176,1480,l),
(1534,1480,l),
(1534,0,l),
(1250,0,l),
(1250,1117,l),
(953,99,l),
(705,99,l),
(415,1132,l),
(415,0,l)
);
}
);
width = 1706;
},
{
layerId = "F7275F4E-BE84-4E16-A55D-D0D293F4C807";
shapes = (
{
closed = 1;
nodes = (
(165,0,l),
(165,1480,l),
(456,1480,l),
(863,335,l),
(1281,1480,l),
(1541,1480,l),
(1541,0,l),
(1345,0,l),
(1345,1203,l),
(941,99,l),
(738,99,l),
(346,1207,l),
(346,0,l)
);
}
);
width = 1706;
},
{
layerId = "5B74239F-5503-441B-9A3C-1744D3E8E825";
shapes = (
{
closed = 1;
nodes = (
(162,0,l),
(162,1480,l),
(414,1480,l),
(860,300,l),
(1316,1480,l),
(1543,1480,l),
(1543,0,l),
(1377,0,l),
(1377,1232,l),
(937,99,l),
(749,99,l),
(323,1232,l),
(323,0,l)
);
}
);
width = 1706;
},
{
layerId = "FCCE09BD-6896-404A-801B-05958BD13330";
shapes = (
{
closed = 1;
nodes = (
(176,0,l),
(176,1480,l),
(623,1480,l),
(876,474,l),
(1141,1480,l),
(1532,1480,l),
(1532,0,l),
(1218,0,l),
(1218,1088,l),
(957,99,l),
(694,99,l),
(438,1107,l),
(438,0,l)
);
}
);
width = 1706;
}
);
unicode = 77;
},
{
glyphname = N;
layers = (
{
layerId = "B4DBF483-61C5-4288-8615-E64CC28AC39C";
shapes = (
{
closed = 1;
nodes = (
(173,0,l),
(173,1480,l),
(444,1480,l),
(1059,469,l),
(1059,1480,l),
(1306,1480,l),
(1306,0,l),
(1031,0,l),
(420,1011,l),
(420,0,l)
);
}
);
width = 1479;
},
{
layerId = "F7275F4E-BE84-4E16-A55D-D0D293F4C807";
shapes = (
{
closed = 1;
nodes = (
(165,0,l),
(165,1480,l),
(370,1480,l),
(1133,337,l),
(1133,1480,l),
(1313,1480,l),
(1313,0,l),
(1107,0,l),
(345,1143,l),
(345,0,l)
);
}
);
width = 1479;
},
{
layerId = "5B74239F-5503-441B-9A3C-1744D3E8E825";
shapes = (
{
closed = 1;
nodes = (
(162,0,l),
(162,1480,l),
(345,1480,l),
(1158,293,l),
(1158,1480,l),
(1315,1480,l),
(1315,0,l),
(1132,0,l),
(320,1187,l),
(320,0,l)
);
}
);
width = 1479;
},
{
layerId = "FCCE09BD-6896-404A-801B-05958BD13330";
shapes = (
{
closed = 1;
nodes = (
(176,0,l),
(176,1480,l),
(469,1480,l),
(1034,513,l),
(1034,1480,l),
(1304,1480,l),
(1304,0,l),
(1006,0,l),
(445,967,l),
(445,0,l)
);
}
);
width = 1479;
}
);
unicode = 78;
},
{
glyphname = O;
layers = (
{
layerId = "B4DBF483-61C5-4288-8615-E64CC28AC39C";
shapes = (
{
closed = 1;
nodes = (
(348,-37,o),
(80,262,o),
(80,740,cs),
(80,1225,o),
(349,1517,o),
(797,1517,cs),
(1243,1517,o),
(1513,1223,o),
(1513,743,cs),
(1513,253,o),
(1248,-37,o),
(786,-37,cs)
);
},
{
closed = 1;
nodes = (
(1049,167,o),
(1186,381,o),
(1186,744,cs),
(1186,1097,o),
(1045,1314,o),
(797,1314,cs),
(549,1314,o),
(407,1100,o),
(407,740,cs),
(407,385,o),
(549,167,o),
(791,167,cs)
);
}
);
width = 1593;
},
{
layerId = "F7275F4E-BE84-4E16-A55D-D0D293F4C807";
shapes = (
{
closed = 1;
nodes = (
(369,-37,o),
(93,274,o),
(93,740,cs),
(93,1210,o),
(368,1517,o),
(797,1517,cs),
(1224,1517,o),
(1501,1208,o),
(1501,743,cs),
(1501,265,o),
(1226,-37,o),
(787,-37,cs)
);
},
{
closed = 1;
nodes = (
(1100,120,o),
(1276,347,o),
(1276,743,cs),
(1276,1127,o),
(1098,1360,o),
(797,1360,cs),
(493,1360,o),
(318,1128,o),
(318,740,cs),
(318,354,o),
(494,120,o),
(790,120,cs)
);
}
);
width = 1593;
},
{
layerId = "5B74239F-5503-441B-9A3C-1744D3E8E825";
shapes = (
{
closed = 1;
nodes = (
(376,-37,o),
(97,278,o),
(97,740,cs),
(97,1205,o),
(374,1517,o),
(797,1517,cs),
(1218,1517,o),
(1497,1203,o),
(1497,743,cs),
(1497,269,o),
(1219,-37,o),
(787,-37,cs)
);
},
{
closed = 1;
nodes = (
(1117,104,o),
(1306,336,o),
(1306,743,cs),
(1306,1137,o),
(1116,1375,o),
(797,1375,cs),
(474,1375,o),
(288,1137,o),
(288,740,cs),
(288,344,o),
(476,104,o),
(790,104,cs)
);
}
);
width = 1593;
},
{
layerId = "FCCE09BD-6896-404A-801B-05958BD13330";
shapes = (
{
closed = 1;
nodes = (
(341,-37,o),
(76,258,o),
(76,740,cs),
(76,1230,o),
(343,1517,o),
(797,1517,cs),
(1249,1517,o),
(1517,1228,o),
(1517,743,cs),
(1517,249,o),
(1255,-37,o),
(786,-37,cs)
);
},
{
closed = 1;
nodes = (
(1032,183,o),
(1156,392,o),
(1156,744,cs),
(1156,1087,o),
(1027,1299,o),
(797,1299,cs),
(568,1299,o),
(437,1091,o),
(437,740,cs),
(437,395,o),
(567,183,o),
(791,183,cs)
);
}
);
width = 1593;
}
);
unicode = 79;
},
{
glyphname = P;
layers = (
{
layerId = "B4DBF483-61C5-4288-8615-E64CC28AC39C";
shapes = (
{
closed = 1;
nodes = (
(173,0,l),
(173,1480,l),
(655,1480,ls),
(993,1480,o),
(1112,1475,o),
(1215,1363,c),
(1276,1298,o),
(1306,1206,o),
(1306,1087,cs),
(1306,749,o),
(1100,580,o),
(689,580,cs),
(475,580,l),
(475,0,l)
);
},
{
closed = 1;
nodes = (
(475,783,l),
(621,783,ls),
(868,783,o),
(991,873,o),
(991,1057,cs),
(991,1221,o),
(899,1277,o),
(680,1277,cs),
(475,1277,l)
);
}
);
width = 1366;
},
{
layerId = "F7275F4E-BE84-4E16-A55D-D0D293F4C807";
shapes = (
{
closed = 1;
nodes = (
(167,0,l),
(167,1480,l),
(707,1480,ls),
(1017,1480,o),
(1109,1456,o),
(1199,1351,c),
(1251,1287,o),
(1278,1197,o),
(1278,1082,cs),
(1278,739,o),
(1067,568,o),
(645,568,cs),
(377,568,l),
(377,0,l)
);
},
{
closed = 1;
nodes = (
(377,727,l),
(636,727,ls),
(916,727,o),
(1056,840,o),
(1056,1067,cs),
(1056,1270,o),
(965,1323,o),
(641,1323,cs),
(377,1323,l)
);
}
);
width = 1366;
},
{
layerId = "5B74239F-5503-441B-9A3C-1744D3E8E825";
shapes = (
{
closed = 1;
nodes = (
(165,0,l),
(165,1480,l),
(724,1480,ls),
(1025,1480,o),
(1108,1450,o),
(1194,1347,c),
(1243,1283,o),
(1269,1194,o),
(1269,1080,cs),
(1269,736,o),
(1056,564,o),
(630,564,cs),
(344,564,l),
(344,0,l)
);
},
{
closed = 1;
nodes = (
(344,708,l),
(641,708,ls),
(932,708,o),
(1078,829,o),
(1078,1070,cs),
(1078,1286,o),
(987,1338,o),
(628,1338,cs),
(344,1338,l)
);
}
);
width = 1366;
},
{
layerId = "FCCE09BD-6896-404A-801B-05958BD13330";
shapes = (
{
closed = 1;
nodes = (
(175,0,l),
(175,1480,l),
(638,1480,ls),
(985,1480,o),
(1113,1481,o),
(1220,1367,c),
(1284,1302,o),
(1315,1209,o),
(1315,1089,cs),
(1315,752,o),
(1111,584,o),
(704,584,cs),
(508,584,l),
(508,0,l)
);
},
{
closed = 1;
nodes = (
(508,802,l),
(616,802,ls),
(852,802,o),
(969,884,o),
(969,1054,cs),
(969,1205,o),
(877,1262,o),
(693,1262,cs),
(508,1262,l)
);
}
);
width = 1366;
}
);
unicode = 80;
},
{
glyphname = Q;
layers = (
{
layerId = "B4DBF483-61C5-4288-8615-E64CC28AC39C";
shapes = (
{
closed = 1;
nodes = (
(1542,-296,l),
(1277,-226,o),
(1061,-138,o),
(894,-32,c),
(839,-35,o),
(799,-37,o),
(772,-37,cs),
(561,-37,o),
(393,33,o),
(268,174,cs),
(143,315,o),
(80,503,o),
(80,740,cs),
(80,1225,o),
(349,1517,o),
(797,1517,cs),
(1243,1517,o),
(1513,1223,o),
(1513,742,cs),
(1513,419,o),
(1393,183,o),
(1152,34,c),
(1345,-33,o),
(1541,-77,o),
(1742,-98,c)
);
},
{
closed = 1;
nodes = (
(1186,1098,o),
(1045,1314,o),
(797,1314,cs),
(548,1314,o),
(407,1097,o),
(407,749,cs),
(407,380,o),
(544,167,o),
(797,167,cs),
(1046,167,o),
(1186,382,o),
(1186,740,cs)
);
}
);
width = 1593;
},
{
layerId = "F7275F4E-BE84-4E16-A55D-D0D293F4C807";
shapes = (
{
closed = 1;
nodes = (
(1506,-296,l),
(1273,-220,o),
(1078,-130,o),
(922,-27,c),
(856,-34,o),
(805,-38,o),
(769,-38,cs),
(570,-38,o),
(408,34,o),
(282,179,cs),
(156,324,o),
(93,511,o),
(93,740,cs),
(93,1205,o),
(367,1517,o),
(793,1517,cs),
(1224,1517,o),
(1502,1209,o),
(1502,738,cs),
(1502,399,o),
(1372,163,o),
(1114,30,c),
(1278,-44,o),
(1453,-97,o),
(1639,-129,c)
);
},
{
closed = 1;
nodes = (
(1276,1128,o),
(1102,1360,o),
(792,1360,cs),
(496,1360,o),
(318,1125,o),
(318,740,cs),
(318,354,o),
(495,120,o),
(792,120,cs),
(1093,120,o),
(1276,349,o),
(1276,731,cs)
);
}
);
width = 1593;
},
{
layerId = "5B74239F-5503-441B-9A3C-1744D3E8E825";
shapes = (
{
closed = 1;
nodes = (
(1494,-296,l),
(1272,-218,o),
(1084,-127,o),
(931,-25,c),
(862,-34,o),
(807,-38,o),
(768,-38,cs),
(573,-38,o),
(413,34,o),
(287,181,cs),
(160,327,o),
(97,514,o),
(97,740,cs),
(97,1198,o),
(373,1517,o),
(792,1517,cs),
(1218,1517,o),
(1498,1204,o),
(1498,737,cs),
(1498,392,o),
(1365,156,o),
(1101,29,c),
(1256,-48,o),
(1424,-104,o),
(1605,-139,c)
);
},
{
closed = 1;
nodes = (
(1306,1138,o),
(1121,1375,o),
(790,1375,cs),
(479,1375,o),
(288,1134,o),
(288,737,cs),
(288,345,o),
(479,104,o),
(790,104,cs),
(1109,104,o),
(1306,338,o),
(1306,728,cs)
);
}
);
width = 1593;
},
{
layerId = "FCCE09BD-6896-404A-801B-05958BD13330";
shapes = (
{
closed = 1;
nodes = (
(1554,-296,l),
(1278,-228,o),
(1055,-141,o),
(885,-34,c),
(833,-35,o),
(797,-37,o),
(773,-37,cs),
(558,-37,o),
(388,33,o),
(263,172,cs),
(139,312,o),
(76,500,o),
(76,740,cs),
(76,1232,o),
(343,1517,o),
(798,1517,cs),
(1249,1517,o),
(1517,1228,o),
(1517,743,cs),
(1517,426,o),
(1400,190,o),
(1165,35,c),
(1367,-29,o),
(1570,-70,o),
(1776,-88,c)
);
},
{
closed = 1;
nodes = (
(1156,1088,o),
(1026,1299,o),
(799,1299,cs),
(565,1299,o),
(437,1088,o),
(437,752,cs),
(437,389,o),
(560,183,o),
(799,183,cs),
(1030,183,o),
(1156,393,o),
(1156,743,cs)
);
}
);
width = 1593;
}
);
unicode = 81;
},
{
glyphname = R;
layers = (
{
layerId = "B4DBF483-61C5-4288-8615-E64CC28AC39C";
shapes = (
{
closed = 1;
nodes = (
(173,0,l),
(173,1480,l),
(818,1480,ls),
(1119,1480,o),
(1269,1358,o),
(1269,1113,cs),
(1269,918,o),
(1173,777,o),
(982,691,c),
(1466,0,l),
(1120,0,l),
(704,605,l),
(463,605,l),
(463,0,l)
);
},
{
closed = 1;
nodes = (
(463,808,l),
(625,808,ls),
(846,808,o),
(960,898,o),
(960,1079,cs),
(960,1212,o),
(857,1277,o),
(661,1277,cs),
(463,1277,l)
);
}
);
width = 1479;
},
{
layerId = "F7275F4E-BE84-4E16-A55D-D0D293F4C807";
shapes = (
{
closed = 1;
nodes = (
(165,0,l),
(165,1480,l),
(783,1480,ls),
(1087,1480,o),
(1239,1357,o),
(1239,1113,cs),
(1239,915,o),
(1139,775,o),
(940,693,c),
(1434,0,l),
(1176,0,l),
(755,626,l),
(375,626,l),
(375,0,l)
);
},
{
closed = 1;
nodes = (
(375,783,l),
(610,783,ls),
(894,783,o),
(1023,876,o),
(1023,1092,cs),
(1023,1256,o),
(924,1323,o),
(675,1323,cs),
(375,1323,l)
);
}
);
width = 1479;
},
{
layerId = "5B74239F-5503-441B-9A3C-1744D3E8E825";
shapes = (
{
closed = 1;
nodes = (
(162,0,l),
(162,1480,l),
(771,1480,ls),
(1076,1480,o),
(1229,1357,o),
(1229,1113,cs),
(1229,914,o),
(1128,774,o),
(926,694,c),
(1423,0,l),
(1195,0,l),
(772,633,l),
(346,633,l),
(346,0,l)
);
},
{
closed = 1;
nodes = (
(346,775,l),
(605,775,ls),
(910,775,o),
(1044,869,o),
(1044,1096,cs),
(1044,1271,o),
(946,1338,o),
(680,1338,cs),
(346,1338,l)
);
}
);
width = 1479;
},
{
layerId = "FCCE09BD-6896-404A-801B-05958BD13330";
shapes = (
{
closed = 1;
nodes = (
(176,0,l),
(176,1480,l),
(830,1480,ls),
(1130,1480,o),
(1279,1358,o),
(1279,1113,cs),
(1279,919,o),
(1184,778,o),
(996,690,c),
(1477,0,l),
(1101,0,l),
(687,598,l),
(492,598,l),
(492,0,l)
);
},
{
closed = 1;
nodes = (
(492,816,l),
(630,816,ls),
(830,816,o),
(939,905,o),
(939,1075,cs),
(939,1197,o),
(835,1262,o),
(656,1262,cs),
(492,1262,l)
);
}
);
width = 1479;
}
);
unicode = 82;
},
{
glyphname = S;
layers = (
{
layerId = "B4DBF483-61C5-4288-8615-E64CC28AC39C";
shapes = (
{
closed = 1;
nodes = (
(102,13,l),
(102,265,l),
(291,199,o),
(466,166,o),
(625,166,cs),
(852,166,o),
(965,232,o),
(965,363,cs),
(965,501,o),
(870,531,o),
(699,598,c),
(536,660,ls),
(183,794,o),
(99,882,o),
(99,1105,cs),
(99,1380,o),
(300,1517,o),
(703,1517,cs),
(872,1517,o),
(1033,1500,o),
(1186,1466,c),
(1186,1232,l),
(1027,1287,o),
(874,1314,o),
(725,1314,cs),
(479,1314,o),
(404,1269,o),
(404,1140,cs),
(404,1028,o),
(462,1015,o),
(683,928,cs),
(853,865,ls),
(1177,744,o),
(1289,638,o),
(1289,411,cs),
(1289,139,o),
(1119,-1,o),
(746,-31,cs),
(692,-36,o),
(635,-38,o),
(573,-38,cs),
(466,-38,o),
(344,-26,o),
(207,-3,c)
);
}
);
width = 1366;
},
{
layerId = "F7275F4E-BE84-4E16-A55D-D0D293F4C807";
shapes = (
{
closed = 1;
nodes = (
(120,260,l),
(310,166,o),
(506,120,o),
(710,120,cs),
(921,120,o),
(1027,199,o),
(1027,359,cs),
(1027,509,o),
(948,558,o),
(716,637,c),
(515,703,ls),
(257,788,o),
(128,926,o),
(128,1115,cs),
(128,1383,o),
(308,1517,o),
(668,1517,cs),
(830,1517,o),
(991,1496,o),
(1151,1454,c),
(1151,1261,l),
(985,1327,o),
(820,1360,o),
(655,1360,cs),
(440,1360,o),
(331,1285,o),
(331,1140,cs),
(331,1020,o),
(396,962,o),
(614,891,cs),
(820,824,ls),
(1131,723,o),
(1243,607,o),
(1243,390,cs),
(1243,125,o),
(1033,-37,o),
(703,-37,cs),
(658,-37,o),
(612,-35,o),
(565,-31,cs),
(425,-20,o),
(276,7,o),
(120,52,c)
);
}
);
width = 1366;
},
{
layerId = "5B74239F-5503-441B-9A3C-1744D3E8E825";
shapes = (
{
closed = 1;
nodes = (
(126,65,l),
(126,258,l),
(316,155,o),
(519,105,o),
(738,105,cs),
(944,105,o),
(1048,188,o),
(1048,358,cs),
(1048,512,o),
(974,567,o),
(722,650,c),
(508,717,l),
(282,786,o),
(138,941,o),
(138,1118,cs),
(138,1384,o),
(311,1517,o),
(656,1517,cs),
(816,1517,o),
(977,1495,o),
(1139,1450,c),
(1139,1271,l),
(971,1340,o),
(802,1375,o),
(632,1375,cs),
(427,1375,o),
(307,1290,o),
(307,1140,cs),
(307,1017,o),
(374,944,o),
(591,879,c),
(809,810,l),
(1116,716,o),
(1228,597,o),
(1228,383,cs),
(1228,120,o),
(1004,-49,o),
(689,-39,cs),
(647,-37,o),
(604,-34,o),
(562,-29,c),
(411,-14,o),
(253,18,o),
(91,70,c)
);
}
);
width = 1366;
},
{
layerId = "FCCE09BD-6896-404A-801B-05958BD13330";
shapes = (
{
closed = 1;
nodes = (
(96,0,l),
(96,267,l),
(285,210,o),
(453,181,o),
(597,181,cs),
(829,181,o),
(944,243,o),
(944,364,cs),
(944,498,o),
(844,522,o),
(693,585,c),
(543,646,l),
(158,796,o),
(89,867,o),
(89,1102,cs),
(89,1379,o),
(297,1517,o),
(715,1517,cs),
(886,1517,o),
(1047,1501,o),
(1198,1470,c),
(1198,1222,l),
(1041,1274,o),
(892,1299,o),
(748,1299,cs),
(492,1299,o),
(428,1264,o),
(428,1140,cs),
(428,1031,o),
(484,1033,o),
(706,940,c),
(864,879,ls),
(1192,751,o),
(1304,648,o),
(1304,418,cs),
(1304,144,o),
(1148,11,o),
(760,-29,c),
(703,-36,o),
(643,-39,o),
(576,-40,c),
(480,-44,o),
(367,-37,o),
(236,-21,c)
);
}
);
width = 1366;
}
);
unicode = 83;
},
{
glyphname = T;
layers = (
{
layerId = "B4DBF483-61C5-4288-8615-E64CC28AC39C";
shapes = (
{
closed = 1;
nodes = (
(472,0,l),
(472,1267,l),
(40,1267,l),
(40,1480,l),
(1212,1480,l),
(1212,1267,l),
(780,1267,l),
(780,0,l)
);
}
);
width = 1251;
},
{
layerId = "F7275F4E-BE84-4E16-A55D-D0D293F4C807";
shapes = (
{
closed = 1;
nodes = (
(520,0,l),
(520,1323,l),
(20,1323,l),
(20,1480,l),
(1230,1480,l),
(1230,1323,l),
(730,1323,l),
(730,0,l)
);
}
);
width = 1251;
},
{
layerId = "5B74239F-5503-441B-9A3C-1744D3E8E825";
shapes = (
{
closed = 1;
nodes = (
(536,0,l),
(536,1342,l),
(13,1342,l),
(13,1480,l),
(1236,1480,l),
(1236,1342,l),
(713,1342,l),
(713,0,l)
);
}
);
width = 1251;
},
{
layerId = "FCCE09BD-6896-404A-801B-05958BD13330";
shapes = (
{
closed = 1;
nodes = (
(456,0,l),
(456,1248,l),
(47,1248,l),
(47,1480,l),
(1206,1480,l),
(1206,1248,l),
(797,1248,l),
(797,0,l)
);
}
);
width = 1251;
}
);
unicode = 84;
},
{
glyphname = U;
layers = (
{
layerId = "B4DBF483-61C5-4288-8615-E64CC28AC39C";
shapes = (
{
closed = 1;
nodes = (
(160,1480,l),
(468,1480,l),
(468,573,ls),
(468,381,o),
(507,266,o),
(595,210,cs),
(639,182,o),
(696,167,o),
(766,167,cs),
(954,167,o),
(1050,296,o),
(1050,550,cs),
(1050,1480,l),
(1318,1480,l),
(1318,571,ls),
(1318,297,o),
(1278,181,o),
(1137,72,cs),
(1043,-1,o),
(917,-37,o),
(759,-37,cs),
(333,-37,o),
(160,184,o),
(160,574,cs)
);
}
);
width = 1479;
},
{
layerId = "F7275F4E-BE84-4E16-A55D-D0D293F4C807";
shapes = (
{
closed = 1;
nodes = (
(166,1480,l),
(376,1480,l),
(376,546,ls),
(376,326,o),
(405,257,o),
(499,190,cs),
(564,143,o),
(652,120,o),
(767,120,cs),
(1033,120,o),
(1128,227,o),
(1128,539,cs),
(1128,1480,l),
(1312,1480,l),
(1312,542,ls),
(1312,275,o),
(1271,165,o),
(1129,64,cs),
(1035,-3,o),
(911,-37,o),
(755,-37,cs),
(339,-37,o),
(166,149,o),
(166,548,cs)
);
}
);
width = 1479;
},
{
layerId = "5B74239F-5503-441B-9A3C-1744D3E8E825";
shapes = (
{
closed = 1;
nodes = (
(168,1480,l),
(345,1480,l),
(345,537,ls),
(345,308,o),
(371,254,o),
(467,183,cs),
(539,130,o),
(637,104,o),
(767,104,cs),
(1059,104,o),
(1154,204,o),
(1154,535,cs),
(1154,1480,l),
(1310,1480,l),
(1310,532,ls),
(1310,268,o),
(1269,160,o),
(1126,61,cs),
(1032,-4,o),
(909,-37,o),
(754,-37,cs),
(341,-37,o),
(168,137,o),
(168,539,cs)
);
}
);
width = 1479;
},
{
layerId = "FCCE09BD-6896-404A-801B-05958BD13330";
shapes = (
{
closed = 1;
nodes = (
(158,1480,l),
(499,1480,l),
(499,582,ls),
(499,399,o),
(541,269,o),
(627,217,cs),
(664,195,o),
(711,183,o),
(766,183,cs),
(928,183,o),
(1024,319,o),
(1024,554,cs),
(1024,1480,l),
(1320,1480,l),
(1320,581,ls),
(1320,304,o),
(1280,186,o),
(1140,75,cs),
(1046,0,o),
(919,-37,o),
(760,-37,cs),
(331,-37,o),
(158,196,o),
(158,583,cs)
);
}
);
width = 1479;
}
);
unicode = 85;
},
{
glyphname = V;
layers = (
{
layerId = "B4DBF483-61C5-4288-8615-E64CC28AC39C";
shapes = (
{
closed = 1;
nodes = (
(539,0,l),
(25,1480,l),
(354,1480,l),
(742,375,l),
(1114,1480,l),
(1342,1480,l),
(847,0,l)
);
}
);
width = 1366;
},
{
layerId = "F7275F4E-BE84-4E16-A55D-D0D293F4C807";
shapes = (
{
closed = 1;
nodes = (
(607,0,l),
(36,1480,l),
(252,1480,l),
(724,265,l),
(1176,1480,l),
(1355,1480,l),
(805,0,l)
);
}
);
width = 1366;
},
{
layerId = "5B74239F-5503-441B-9A3C-1744D3E8E825";
shapes = (
{
closed = 1;
nodes = (
(630,0,l),
(40,1480,l),
(218,1480,l),
(718,228,l),
(1197,1480,l),
(1359,1480,l),
(791,0,l)
);
}
);
width = 1366;
},
{
layerId = "FCCE09BD-6896-404A-801B-05958BD13330";
shapes = (
{
closed = 1;
nodes = (
(516,0,l),
(21,1480,l),
(388,1480,l),
(748,412,l),
(1093,1480,l),
(1338,1480,l),
(861,0,l)
);
}
);
width = 1366;
}
);
unicode = 86;
},
{
glyphname = W;
layers = (
{
layerId = "B4DBF483-61C5-4288-8615-E64CC28AC39C";
shapes = (
{
closed = 1;
nodes = (
(405,0,l),
(25,1480,l),
(316,1480,l),
(597,397,l),
(877,1480,l),
(1134,1480,l),
(1389,394,l),
(1690,1480,l),
(1909,1480,l),
(1498,0,l),
(1203,0,l),
(963,1015,l),
(699,0,l)
);
}
);
width = 1933;
},
{
layerId = "F7275F4E-BE84-4E16-A55D-D0D293F4C807";
shapes = (
{
closed = 1;
nodes = (
(406,0,l),
(25,1480,l),
(227,1480,l),
(530,311,l),
(877,1480,l),
(1079,1480,l),
(1412,322,l),
(1737,1480,l),
(1908,1480,l),
(1492,0,l),
(1284,0,l),
(955,1141,l),
(614,0,l)
);
}
);
width = 1933;
},
{
layerId = "5B74239F-5503-441B-9A3C-1744D3E8E825";
shapes = (
{
closed = 1;
nodes = (
(406,0,l),
(25,1480,l),
(197,1480,l),
(508,282,l),
(877,1480,l),
(1061,1480,l),
(1420,298,l),
(1753,1480,l),
(1908,1480,l),
(1490,0,l),
(1311,0,l),
(952,1183,l),
(586,0,l)
);
}
);
width = 1933;
},
{
layerId = "FCCE09BD-6896-404A-801B-05958BD13330";
shapes = (
{
closed = 1;
nodes = (
(405,0,l),
(25,1480,l),
(346,1480,l),
(619,426,l),
(877,1480,l),
(1152,1480,l),
(1381,418,l),
(1674,1480,l),
(1909,1480,l),
(1500,0,l),
(1176,0,l),
(966,973,l),
(727,0,l)
);
}
);
width = 1933;
}
);
unicode = 87;
},
{
glyphname = X;
layers = (
{
layerId = "B4DBF483-61C5-4288-8615-E64CC28AC39C";
shapes = (
{
closed = 1;
nodes = (
(49,0,l),
(523,729,l),
(70,1480,l),
(429,1480,l),
(730,982,l),
(1056,1480,l),
(1305,1480,l),
(851,782,l),
(1321,0,l),
(963,0,l),
(642,529,l),
(298,0,l)
);
}
);
width = 1366;
},
{
layerId = "F7275F4E-BE84-4E16-A55D-D0D293F4C807";
shapes = (
{
closed = 1;
nodes = (
(28,0,l),
(573,735,l),
(52,1480,l),
(300,1480,l),
(701,905,l),
(1128,1480,l),
(1327,1480,l),
(798,770,l),
(1338,0,l),
(1090,0,l),
(670,598,l),
(226,0,l)
);
}
);
width = 1366;
},
{
layerId = "5B74239F-5503-441B-9A3C-1744D3E8E825";
shapes = (
{
closed = 1;
nodes = (
(21,0,l),
(590,737,l),
(46,1480,l),
(257,1480,l),
(691,879,l),
(1152,1480,l),
(1334,1480,l),
(780,766,l),
(1344,0,l),
(1132,0,l),
(679,621,l),
(202,0,l)
);
}
);
width = 1366;
},
{
layerId = "FCCE09BD-6896-404A-801B-05958BD13330";
shapes = (
{
closed = 1;
nodes = (
(56,0,l),
(506,727,l),
(76,1480,l),
(472,1480,l),
(740,1008,l),
(1032,1480,l),
(1298,1480,l),
(869,786,l),
(1315,0,l),
(921,0,l),
(633,506,l),
(322,0,l)
);
}
);
width = 1366;
}
);
unicode = 88;
},
{
glyphname = Y;
layers = (
{
layerId = "B4DBF483-61C5-4288-8615-E64CC28AC39C";
shapes = (
{
closed = 1;
nodes = (
(519,0,l),
(519,620,l),
(28,1480,l),
(369,1480,l),
(723,855,l),
(1095,1480,l),
(1339,1480,l),
(827,622,l),
(827,0,l)
);
}
);
width = 1366;
},
{
layerId = "F7275F4E-BE84-4E16-A55D-D0D293F4C807";
shapes = (
{
closed = 1;
nodes = (
(561,0,l),
(561,617,l),
(30,1480,l),
(270,1480,l),
(691,795,l),
(1142,1480,l),
(1337,1480,l),
(771,622,l),
(771,0,l)
);
}
);
width = 1366;
},
{
layerId = "5B74239F-5503-441B-9A3C-1744D3E8E825";
shapes = (
{
closed = 1;
nodes = (
(575,0,l),
(575,616,l),
(31,1480,l),
(237,1480,l),
(680,775,l),
(1158,1480,l),
(1336,1480,l),
(752,622,l),
(752,0,l)
);
}
);
width = 1366;
},
{
layerId = "FCCE09BD-6896-404A-801B-05958BD13330";
shapes = (
{
closed = 1;
nodes = (
(505,0,l),
(505,621,l),
(27,1480,l),
(402,1480,l),
(734,875,l),
(1079,1480,l),
(1340,1480,l),
(846,622,l),
(846,0,l)
);
}
);
width = 1366;
}
);
unicode = 89;
},
{
glyphname = Z;
layers = (
{
layerId = "B4DBF483-61C5-4288-8615-E64CC28AC39C";
shapes = (
{
closed = 1;
nodes = (
(94,0,l),
(94,210,l),
(800,1277,l),
(137,1277,l),
(137,1480,l),
(1158,1480,l),
(1158,1277,l),
(452,210,l),
(1158,210,l),
(1158,0,l)
);
}
);
width = 1251;
},
{
layerId = "F7275F4E-BE84-4E16-A55D-D0D293F4C807";
shapes = (
{
closed = 1;
nodes = (
(101,0,l),
(101,169,l),
(896,1323,l),
(150,1323,l),
(150,1480,l),
(1148,1480,l),
(1148,1323,l),
(353,169,l),
(1148,169,l),
(1148,0,l)
);
}
);
width = 1251;
},
{
layerId = "5B74239F-5503-441B-9A3C-1744D3E8E825";
shapes = (
{
closed = 1;
nodes = (
(103,0,l),
(103,155,l),
(928,1338,l),
(154,1338,l),
(154,1480,l),
(1145,1480,l),
(1145,1338,l),
(320,155,l),
(1145,155,l),
(1145,0,l)
);
}
);
width = 1251;
},
{
layerId = "FCCE09BD-6896-404A-801B-05958BD13330";
shapes = (
{
closed = 1;
nodes = (
(92,0,l),
(92,224,l),
(768,1262,l),
(133,1262,l),
(133,1480,l),
(1161,1480,l),
(1161,1262,l),
(485,224,l),
(1161,224,l),
(1161,0,l)
);
}
);
width = 1251;
}
);
unicode = 90;
},
{
glyphname = bracketleft;
layers = (
{
layerId = "B4DBF483-61C5-4288-8615-E64CC28AC39C";
shapes = (
{
closed = 1;
nodes = (
(159,-296,l),
(159,1579,l),
(622,1579,l),
(622,1406,l),
(406,1406,l),
(406,-123,l),
(622,-123,l),
(622,-296,l)
);
}
);
width = 682;
},
{
layerId = "F7275F4E-BE84-4E16-A55D-D0D293F4C807";
shapes = (
{
closed = 1;
nodes = (
(110,-296,l),
(110,1579,l),
(505,1579,l),
(505,1431,l),
(283,1431,l),
(283,-148,l),
(505,-148,l),
(505,-296,l)
);
}
);
width = 569;
},
{
layerId = "5B74239F-5503-441B-9A3C-1744D3E8E825";
shapes = (
{
closed = 1;
nodes = (
(94,-296,l),
(94,1579,l),
(466,1579,l),
(466,1439,l),
(242,1439,l),
(242,-156,l),
(466,-156,l),
(466,-296,l)
);
}
);
width = 531;
},
{
layerId = "FCCE09BD-6896-404A-801B-05958BD13330";
shapes = (
{
closed = 1;
nodes = (
(175,-296,l),
(175,1579,l),
(661,1579,l),
(661,1398,l),
(447,1398,l),
(447,-115,l),
(661,-115,l),
(661,-296,l)
);
}
);
width = 720;
}
);
unicode = 91;
},
{
glyphname = backslash;
layers = (
{
layerId = "B4DBF483-61C5-4288-8615-E64CC28AC39C";
shapes = (
{
closed = 1;
nodes = (
(569,-123,l),
(369,-123,l),
(0,1480,l),
(200,1480,l)
);
}
);
width = 569;
},
{
layerId = "F7275F4E-BE84-4E16-A55D-D0D293F4C807";
shapes = (
{
closed = 1;
nodes = (
(569,-140,l),
(414,-140,l),
(0,1430,l),
(155,1430,l)
);
}
);
width = 569;
},
{
layerId = "5B74239F-5503-441B-9A3C-1744D3E8E825";
shapes = (
{
closed = 1;
nodes = (
(569,-146,l),
(429,-146,l),
(0,1413,l),
(140,1413,l)
);
}
);
width = 569;
},
{
layerId = "FCCE09BD-6896-404A-801B-05958BD13330";
shapes = (
{
closed = 1;
nodes = (
(569,-117,l),
(354,-117,l),
(0,1497,l),
(215,1497,l)
);
}
);
width = 569;
}
);
unicode = 92;
},
{
glyphname = bracketright;
layers = (
{
layerId = "B4DBF483-61C5-4288-8615-E64CC28AC39C";
shapes = (
{
closed = 1;
nodes = (
(523,1579,l),
(523,-296,l),
(60,-296,l),
(60,-123,l),
(276,-123,l),
(276,1406,l),
(60,1406,l),
(60,1579,l)
);
}
);
width = 682;
},
{
layerId = "F7275F4E-BE84-4E16-A55D-D0D293F4C807";
shapes = (
{
closed = 1;
nodes = (
(459,1579,l),
(459,-296,l),
(64,-296,l),
(64,-148,l),
(286,-148,l),
(286,1431,l),
(64,1431,l),
(64,1579,l)
);
}
);
width = 569;
},
{
layerId = "5B74239F-5503-441B-9A3C-1744D3E8E825";
shapes = (
{
closed = 1;
nodes = (
(438,1579,l),
(438,-296,l),
(65,-296,l),
(65,-156,l),
(289,-156,l),
(289,1439,l),
(65,1439,l),
(65,1579,l)
);
}
);
width = 531;
},
{
layerId = "FCCE09BD-6896-404A-801B-05958BD13330";
shapes = (
{
closed = 1;
nodes = (
(544,1579,l),
(544,-296,l),
(59,-296,l),
(59,-115,l),
(273,-115,l),
(273,1398,l),
(59,1398,l),
(59,1579,l)
);
}
);
width = 720;
}
);
unicode = 93;
},
{
glyphname = asciicircum;
layers = (
{
layerId = "B4DBF483-61C5-4288-8615-E64CC28AC39C";
shapes = (
{
closed = 1;
nodes = (
(599,1155,l),
(598,1155,o),
(598,1155,o),
(597,1155,c),
(311,703,l),
(104,703,l),
(598,1480,l),
(1092,703,l),
(885,703,l)
);
}
);
width = 1196;
},
{
layerId = "F7275F4E-BE84-4E16-A55D-D0D293F4C807";
shapes = (
{
closed = 1;
nodes = (
(480,1186,l),
(480,1186,o),
(480,1186,o),
(480,1186,c),
(235,703,l),
(70,703,l),
(480,1517,l),
(890,703,l),
(724,703,l)
);
}
);
width = 960;
},
{
layerId = "5B74239F-5503-441B-9A3C-1744D3E8E825";
shapes = (
{
closed = 1;
nodes = (
(440,1196,l),
(441,1196,o),
(441,1196,o),
(441,1196,c),
(210,703,l),
(59,703,l),
(441,1529,l),
(823,703,l),
(670,703,l)
);
}
);
width = 881;
},
{
layerId = "FCCE09BD-6896-404A-801B-05958BD13330";
shapes = (
{
closed = 1;
nodes = (
(639,1145,l),
(637,1145,o),
(637,1145,o),
(636,1145,c),
(336,703,l),
(115,703,l),
(637,1468,l),
(1159,703,l),
(939,703,l)
);
}
);
width = 1275;
}
);
unicode = 94;
},
{
glyphname = underscore;
layers = (
{
layerId = "B4DBF483-61C5-4288-8615-E64CC28AC39C";
shapes = (
{
closed = 1;
nodes = (
(0,-173,l),
(0,0,l),
(1139,0,l),
(1139,-173,l)
);
}
);
width = 1139;
},
{
layerId = "F7275F4E-BE84-4E16-A55D-D0D293F4C807";
shapes = (
{
closed = 1;
nodes = (
(0,-148,l),
(0,0,l),
(1139,0,l),
(1139,-148,l)
);
}
);
width = 1139;
},
{
layerId = "5B74239F-5503-441B-9A3C-1744D3E8E825";
shapes = (
{
closed = 1;
nodes = (
(0,-140,l),
(0,0,l),
(1139,0,l),
(1139,-140,l)
);
}
);
width = 1139;
},
{
layerId = "FCCE09BD-6896-404A-801B-05958BD13330";
shapes = (
{
closed = 1;
nodes = (
(0,-181,l),
(0,0,l),
(1139,0,l),
(1139,-181,l)
);
}
);
width = 1139;
}
);
unicode = 95;
},
{
glyphname = grave;
layers = (
{
layerId = "B4DBF483-61C5-4288-8615-E64CC28AC39C";
shapes = (
{
closed = 1;
nodes = (
(597,1283,l),
(396,1283,l),
(75,1604,l),
(356,1604,l)
);
}
);
width = 682;
},
{
layerId = "F7275F4E-BE84-4E16-A55D-D0D293F4C807";
shapes = (
{
closed = 1;
nodes = (
(575,1283,l),
(427,1283,l),
(106,1604,l),
(334,1604,l)
);
}
);
width = 682;
},
{
layerId = "5B74239F-5503-441B-9A3C-1744D3E8E825";
shapes = (
{
closed = 1;
nodes = (
(568,1283,l),
(437,1283,l),
(116,1604,l),
(327,1604,l)
);
}
);
width = 682;
},
{
layerId = "FCCE09BD-6896-404A-801B-05958BD13330";
shapes = (
{
closed = 1;
nodes = (
(604,1283,l),
(386,1283,l),
(65,1604,l),
(363,1604,l)
);
}
);
width = 682;
}
);
unicode = 96;
},
{
glyphname = a;
layers = (
{
layerId = "B4DBF483-61C5-4288-8615-E64CC28AC39C";
shapes = (
{
closed = 1;
nodes = (
(670,118,l),
(599,23,o),
(506,-25,o),
(394,-25,cs),
(209,-25,o),
(69,95,o),
(69,296,cs),
(69,545,o),
(243,670,o),
(591,670,cs),
(670,670,l),
(670,770,ls),
(670,885,o),
(611,941,o),
(498,941,cs),
(395,941,o),
(284,908,o),
(166,843,c),
(166,1047,l),
(287,1098,o),
(415,1123,o),
(546,1123,cs),
(818,1123,o),
(954,1010,o),
(954,780,cs),
(954,294,ls),
(954,208,o),
(981,165,o),
(1036,165,cs),
(1047,165,o),
(1060,166,o),
(1076,169,c),
(1083,3,l),
(1020,-16,o),
(965,-25,o),
(918,-25,cs),
(796,-25,o),
(718,23,o),
(683,118,c)
);
},
{
closed = 1;
nodes = (
(670,500,l),
(600,500,l),
(435,500,o),
(353,441,o),
(353,322,cs),
(353,237,o),
(415,176,o),
(500,176,cs),
(569,176,o),
(625,210,o),
(670,277,c)
);
}
);
width = 1139;
},
{
layerId = "F7275F4E-BE84-4E16-A55D-D0D293F4C807";
shapes = (
{
closed = 1;
nodes = (
(655,29,o),
(536,-25,o),
(416,-25,cs),
(226,-25,o),
(95,97,o),
(95,274,cs),
(95,519,o),
(296,642,o),
(699,642,cs),
(745,642,l),
(745,773,ls),
(745,899,o),
(676,962,o),
(538,962,cs),
(425,962,o),
(309,930,o),
(189,866,c),
(189,1029,l),
(321,1083,o),
(449,1110,o),
(572,1110,cs),
(829,1110,o),
(942,1008,o),
(942,773,cs),
(942,281,ls),
(942,168,o),
(976,112,o),
(1046,112,cs),
(1054,112,o),
(1067,113,o),
(1084,116,c),
(1098,7,l),
(1052,-14,o),
(1003,-25,o),
(949,-25,cs),
(857,-25,o),
(799,29,o),
(774,138,c)
);
},
{
closed = 1;
nodes = (
(745,526,l),
(680,528,l),
(426,528,o),
(299,454,o),
(299,308,cs),
(299,193,o),
(360,136,o),
(482,136,cs),
(569,136,o),
(654,172,o),
(745,245,c)
);
}
);
width = 1139;
},
{
layerId = "5B74239F-5503-441B-9A3C-1744D3E8E825";
shapes = (
{
closed = 1;
nodes = (
(809,145,l),
(674,31,o),
(546,-25,o),
(423,-25,cs),
(232,-25,o),
(104,98,o),
(104,267,cs),
(104,510,o),
(314,633,o),
(735,633,cs),
(770,633,l),
(770,774,ls),
(770,904,o),
(698,969,o),
(551,969,cs),
(435,969,o),
(317,937,o),
(197,874,c),
(197,1023,l),
(332,1078,o),
(460,1106,o),
(581,1106,cs),
(833,1106,o),
(938,1007,o),
(938,771,cs),
(938,277,ls),
(938,155,o),
(974,94,o),
(1049,94,cs),
(1056,94,o),
(1069,95,o),
(1087,98,c),
(1103,8,l),
(1063,-13,o),
(1016,-25,o),
(959,-25,cs),
(877,-25,o),
(826,31,o),
(804,145,c)
);
},
{
closed = 1;
nodes = (
(770,535,l),
(707,537,l),
(423,537,o),
(281,458,o),
(281,303,cs),
(281,178,o),
(342,123,o),
(476,123,cs),
(569,123,o),
(664,159,o),
(770,234,c)
);
}
);
width = 1139;
},
{
layerId = "FCCE09BD-6896-404A-801B-05958BD13330";
shapes = (
{
closed = 1;
nodes = (
(635,111,l),
(580,21,o),
(496,-25,o),
(387,-25,cs),
(203,-25,o),
(60,94,o),
(60,303,cs),
(60,554,o),
(225,679,o),
(555,679,cs),
(645,679,l),
(645,769,ls),
(645,880,o),
(589,934,o),
(485,934,cs),
(385,934,o),
(276,901,o),
(158,835,c),
(158,1053,l),
(276,1103,o),
(404,1127,o),
(537,1127,cs),
(814,1127,o),
(958,1011,o),
(958,782,cs),
(958,298,ls),
(958,221,o),
(983,183,o),
(1033,183,cs),
(1045,183,o),
(1058,184,o),
(1073,187,c),
(1078,2,l),
(1009,-17,o),
(952,-25,o),
(908,-25,cs),
(776,-25,o),
(691,21,o),
(653,111,c)
);
},
{
closed = 1;
nodes = (
(645,491,l),
(573,491,l),
(438,491,o),
(371,437,o),
(371,327,cs),
(371,252,o),
(433,189,o),
(506,189,cs),
(569,189,o),
(615,223,o),
(645,288,c)
);
}
);
width = 1139;
}
);
unicode = 97;
},
{
glyphname = b;
layers = (
{
layerId = "B4DBF483-61C5-4288-8615-E64CC28AC39C";
shapes = (
{
closed = 1;
nodes = (
(444,176,l),
(519,163,o),
(574,157,o),
(611,157,cs),
(775,157,o),
(857,284,o),
(857,538,cs),
(857,771,o),
(798,891,o),
(678,891,cs),
(598,891,o),
(520,833,o),
(444,716,c)
);
},
{
closed = 1;
nodes = (
(444,916,l),
(549,1054,o),
(664,1123,o),
(789,1123,cs),
(1019,1123,o),
(1172,901,o),
(1172,579,cs),
(1172,204,o),
(980,-25,o),
(656,-25,cs),
(602,-25,o),
(531,-17,o),
(444,0,c),
(148,0,l),
(148,1579,l),
(444,1579,l)
);
}
);
width = 1251;
},
{
layerId = "F7275F4E-BE84-4E16-A55D-D0D293F4C807";
shapes = (
{
closed = 1;
nodes = (
(351,149,l),
(441,131,o),
(510,123,o),
(556,123,cs),
(744,123,o),
(839,267,o),
(839,556,cs),
(839,789,o),
(759,938,o),
(632,938,cs),
(545,938,o),
(453,859,o),
(351,703,c)
);
},
{
closed = 1;
nodes = (
(351,882,l),
(429,1034,o),
(537,1110,o),
(675,1110,cs),
(901,1110,o),
(1052,893,o),
(1052,574,cs),
(1052,192,o),
(865,-25,o),
(540,-25,cs),
(476,-25,o),
(413,-16,o),
(351,0,c),
(154,-12,l),
(154,1579,l),
(351,1579,l)
);
}
);
width = 1139;
},
{
layerId = "5B74239F-5503-441B-9A3C-1744D3E8E825";
shapes = (
{
closed = 1;
nodes = (
(320,140,l),
(415,120,o),
(489,112,o),
(538,112,cs),
(734,112,o),
(833,261,o),
(833,562,cs),
(833,795,o),
(746,954,o),
(617,954,cs),
(527,954,o),
(431,868,o),
(320,699,c)
);
},
{
closed = 1;
nodes = (
(320,871,l),
(389,1027,o),
(495,1106,o),
(637,1106,cs),
(862,1106,o),
(1012,890,o),
(1012,572,cs),
(1012,188,o),
(827,-25,o),
(501,-25,cs),
(434,-25,o),
(374,-16,o),
(320,0,c),
(156,-16,l),
(156,1579,l),
(320,1579,l)
);
}
);
width = 1102;
},
{
layerId = "FCCE09BD-6896-404A-801B-05958BD13330";
shapes = (
{
closed = 1;
nodes = (
(475,185,l),
(545,174,o),
(595,168,o),
(629,168,cs),
(785,168,o),
(863,290,o),
(863,532,cs),
(863,765,o),
(811,875,o),
(693,875,cs),
(616,875,o),
(542,824,o),
(475,720,c)
);
},
{
closed = 1;
nodes = (
(475,927,l),
(589,1061,o),
(706,1127,o),
(827,1127,cs),
(1058,1127,o),
(1212,904,o),
(1212,581,cs),
(1212,208,o),
(1018,-25,o),
(695,-25,cs),
(644,-25,o),
(570,-17,o),
(475,0,c),
(146,4,l),
(146,1579,l),
(475,1579,l)
);
}
);
width = 1288;
}
);
unicode = 98;
},
{
glyphname = c;
layers = (
{
layerId = "B4DBF483-61C5-4288-8615-E64CC28AC39C";
shapes = (
{
closed = 1;
nodes = (
(1056,24,l),
(915,-9,o),
(790,-25,o),
(681,-25,cs),
(296,-25,o),
(74,183,o),
(74,550,cs),
(74,928,o),
(280,1123,o),
(703,1123,cs),
(819,1123,o),
(934,1109,o),
(1047,1080,c),
(1047,866,l),
(909,905,o),
(802,925,o),
(724,925,cs),
(501,925,o),
(389,800,o),
(389,551,cs),
(389,321,o),
(518,171,o),
(752,171,cs),
(832,171,o),
(933,190,o),
(1056,229,c)
);
}
);
width = 1139;
},
{
layerId = "F7275F4E-BE84-4E16-A55D-D0D293F4C807";
shapes = (
{
closed = 1;
nodes = (
(926,33,l),
(811,-5,o),
(695,-25,o),
(578,-25,cs),
(286,-25,o),
(86,209,o),
(86,541,cs),
(86,896,o),
(282,1110,o),
(613,1110,cs),
(701,1110,o),
(801,1098,o),
(914,1074,c),
(914,910,l),
(807,942,o),
(720,959,o),
(654,959,cs),
(420,959,o),
(303,819,o),
(303,541,cs),
(303,283,o),
(430,134,o),
(645,134,cs),
(727,134,o),
(821,157,o),
(926,203,c)
);
}
);
width = 1024;
},
{
layerId = "5B74239F-5503-441B-9A3C-1744D3E8E825";
shapes = (
{
closed = 1;
nodes = (
(883,36,l),
(776,-4,o),
(663,-25,o),
(544,-25,cs),
(283,-25,o),
(90,218,o),
(90,538,cs),
(90,885,o),
(283,1106,o),
(583,1106,cs),
(662,1106,o),
(757,1094,o),
(870,1072,c),
(870,925,l),
(773,954,o),
(693,970,o),
(631,970,cs),
(393,970,o),
(274,825,o),
(274,538,cs),
(274,270,o),
(401,122,o),
(609,122,cs),
(692,122,o),
(784,146,o),
(883,194,c)
);
}
);
width = 986;
},
{
layerId = "FCCE09BD-6896-404A-801B-05958BD13330";
shapes = (
{
closed = 1;
nodes = (
(1099,21,l),
(950,-10,o),
(822,-25,o),
(715,-25,cs),
(299,-25,o),
(70,174,o),
(70,553,cs),
(70,939,o),
(279,1127,o),
(733,1127,cs),
(858,1127,o),
(978,1113,o),
(1091,1082,c),
(1091,851,l),
(943,893,o),
(829,914,o),
(747,914,cs),
(528,914,o),
(418,794,o),
(418,554,cs),
(418,334,o),
(547,183,o),
(788,183,cs),
(867,183,o),
(970,201,o),
(1099,238,c)
);
}
);
width = 1177;
}
);
unicode = 99;
},
{
glyphname = d;
layers = (
{
layerId = "B4DBF483-61C5-4288-8615-E64CC28AC39C";
shapes = (
{
closed = 1;
nodes = (
(807,922,l),
(733,935,o),
(678,941,o),
(641,941,cs),
(477,941,o),
(395,814,o),
(395,560,cs),
(395,327,o),
(454,207,o),
(574,207,cs),
(655,207,o),
(731,265,o),
(807,382,c)
);
},
{
closed = 1;
nodes = (
(807,182,l),
(704,44,o),
(589,-25,o),
(463,-25,cs),
(232,-25,o),
(80,196,o),
(80,519,cs),
(80,895,o),
(270,1123,o),
(596,1123,cs),
(650,1123,o),
(720,1115,o),
(807,1098,c),
(807,1579,l),
(1103,1579,l),
(1103,0,l),
(807,0,l)
);
}
);
width = 1251;
},
{
layerId = "F7275F4E-BE84-4E16-A55D-D0D293F4C807";
shapes = (
{
closed = 1;
nodes = (
(787,937,l),
(696,953,o),
(628,962,o),
(583,962,cs),
(393,962,o),
(299,817,o),
(299,529,cs),
(299,295,o),
(377,148,o),
(506,148,cs),
(592,148,o),
(685,226,o),
(787,382,c)
);
},
{
closed = 1;
nodes = (
(787,203,l),
(708,51,o),
(600,-25,o),
(463,-25,cs),
(235,-25,o),
(86,191,o),
(86,512,cs),
(86,891,o),
(269,1110,o),
(598,1110,cs),
(661,1110,o),
(724,1102,o),
(787,1086,c),
(787,1579,l),
(984,1579,l),
(984,0,l),
(787,0,l)
);
}
);
width = 1139;
},
{
layerId = "5B74239F-5503-441B-9A3C-1744D3E8E825";
shapes = (
{
closed = 1;
nodes = (
(780,942,l),
(684,959,o),
(611,969,o),
(564,969,cs),
(365,969,o),
(267,818,o),
(267,519,cs),
(267,284,o),
(351,128,o),
(483,128,cs),
(571,128,o),
(670,213,o),
(780,382,c)
);
},
{
closed = 1;
nodes = (
(780,210,l),
(709,53,o),
(604,-25,o),
(463,-25,cs),
(236,-25,o),
(88,189,o),
(88,510,cs),
(88,890,o),
(269,1106,o),
(599,1106,cs),
(665,1106,o),
(725,1098,o),
(780,1082,c),
(780,1579,l),
(944,1579,l),
(944,0,l),
(780,0,l)
);
}
);
width = 1102;
},
{
layerId = "FCCE09BD-6896-404A-801B-05958BD13330";
shapes = (
{
closed = 1;
nodes = (
(814,917,l),
(745,929,o),
(695,934,o),
(660,934,cs),
(505,934,o),
(427,813,o),
(427,570,cs),
(427,338,o),
(480,227,o),
(597,227,cs),
(676,227,o),
(746,278,o),
(814,382,c)
);
},
{
closed = 1;
nodes = (
(814,175,l),
(703,42,o),
(585,-25,o),
(463,-25,cs),
(231,-25,o),
(78,198,o),
(78,521,cs),
(78,896,o),
(270,1127,o),
(595,1127,cs),
(646,1127,o),
(719,1119,o),
(814,1102,c),
(814,1579,l),
(1143,1579,l),
(1143,0,l),
(814,0,l)
);
}
);
width = 1288;
}
);
unicode = 100;
},
{
glyphname = e;
layers = (
{
layerId = "B4DBF483-61C5-4288-8615-E64CC28AC39C";
shapes = (
{
closed = 1;
nodes = (
(740,657,l),
(740,844,o),
(687,938,o),
(581,938,cs),
(469,938,o),
(403,844,o),
(383,657,c)
);
},
{
closed = 1;
nodes = (
(1031,37,l),
(909,-4,o),
(787,-25,o),
(664,-25,cs),
(305,-25,o),
(74,190,o),
(74,564,cs),
(74,898,o),
(271,1123,o),
(577,1123,cs),
(832,1123,o),
(970,993,o),
(1014,725,cs),
(1026,656,o),
(1031,578,o),
(1031,490,c),
(386,490,l),
(407,281,o),
(517,176,o),
(715,176,cs),
(810,176,o),
(916,201,o),
(1031,245,c)
);
}
);
width = 1139;
},
{
layerId = "F7275F4E-BE84-4E16-A55D-D0D293F4C807";
shapes = (
{
closed = 1;
nodes = (
(818,660,l),
(818,862,o),
(736,963,o),
(573,963,cs),
(404,963,o),
(312,862,o),
(296,660,c)
);
},
{
closed = 1;
nodes = (
(1013,35,l),
(883,-5,o),
(758,-25,o),
(636,-25,cs),
(302,-25,o),
(86,202,o),
(86,556,cs),
(86,892,o),
(275,1110,o),
(576,1110,cs),
(871,1110,o),
(1019,930,o),
(1019,573,cs),
(1019,553,o),
(1018,532,o),
(1018,512,c),
(293,512,l),
(311,254,o),
(441,125,o),
(682,125,cs),
(786,125,o),
(896,147,o),
(1013,191,c)
);
}
);
width = 1139;
},
{
layerId = "5B74239F-5503-441B-9A3C-1744D3E8E825";
shapes = (
{
closed = 1;
nodes = (
(844,661,l),
(844,868,o),
(752,971,o),
(570,971,cs),
(382,971,o),
(282,868,o),
(267,661,c)
);
},
{
closed = 1;
nodes = (
(1007,34,l),
(874,-5,o),
(748,-25,o),
(627,-25,cs),
(301,-25,o),
(90,206,o),
(90,553,cs),
(90,890,o),
(276,1106,o),
(576,1106,cs),
(884,1106,o),
(1035,909,o),
(1021,522,c),
(1017,519,o),
(1014,517,o),
(1014,519,c),
(262,519,l),
(279,245,o),
(416,108,o),
(671,108,cs),
(778,108,o),
(889,129,o),
(1007,173,c)
);
}
);
width = 1139;
},
{
layerId = "FCCE09BD-6896-404A-801B-05958BD13330";
shapes = (
{
closed = 1;
nodes = (
(714,656,l),
(714,838,o),
(671,930,o),
(584,930,cs),
(491,930,o),
(433,838,o),
(412,656,c)
);
},
{
closed = 1;
nodes = (
(1037,38,l),
(918,-4,o),
(797,-25,o),
(673,-25,cs),
(306,-25,o),
(70,186,o),
(70,567,cs),
(70,900,o),
(270,1127,o),
(577,1127,cs),
(819,1127,o),
(954,1014,o),
(1012,776,c),
(1028,690,o),
(1035,593,o),
(1035,483,c),
(417,483,l),
(439,290,o),
(542,193,o),
(726,193,cs),
(818,193,o),
(923,219,o),
(1037,263,c)
);
}
);
width = 1139;
}
);
unicode = 101;
},
{
glyphname = f;
layers = (
{
layerId = "B4DBF483-61C5-4288-8615-E64CC28AC39C";
shapes = (
{
closed = 1;
nodes = (
(166,0,l),
(166,913,l),
(52,913,l),
(52,1098,l),
(166,1098,l),
(166,1177,ls),
(166,1462,o),
(296,1604,o),
(556,1604,cs),
(612,1604,o),
(672,1595,o),
(736,1578,c),
(736,1386,l),
(681,1408,o),
(632,1419,o),
(589,1419,cs),
(503,1419,o),
(462,1338,o),
(462,1188,cs),
(462,1098,l),
(647,1098,l),
(647,913,l),
(462,913,l),
(462,0,l)
);
}
);
width = 682;
},
{
layerId = "F7275F4E-BE84-4E16-A55D-D0D293F4C807";
shapes = (
{
closed = 1;
nodes = (
(175,0,l),
(175,938,l),
(31,938,l),
(31,1086,l),
(175,1086,l),
(175,1216,ls),
(175,1474,o),
(278,1604,o),
(486,1604,cs),
(528,1604,o),
(576,1595,o),
(630,1578,c),
(630,1421,l),
(581,1444,o),
(539,1456,o),
(505,1456,cs),
(405,1456,o),
(373,1399,o),
(373,1237,cs),
(373,1086,l),
(598,1086,l),
(598,938,l),
(373,938,l),
(373,0,l)
);
}
);
width = 569;
},
{
layerId = "5B74239F-5503-441B-9A3C-1744D3E8E825";
shapes = (
{
closed = 1;
nodes = (
(178,0,l),
(178,946,l),
(24,946,l),
(24,1082,l),
(178,1082,l),
(178,1229,ls),
(178,1478,o),
(272,1604,o),
(463,1604,cs),
(500,1604,o),
(544,1595,o),
(595,1578,c),
(595,1433,l),
(548,1456,o),
(508,1468,o),
(477,1468,cs),
(372,1468,o),
(343,1419,o),
(343,1253,cs),
(343,1082,l),
(582,1082,l),
(582,946,l),
(343,946,l),
(343,0,l)
);
}
);
width = 531;
},
{
layerId = "FCCE09BD-6896-404A-801B-05958BD13330";
shapes = (
{
closed = 1;
nodes = (
(163,0,l),
(163,905,l),
(59,905,l),
(59,1102,l),
(163,1102,l),
(163,1164,ls),
(163,1458,o),
(302,1604,o),
(579,1604,cs),
(640,1604,o),
(704,1595,o),
(771,1578,c),
(771,1374,l),
(714,1396,o),
(663,1407,o),
(617,1407,cs),
(536,1407,o),
(492,1318,o),
(492,1172,cs),
(492,1102,l),
(663,1102,l),
(663,905,l),
(492,905,l),
(492,0,l)
);
}
);
width = 720;
}
);
unicode = 102;
},
{
glyphname = g;
layers = (
{
layerId = "B4DBF483-61C5-4288-8615-E64CC28AC39C";
shapes = (
{
closed = 1;
nodes = (
(807,922,l),
(733,935,o),
(678,941,o),
(641,941,cs),
(477,941,o),
(395,818,o),
(395,571,cs),
(395,346,o),
(454,231,o),
(574,231,cs),
(655,231,o),
(731,291,o),
(807,407,c)
);
},
{
closed = 1;
nodes = (
(807,207,l),
(703,69,o),
(588,0,o),
(463,0,cs),
(231,0,o),
(80,225,o),
(80,532,cs),
(80,895,o),
(276,1123,o),
(596,1123,cs),
(650,1123,o),
(720,1115,o),
(807,1098,c),
(1103,1098,l),
(1103,336,ls),
(1103,-57,o),
(1088,-173,o),
(954,-291,cs),
(855,-377,o),
(717,-420,o),
(538,-420,cs),
(409,-420,o),
(271,-394,o),
(124,-341,c),
(124,-123,l),
(269,-181,o),
(393,-210,o),
(498,-210,cs),
(715,-210,o),
(807,-121,o),
(807,87,cs)
);
}
);
width = 1251;
},
{
layerId = "F7275F4E-BE84-4E16-A55D-D0D293F4C807";
shapes = (
{
closed = 1;
nodes = (
(794,937,l),
(703,953,o),
(635,962,o),
(591,962,cs),
(401,962,o),
(306,832,o),
(306,574,cs),
(306,346,o),
(385,197,o),
(513,197,cs),
(599,197,o),
(691,275,o),
(794,432,c)
);
},
{
closed = 1;
nodes = (
(794,253,l),
(716,101,o),
(608,25,o),
(470,25,cs),
(244,25,o),
(93,240,o),
(93,550,cs),
(93,905,o),
(279,1110,o),
(603,1110,cs),
(667,1110,o),
(731,1102,o),
(794,1086,c),
(991,1086,l),
(991,296,ls),
(991,-49,o),
(965,-176,o),
(866,-282,cs),
(780,-374,o),
(646,-420,o),
(465,-420,cs),
(338,-420,o),
(216,-400,o),
(100,-361,c),
(100,-190,l),
(239,-244,o),
(360,-271,o),
(462,-271,cs),
(683,-271,o),
(794,-153,o),
(794,82,cs)
);
}
);
width = 1139;
},
{
layerId = "5B74239F-5503-441B-9A3C-1744D3E8E825";
shapes = (
{
closed = 1;
nodes = (
(790,942,l),
(693,959,o),
(621,969,o),
(574,969,cs),
(376,969,o),
(276,837,o),
(276,575,cs),
(276,346,o),
(362,186,o),
(493,186,cs),
(580,186,o),
(678,270,o),
(790,440,c)
);
},
{
closed = 1;
nodes = (
(790,268,l),
(720,112,o),
(615,33,o),
(472,33,cs),
(248,33,o),
(97,245,o),
(97,556,cs),
(97,908,o),
(280,1106,o),
(605,1106,cs),
(673,1106,o),
(735,1098,o),
(790,1082,c),
(954,1082,l),
(954,283,ls),
(954,-46,o),
(924,-177,o),
(837,-279,cs),
(755,-373,o),
(622,-420,o),
(441,-420,cs),
(314,-420,o),
(198,-402,o),
(92,-368,c),
(92,-212,l),
(229,-265,o),
(349,-291,o),
(450,-291,cs),
(672,-291,o),
(790,-164,o),
(790,80,cs)
);
}
);
width = 1102;
},
{
layerId = "FCCE09BD-6896-404A-801B-05958BD13330";
shapes = (
{
closed = 1;
nodes = (
(811,917,l),
(743,929,o),
(692,934,o),
(658,934,cs),
(502,934,o),
(425,813,o),
(425,570,cs),
(425,346,o),
(477,242,o),
(594,242,cs),
(674,242,o),
(744,296,o),
(811,399,c)
);
},
{
closed = 1;
nodes = (
(811,192,l),
(699,58,o),
(581,-8,o),
(461,-8,cs),
(227,-8,o),
(76,220,o),
(76,526,cs),
(76,892,o),
(275,1127,o),
(594,1127,cs),
(644,1127,o),
(716,1119,o),
(811,1102,c),
(1140,1102,l),
(1140,349,ls),
(1140,-60,o),
(1129,-172,o),
(983,-294,c),
(880,-378,o),
(741,-420,o),
(562,-420,cs),
(433,-420,o),
(289,-392,o),
(132,-334,c),
(132,-101,l),
(279,-160,o),
(404,-190,o),
(510,-190,cs),
(726,-190,o),
(811,-110,o),
(811,89,cs)
);
}
);
width = 1288;
}
);
unicode = 103;
},
{
glyphname = h;
layers = (
{
layerId = "B4DBF483-61C5-4288-8615-E64CC28AC39C";
shapes = (
{
closed = 1;
nodes = (
(148,0,l),
(148,1579,l),
(444,1579,l),
(444,916,l),
(557,1054,o),
(681,1123,o),
(817,1123,cs),
(1016,1123,o),
(1116,1007,o),
(1116,776,cs),
(1116,0,l),
(820,0,l),
(820,703,ls),
(820,845,o),
(792,890,o),
(701,890,cs),
(621,890,o),
(535,832,o),
(444,716,c),
(444,0,l)
);
}
);
width = 1251;
},
{
layerId = "F7275F4E-BE84-4E16-A55D-D0D293F4C807";
shapes = (
{
closed = 1;
nodes = (
(154,0,l),
(154,1579,l),
(351,1579,l),
(351,882,l),
(455,1034,o),
(578,1110,o),
(718,1110,cs),
(904,1110,o),
(997,1000,o),
(997,780,cs),
(997,0,l),
(799,0,l),
(799,716,ls),
(799,890,o),
(769,941,o),
(668,941,cs),
(556,941,o),
(451,861,o),
(351,703,c),
(351,0,l)
);
}
);
width = 1139;
},
{
layerId = "5B74239F-5503-441B-9A3C-1744D3E8E825";
shapes = (
{
closed = 1;
nodes = (
(156,0,l),
(156,1579,l),
(320,1579,l),
(320,871,l),
(421,1027,o),
(544,1106,o),
(685,1106,cs),
(867,1106,o),
(957,998,o),
(957,781,cs),
(957,0,l),
(792,0,l),
(792,720,ls),
(792,905,o),
(761,958,o),
(657,958,cs),
(534,958,o),
(423,871,o),
(320,699,c),
(320,0,l)
);
}
);
width = 1102;
},
{
layerId = "FCCE09BD-6896-404A-801B-05958BD13330";
shapes = (
{
closed = 1;
nodes = (
(146,0,l),
(146,1579,l),
(475,1579,l),
(475,927,l),
(591,1061,o),
(715,1127,o),
(850,1127,cs),
(1053,1127,o),
(1156,1009,o),
(1156,775,cs),
(1156,0,l),
(827,0,l),
(827,699,ls),
(827,830,o),
(800,873,o),
(712,873,cs),
(643,873,o),
(563,822,o),
(475,720,c),
(475,0,l)
);
}
);
width = 1288;
}
);
unicode = 104;
},
{
glyphname = i;
layers = (
{
layerId = "B4DBF483-61C5-4288-8615-E64CC28AC39C";
shapes = (
{
closed = 1;
nodes = (
(148,0,l),
(148,1098,l),
(444,1098,l),
(444,0,l)
);
},
{
closed = 1;
nodes = (
(138,1298,l),
(138,1579,l),
(454,1579,l),
(454,1298,l)
);
}
);
width = 592;
},
{
layerId = "F7275F4E-BE84-4E16-A55D-D0D293F4C807";
shapes = (
{
closed = 1;
nodes = (
(154,0,l),
(154,1086,l),
(351,1086,l),
(351,0,l)
);
},
{
closed = 1;
nodes = (
(144,1283,l),
(144,1500,l),
(361,1500,l),
(361,1283,l)
);
}
);
width = 505;
},
{
layerId = "5B74239F-5503-441B-9A3C-1744D3E8E825";
shapes = (
{
closed = 1;
nodes = (
(156,0,l),
(156,1082,l),
(320,1082,l),
(320,0,l)
);
},
{
closed = 1;
nodes = (
(146,1278,l),
(146,1474,l),
(330,1474,l),
(330,1278,l)
);
}
);
width = 476;
},
{
layerId = "FCCE09BD-6896-404A-801B-05958BD13330";
shapes = (
{
closed = 1;
nodes = (
(146,0,l),
(146,1102,l),
(475,1102,l),
(475,0,l)
);
},
{
closed = 1;
nodes = (
(136,1303,l),
(136,1605,l),
(485,1605,l),
(485,1303,l)
);
}
);
width = 621;
}
);
unicode = 105;
},
{
glyphname = j;
layers = (
{
layerId = "B4DBF483-61C5-4288-8615-E64CC28AC39C";
shapes = (
{
closed = 1;
nodes = (
(-144,-181,l),
(-74,-216,o),
(-22,-234,o),
(12,-234,cs),
(117,-234,o),
(148,-179,o),
(148,0,cs),
(148,1098,l),
(444,1098,l),
(444,19,ls),
(444,-273,o),
(314,-419,o),
(54,-419,cs),
(-4,-419,o),
(-70,-406,o),
(-144,-379,c)
);
},
{
closed = 1;
nodes = (
(138,1298,l),
(138,1579,l),
(454,1579,l),
(454,1298,l)
);
}
);
width = 589;
},
{
layerId = "F7275F4E-BE84-4E16-A55D-D0D293F4C807";
shapes = (
{
closed = 1;
nodes = (
(-84,-253,l),
(-48,-265,o),
(-7,-271,o),
(40,-271,cs),
(152,-271,o),
(179,-225,o),
(179,0,cs),
(179,1086,l),
(377,1086,l),
(377,0,ls),
(377,-279,o),
(270,-419,o),
(57,-419,cs),
(-3,-419,o),
(-50,-411,o),
(-84,-397,c)
);
},
{
closed = 1;
nodes = (
(169,1283,l),
(169,1500,l),
(387,1500,l),
(387,1283,l)
);
}
);
width = 519;
},
{
layerId = "5B74239F-5503-441B-9A3C-1744D3E8E825";
shapes = (
{
closed = 1;
nodes = (
(-64,-277,l),
(-39,-281,o),
(-2,-283,o),
(49,-283,cs),
(164,-283,o),
(189,-240,o),
(189,0,cs),
(189,1082,l),
(355,1082,l),
(355,-6,ls),
(355,-281,o),
(255,-419,o),
(58,-419,cs),
(-3,-419,o),
(-43,-413,o),
(-64,-403,c)
);
},
{
closed = 1;
nodes = (
(179,1278,l),
(179,1474,l),
(365,1474,l),
(365,1278,l)
);
}
);
width = 496;
},
{
layerId = "FCCE09BD-6896-404A-801B-05958BD13330";
shapes = (
{
closed = 1;
nodes = (
(-164,-157,l),
(-83,-200,o),
(-27,-222,o),
(3,-222,cs),
(105,-222,o),
(138,-164,o),
(138,0,cs),
(138,1102,l),
(466,1102,l),
(466,25,ls),
(466,-271,o),
(329,-419,o),
(53,-419,cs),
(-4,-419,o),
(-77,-404,o),
(-164,-373,c)
);
},
{
closed = 1;
nodes = (
(128,1303,l),
(128,1605,l),
(476,1605,l),
(476,1303,l)
);
}
);
width = 612;
}
);
unicode = 106;
},
{
glyphname = k;
layers = (
{
layerId = "B4DBF483-61C5-4288-8615-E64CC28AC39C";
shapes = (
{
closed = 1;
nodes = (
(148,0,l),
(148,1579,l),
(444,1579,l),
(444,0,l)
);
},
{
closed = 1;
nodes = (
(448,569,l),
(808,1098,l),
(1053,1098,l),
(733,621,l),
(1130,0,l),
(814,0,l)
);
}
);
width = 1139;
},
{
layerId = "F7275F4E-BE84-4E16-A55D-D0D293F4C807";
shapes = (
{
closed = 1;
nodes = (
(154,0,l),
(351,0,l),
(351,1579,l),
(154,1579,l)
);
},
{
closed = 1;
nodes = (
(350,558,l),
(715,1086,l),
(903,1086,l),
(556,573,l),
(1006,0,l),
(766,0,l)
);
}
);
width = 1024;
},
{
layerId = "5B74239F-5503-441B-9A3C-1744D3E8E825";
shapes = (
{
closed = 1;
nodes = (
(156,0,l),
(156,1579,l),
(320,1579,l),
(320,0,l)
);
},
{
closed = 1;
nodes = (
(323,555,l),
(684,1082,l),
(853,1082,l),
(497,557,l),
(965,0,l),
(750,0,l)
);
}
);
width = 986;
},
{
layerId = "FCCE09BD-6896-404A-801B-05958BD13330";
shapes = (
{
closed = 1;
nodes = (
(146,0,l),
(146,1579,l),
(475,1579,l),
(475,0,l)
);
},
{
closed = 1;
nodes = (
(481,568,l),
(839,1102,l),
(1103,1102,l),
(792,637,l),
(1171,0,l),
(830,0,l)
);
}
);
width = 1177;
}
);
unicode = 107;
},
{
glyphname = l;
layers = (
{
layerId = "B4DBF483-61C5-4288-8615-E64CC28AC39C";
shapes = (
{
closed = 1;
nodes = (
(431,374,ls),
(431,209,o),
(449,173,o),
(539,173,cs),
(557,173,o),
(574,176,o),
(591,182,c),
(591,0,l),
(568,-9,o),
(546,-15,o),
(522,-19,cs),
(498,-23,o),
(473,-25,o),
(448,-25,cs),
(249,-25,o),
(135,86,o),
(135,335,cs),
(135,1579,l),
(431,1579,l)
);
}
);
width = 611;
},
{
layerId = "F7275F4E-BE84-4E16-A55D-D0D293F4C807";
shapes = (
{
closed = 1;
nodes = (
(351,336,ls),
(351,224,o),
(377,161,o),
(448,135,cs),
(470,127,o),
(495,123,o),
(523,124,c),
(523,-19,l),
(508,-23,o),
(488,-25,o),
(463,-25,cs),
(441,-25,o),
(420,-23,o),
(399,-19,cs),
(248,9,o),
(154,114,o),
(154,300,cs),
(154,1579,l),
(351,1579,l)
);
}
);
width = 548;
},
{
layerId = "5B74239F-5503-441B-9A3C-1744D3E8E825";
shapes = (
{
closed = 1;
nodes = (
(324,323,ls),
(324,229,o),
(353,157,o),
(418,122,c),
(441,112,o),
(469,105,o),
(500,105,c),
(500,-25,l),
(488,-28,o),
(469,-28,o),
(443,-27,cs),
(422,-26,o),
(402,-22,o),
(383,-17,cs),
(248,20,o),
(160,123,o),
(160,288,cs),
(160,1579,l),
(324,1579,l)
);
}
);
width = 527;
},
{
layerId = "FCCE09BD-6896-404A-801B-05958BD13330";
shapes = (
{
closed = 1;
nodes = (
(458,387,ls),
(458,204,o),
(473,177,o),
(569,186,c),
(586,188,o),
(600,194,o),
(614,201,c),
(614,6,l),
(588,-4,o),
(565,-12,o),
(542,-17,cs),
(517,-22,o),
(491,-26,o),
(464,-27,cs),
(249,-36,o),
(129,77,o),
(129,347,cs),
(129,1579,l),
(458,1579,l)
);
}
);
width = 632;
}
);
unicode = 108;
},
{
glyphname = m;
layers = (
{
layerId = "B4DBF483-61C5-4288-8615-E64CC28AC39C";
shapes = (
{
closed = 1;
nodes = (
(148,0,l),
(148,1098,l),
(444,1098,l),
(444,916,l),
(532,1050,o),
(641,1123,o),
(781,1123,cs),
(927,1123,o),
(1022,1053,o),
(1065,913,c),
(1143,1050,o),
(1258,1123,o),
(1402,1123,cs),
(1591,1123,o),
(1685,1007,o),
(1685,776,cs),
(1685,0,l),
(1389,0,l),
(1389,255,o),
(1420,758,o),
(1368,851,cs),
(1361,864,o),
(1351,873,o),
(1338,880,cs),
(1325,886,o),
(1308,890,o),
(1288,890,cs),
(1203,890,o),
(1129,832,o),
(1065,716,c),
(1065,0,l),
(769,0,l),
(769,703,ls),
(769,852,o),
(746,890,o),
(668,890,cs),
(583,890,o),
(509,832,o),
(444,716,c),
(444,0,l)
);
}
);
width = 1821;
},
{
layerId = "F7275F4E-BE84-4E16-A55D-D0D293F4C807";
shapes = (
{
closed = 1;
nodes = (
(154,0,l),
(154,1086,l),
(351,1086,l),
(351,882,l),
(472,1068,o),
(529,1110,o),
(666,1110,cs),
(809,1110,o),
(906,1034,o),
(958,882,c),
(1080,1069,o),
(1136,1110,o),
(1272,1110,cs),
(1466,1110,o),
(1564,1003,o),
(1564,790,cs),
(1564,0,l),
(1367,0,l),
(1367,253,o),
(1366,506,o),
(1366,759,cs),
(1366,883,o),
(1316,946,o),
(1218,946,cs),
(1189,946,o),
(1161,938,o),
(1132,922,cs),
(1075,890,o),
(1017,825,o),
(958,728,c),
(958,0,l),
(760,0,l),
(760,759,ls),
(760,883,o),
(710,946,o),
(611,946,cs),
(525,946,o),
(439,873,o),
(351,728,c),
(351,0,l)
);
}
);
width = 1706;
},
{
layerId = "5B74239F-5503-441B-9A3C-1744D3E8E825";
shapes = (
{
closed = 1;
nodes = (
(156,0,l),
(156,1082,l),
(320,1082,l),
(320,871,l),
(452,1074,o),
(492,1106,o),
(628,1106,cs),
(770,1106,o),
(867,1028,o),
(922,872,c),
(1059,1075,o),
(1095,1106,o),
(1229,1106,cs),
(1424,1106,o),
(1524,1002,o),
(1524,795,cs),
(1524,0,l),
(1360,0,l),
(1360,252,o),
(1348,422,o),
(1365,728,c),
(1368,889,o),
(1304,970,o),
(1178,968,c),
(1144,966,o),
(1112,954,o),
(1080,933,c),
(1032,890,o),
(980,823,o),
(922,732,c),
(922,0,l),
(757,0,l),
(757,778,ls),
(757,893,o),
(698,965,o),
(592,965,cs),
(506,965,o),
(416,887,o),
(320,732,c),
(320,0,l)
);
}
);
width = 1668;
},
{
layerId = "FCCE09BD-6896-404A-801B-05958BD13330";
shapes = (
{
closed = 1;
nodes = (
(146,0,l),
(146,1102,l),
(475,1102,l),
(475,927,l),
(552,1044,o),
(678,1127,o),
(819,1127,cs),
(966,1127,o),
(1061,1059,o),
(1101,923,c),
(1164,1044,o),
(1299,1127,o),
(1445,1127,cs),
(1633,1127,o),
(1725,1008,o),
(1725,771,cs),
(1725,0,l),
(1396,0,l),
(1396,256,o),
(1438,842,o),
(1369,882,c),
(1359,858,o),
(1363,849,o),
(1378,858,c),
(1370,866,o),
(1357,874,o),
(1340,879,c),
(1246,890,o),
(1166,834,o),
(1101,712,c),
(1101,0,l),
(772,0,l),
(772,684,ls),
(772,842,o),
(758,871,o),
(687,871,cs),
(602,871,o),
(532,818,o),
(475,712,c),
(475,0,l)
);
}
);
width = 1859;
}
);
unicode = 109;
},
{
glyphname = n;
layers = (
{
layerId = "B4DBF483-61C5-4288-8615-E64CC28AC39C";
shapes = (
{
closed = 1;
nodes = (
(148,0,l),
(148,1098,l),
(444,1098,l),
(444,916,l),
(557,1054,o),
(681,1123,o),
(817,1123,cs),
(1016,1123,o),
(1116,1007,o),
(1116,776,cs),
(1116,0,l),
(820,0,l),
(820,703,ls),
(820,845,o),
(792,890,o),
(701,890,cs),
(621,890,o),
(535,832,o),
(444,716,c),
(444,0,l)
);
}
);
width = 1251;
},
{
layerId = "F7275F4E-BE84-4E16-A55D-D0D293F4C807";
shapes = (
{
closed = 1;
nodes = (
(154,0,l),
(154,1086,l),
(351,1086,l),
(351,882,l),
(455,1034,o),
(578,1110,o),
(718,1110,cs),
(904,1110,o),
(997,1000,o),
(997,780,cs),
(997,0,l),
(799,0,l),
(799,716,ls),
(799,890,o),
(769,941,o),
(668,941,cs),
(556,941,o),
(451,861,o),
(351,703,c),
(351,0,l)
);
}
);
width = 1139;
},
{
layerId = "5B74239F-5503-441B-9A3C-1744D3E8E825";
shapes = (
{
closed = 1;
nodes = (
(156,0,l),
(156,1082,l),
(320,1082,l),
(320,871,l),
(421,1027,o),
(544,1106,o),
(685,1106,cs),
(867,1106,o),
(957,998,o),
(957,781,cs),
(957,0,l),
(792,0,l),
(792,720,ls),
(792,905,o),
(761,958,o),
(657,958,cs),
(534,958,o),
(423,871,o),
(320,699,c),
(320,0,l)
);
}
);
width = 1102;
},
{
layerId = "FCCE09BD-6896-404A-801B-05958BD13330";
shapes = (
{
closed = 1;
nodes = (
(146,0,l),
(146,1102,l),
(475,1102,l),
(475,927,l),
(591,1061,o),
(715,1127,o),
(850,1127,cs),
(1053,1127,o),
(1156,1009,o),
(1156,775,cs),
(1156,0,l),
(827,0,l),
(827,699,ls),
(827,830,o),
(800,873,o),
(712,873,cs),
(643,873,o),
(563,822,o),
(475,720,c),
(475,0,l)
);
}
);
width = 1288;
}
);
unicode = 110;
},
{
glyphname = o;
layers = (
{
layerId = "B4DBF483-61C5-4288-8615-E64CC28AC39C";
shapes = (
{
closed = 1;
nodes = (
(293,-25,o),
(74,203,o),
(74,549,cs),
(74,894,o),
(288,1123,o),
(625,1123,cs),
(959,1123,o),
(1177,895,o),
(1177,551,cs),
(1177,210,o),
(974,-25,o),
(619,-25,cs)
);
},
{
closed = 1;
nodes = (
(820,160,o),
(863,399,o),
(863,551,cs),
(863,780,o),
(773,938,o),
(625,938,cs),
(480,938,o),
(388,785,o),
(388,549,cs),
(388,317,o),
(479,160,o),
(623,160,cs)
);
}
);
width = 1251;
},
{
layerId = "F7275F4E-BE84-4E16-A55D-D0D293F4C807";
shapes = (
{
closed = 1;
nodes = (
(271,-25,o),
(86,195,o),
(86,543,cs),
(86,890,o),
(268,1110,o),
(569,1110,cs),
(864,1110,o),
(1052,893,o),
(1052,545,cs),
(1052,186,o),
(866,-25,o),
(562,-25,cs)
);
},
{
closed = 1;
nodes = (
(747,123,o),
(839,264,o),
(839,548,cs),
(839,825,o),
(749,962,o),
(569,962,cs),
(388,962,o),
(299,822,o),
(299,543,cs),
(299,265,o),
(385,123,o),
(565,123,c)
);
}
);
width = 1139;
},
{
layerId = "5B74239F-5503-441B-9A3C-1744D3E8E825";
shapes = (
{
closed = 1;
nodes = (
(264,-25,o),
(90,192,o),
(90,541,cs),
(90,889,o),
(261,1106,o),
(550,1106,cs),
(832,1106,o),
(1010,892,o),
(1010,543,cs),
(1010,178,o),
(830,-25,o),
(543,-25,cs)
);
},
{
closed = 1;
nodes = (
(723,111,o),
(831,219,o),
(831,547,cs),
(831,840,o),
(741,970,o),
(550,970,cs),
(357,970,o),
(269,834,o),
(269,541,cs),
(269,248,o),
(354,111,o),
(546,111,cs)
);
}
);
width = 1102;
},
{
layerId = "FCCE09BD-6896-404A-801B-05958BD13330";
shapes = (
{
closed = 1;
nodes = (
(300,-25,o),
(70,206,o),
(70,551,cs),
(70,895,o),
(295,1127,o),
(644,1127,cs),
(991,1127,o),
(1219,896,o),
(1219,553,cs),
(1219,218,o),
(1010,-25,o),
(638,-25,cs)
);
},
{
closed = 1;
nodes = (
(844,172,o),
(871,444,o),
(871,552,cs),
(871,765,o),
(781,930,o),
(644,930,cs),
(511,930,o),
(418,773,o),
(418,551,cs),
(418,334,o),
(510,172,o),
(642,172,cs)
);
}
);
width = 1288;
}
);
unicode = 111;
},
{
glyphname = p;
layers = (
{
layerId = "B4DBF483-61C5-4288-8615-E64CC28AC39C";
shapes = (
{
closed = 1;
nodes = (
(444,-395,l),
(148,-395,l),
(148,1098,l),
(444,1098,l),
(444,916,l),
(549,1053,o),
(663,1123,o),
(789,1123,cs),
(1019,1123,o),
(1172,901,o),
(1172,579,cs),
(1172,204,o),
(980,-25,o),
(656,-25,cs),
(602,-25,o),
(531,-17,o),
(444,0,c)
);
},
{
closed = 1;
nodes = (
(444,176,l),
(519,163,o),
(574,157,o),
(611,157,cs),
(775,157,o),
(857,284,o),
(857,538,cs),
(857,771,o),
(798,891,o),
(678,891,cs),
(598,891,o),
(520,833,o),
(444,716,c)
);
}
);
width = 1251;
},
{
layerId = "F7275F4E-BE84-4E16-A55D-D0D293F4C807";
shapes = (
{
closed = 1;
nodes = (
(351,-395,l),
(154,-395,l),
(154,1086,l),
(351,1086,l),
(351,882,l),
(429,1034,o),
(537,1110,o),
(675,1110,cs),
(901,1110,o),
(1052,893,o),
(1052,574,cs),
(1052,192,o),
(865,-25,o),
(540,-25,cs),
(476,-25,o),
(413,-16,o),
(351,0,c)
);
},
{
closed = 1;
nodes = (
(351,149,l),
(441,131,o),
(510,123,o),
(556,123,cs),
(744,123,o),
(839,267,o),
(839,556,cs),
(839,789,o),
(759,938,o),
(632,938,cs),
(545,938,o),
(453,859,o),
(351,703,c)
);
}
);
width = 1139;
},
{
layerId = "5B74239F-5503-441B-9A3C-1744D3E8E825";
shapes = (
{
closed = 1;
nodes = (
(320,-395,l),
(156,-395,l),
(156,1082,l),
(320,1082,l),
(320,871,l),
(389,1028,o),
(495,1106,o),
(637,1106,cs),
(862,1106,o),
(1012,890,o),
(1012,572,cs),
(1012,188,o),
(827,-25,o),
(501,-25,cs),
(434,-25,o),
(374,-16,o),
(320,0,c)
);
},
{
closed = 1;
nodes = (
(320,140,l),
(415,120,o),
(489,112,o),
(538,112,cs),
(734,112,o),
(833,261,o),
(833,562,cs),
(833,795,o),
(746,954,o),
(617,954,cs),
(527,954,o),
(431,868,o),
(320,699,c)
);
}
);
width = 1102;
},
{
layerId = "FCCE09BD-6896-404A-801B-05958BD13330";
shapes = (
{
closed = 1;
nodes = (
(475,-395,l),
(146,-395,l),
(146,1102,l),
(475,1102,l),
(475,927,l),
(589,1059,o),
(705,1127,o),
(827,1127,cs),
(1058,1127,o),
(1212,904,o),
(1212,581,cs),
(1212,208,o),
(1018,-25,o),
(695,-25,cs),
(644,-25,o),
(570,-17,o),
(475,0,c)
);
},
{
closed = 1;
nodes = (
(475,185,l),
(545,174,o),
(595,168,o),
(629,168,cs),
(785,168,o),
(863,290,o),
(863,532,cs),
(863,765,o),
(811,875,o),
(693,875,cs),
(616,875,o),
(542,824,o),
(475,720,c)
);
}
);
width = 1288;
}
);
unicode = 112;
},
{
glyphname = q;
layers = (
{
layerId = "B4DBF483-61C5-4288-8615-E64CC28AC39C";
shapes = (
{
closed = 1;
nodes = (
(1103,1098,l),
(1103,-395,l),
(807,-395,l),
(807,182,l),
(704,45,o),
(589,-25,o),
(463,-25,cs),
(236,-25,o),
(80,190,o),
(80,519,cs),
(80,844,o),
(223,1065,o),
(481,1113,cs),
(517,1120,o),
(555,1123,o),
(596,1123,cs),
(650,1123,o),
(720,1115,o),
(807,1098,c)
);
},
{
closed = 1;
nodes = (
(807,922,l),
(733,935,o),
(678,941,o),
(641,941,cs),
(477,941,o),
(395,814,o),
(395,560,cs),
(395,327,o),
(454,207,o),
(574,207,cs),
(655,207,o),
(731,265,o),
(807,382,c)
);
}
);
width = 1251;
},
{
layerId = "F7275F4E-BE84-4E16-A55D-D0D293F4C807";
shapes = (
{
closed = 1;
nodes = (
(984,1086,l),
(984,-395,l),
(787,-395,l),
(787,203,l),
(708,51,o),
(600,-25,o),
(463,-25,cs),
(235,-25,o),
(86,191,o),
(86,512,cs),
(86,891,o),
(269,1110,o),
(598,1110,cs),
(659,1110,o),
(722,1102,o),
(787,1086,c),
(724,1102,o),
(756,1094,o),
(787,1086,c)
);
},
{
closed = 1;
nodes = (
(787,937,l),
(696,953,o),
(628,962,o),
(583,962,cs),
(393,962,o),
(299,817,o),
(299,529,cs),
(299,295,o),
(377,148,o),
(506,148,cs),
(592,148,o),
(685,226,o),
(787,382,c)
);
}
);
width = 1139;
},
{
layerId = "5B74239F-5503-441B-9A3C-1744D3E8E825";
shapes = (
{
closed = 1;
nodes = (
(944,1082,l),
(944,-395,l),
(780,-395,l),
(780,210,l),
(709,53,o),
(604,-25,o),
(463,-25,cs),
(235,-25,o),
(88,191,o),
(88,510,cs),
(88,907,o),
(284,1125,o),
(637,1109,c),
(706,1107,o),
(778,1095,o),
(851,1074,c),
(749,1095,o),
(768,1087,o),
(780,1082,c)
);
},
{
closed = 1;
nodes = (
(780,942,l),
(684,959,o),
(611,969,o),
(564,969,cs),
(365,969,o),
(267,818,o),
(267,519,cs),
(267,284,o),
(351,128,o),
(483,128,cs),
(571,128,o),
(670,213,o),
(780,382,c)
);
}
);
width = 1102;
},
{
layerId = "FCCE09BD-6896-404A-801B-05958BD13330";
shapes = (
{
closed = 1;
nodes = (
(1143,1102,l),
(1143,-395,l),
(814,-395,l),
(814,175,l),
(703,43,o),
(585,-25,o),
(463,-25,cs),
(236,-25,o),
(78,190,o),
(78,521,cs),
(78,828,o),
(208,1050,o),
(442,1114,c),
(470,1123,o),
(499,1130,o),
(532,1135,c),
(625,1130,o),
(708,1122,o),
(814,1102,c)
);
},
{
closed = 1;
nodes = (
(814,917,l),
(745,929,o),
(695,934,o),
(660,934,cs),
(505,934,o),
(427,813,o),
(427,570,cs),
(427,338,o),
(480,227,o),
(597,227,cs),
(676,227,o),
(746,278,o),
(814,382,c)
);
}
);
width = 1288;
}
);
unicode = 113;
},
{
glyphname = r;
layers = (
{
layerId = "B4DBF483-61C5-4288-8615-E64CC28AC39C";
shapes = (
{
closed = 1;
nodes = (
(173,0,l),
(173,1098,l),
(469,1098,l),
(469,916,l),
(524,1054,o),
(606,1123,o),
(715,1123,cs),
(730,1123,o),
(747,1121,o),
(765,1117,c),
(765,853,l),
(728,868,o),
(696,876,o),
(671,876,cs),
(592,876,o),
(524,825,o),
(469,722,c),
(469,0,l)
);
}
);
width = 797;
},
{
layerId = "F7275F4E-BE84-4E16-A55D-D0D293F4C807";
shapes = (
{
closed = 1;
nodes = (
(154,0,l),
(154,1086,l),
(351,1086,l),
(351,882,l),
(411,1034,o),
(497,1110,o),
(611,1110,cs),
(626,1110,o),
(645,1108,o),
(668,1105,c),
(668,921,l),
(634,932,o),
(606,938,o),
(585,938,cs),
(509,938,o),
(431,864,o),
(351,716,c),
(351,0,l)
);
}
);
width = 682;
},
{
layerId = "5B74239F-5503-441B-9A3C-1744D3E8E825";
shapes = (
{
closed = 1;
nodes = (
(148,0,l),
(148,1082,l),
(312,1082,l),
(312,871,l),
(373,1027,o),
(461,1106,o),
(576,1106,cs),
(591,1106,o),
(611,1104,o),
(636,1101,c),
(636,944,l),
(603,953,o),
(576,959,o),
(556,959,cs),
(481,959,o),
(400,877,o),
(312,714,c),
(312,0,l)
);
}
);
width = 644;
},
{
layerId = "FCCE09BD-6896-404A-801B-05958BD13330";
shapes = (
{
closed = 1;
nodes = (
(179,0,l),
(179,1102,l),
(508,1102,l),
(508,927,l),
(562,1061,o),
(642,1127,o),
(750,1127,cs),
(765,1127,o),
(781,1125,o),
(797,1121,c),
(797,830,l),
(759,847,o),
(726,855,o),
(700,855,cs),
(620,855,o),
(555,812,o),
(508,724,c),
(508,0,l)
);
}
);
width = 835;
}
);
unicode = 114;
},
{
glyphname = s;
layers = (
{
layerId = "B4DBF483-61C5-4288-8615-E64CC28AC39C";
shapes = (
{
closed = 1;
nodes = (
(123,252,l),
(276,191,o),
(405,160,o),
(510,160,cs),
(657,160,o),
(731,200,o),
(731,280,cs),
(731,331,o),
(670,377,o),
(556,424,cs),
(456,464,ls),
(181,574,o),
(128,625,o),
(128,791,cs),
(128,1012,o),
(282,1123,o),
(591,1123,cs),
(696,1123,o),
(816,1110,o),
(949,1084,c),
(949,881,l),
(802,919,o),
(695,938,o),
(627,938,cs),
(489,938,o),
(420,901,o),
(420,826,cs),
(420,780,o),
(476,736,o),
(581,697,cs),
(667,664,l),
(965,552,o),
(1036,481,o),
(1036,316,cs),
(1036,108,o),
(838,-25,o),
(529,-25,cs),
(394,-25,o),
(256,-6,o),
(123,36,c)
);
}
);
width = 1139;
},
{
layerId = "F7275F4E-BE84-4E16-A55D-D0D293F4C807";
shapes = (
{
closed = 1;
nodes = (
(116,219,l),
(245,155,o),
(367,123,o),
(481,123,cs),
(633,123,o),
(710,178,o),
(710,288,cs),
(710,356,o),
(657,410,o),
(551,445,cs),
(375,503,ls),
(205,559,o),
(122,660,o),
(122,805,cs),
(122,1008,o),
(261,1110,o),
(539,1110,cs),
(619,1110,o),
(714,1099,o),
(825,1078,c),
(825,913,l),
(728,945,o),
(626,962,o),
(518,962,cs),
(384,962,o),
(317,916,o),
(317,824,cs),
(317,761,o),
(364,713,o),
(458,683,cs),
(615,632,l),
(809,566,o),
(908,459,o),
(908,304,cs),
(908,97,o),
(738,-25,o),
(474,-25,cs),
(365,-25,o),
(246,-4,o),
(116,38,c)
);
}
);
width = 1024;
},
{
layerId = "5B74239F-5503-441B-9A3C-1744D3E8E825";
shapes = (
{
closed = 1;
nodes = (
(114,208,l),
(235,143,o),
(354,111,o),
(471,111,cs),
(625,111,o),
(703,171,o),
(703,291,cs),
(703,364,o),
(653,421,o),
(549,452,c),
(348,516,l),
(213,554,o),
(120,672,o),
(120,810,cs),
(120,1007,o),
(254,1106,o),
(522,1106,cs),
(593,1106,o),
(680,1095,o),
(784,1076,c),
(784,924,l),
(703,954,o),
(603,970,o),
(482,970,cs),
(349,970,o),
(283,921,o),
(283,823,cs),
(283,755,o),
(327,705,o),
(417,678,c),
(598,621,ls),
(757,571,o),
(865,452,o),
(865,300,cs),
(865,93,o),
(705,-25,o),
(456,-25,cs),
(355,-25,o),
(243,-3,o),
(114,39,c)
);
}
);
width = 986;
},
{
layerId = "FCCE09BD-6896-404A-801B-05958BD13330";
shapes = (
{
closed = 1;
nodes = (
(125,263,l),
(286,203,o),
(418,172,o),
(520,172,cs),
(665,172,o),
(738,207,o),
(738,277,cs),
(738,323,o),
(674,366,o),
(558,417,c),
(483,451,l),
(173,579,o),
(130,613,o),
(130,786,cs),
(130,1013,o),
(289,1127,o),
(608,1127,cs),
(722,1127,o),
(850,1114,o),
(990,1086,c),
(990,870,l),
(827,910,o),
(718,930,o),
(663,930,cs),
(524,930,o),
(454,896,o),
(454,827,cs),
(454,786,o),
(513,744,o),
(622,702,c),
(684,675,l),
(1017,547,o),
(1079,488,o),
(1079,320,cs),
(1079,112,o),
(871,-25,o),
(547,-25,cs),
(404,-25,o),
(259,-7,o),
(125,35,c)
);
}
);
width = 1177;
}
);
unicode = 115;
},
{
glyphname = t;
layers = (
{
layerId = "B4DBF483-61C5-4288-8615-E64CC28AC39C";
shapes = (
{
closed = 1;
nodes = (
(665,1,l),
(589,-16,o),
(526,-25,o),
(475,-25,cs),
(266,-25,o),
(162,95,o),
(162,335,cs),
(162,913,l),
(42,913,l),
(42,1098,l),
(162,1098,l),
(162,1313,l),
(458,1347,l),
(458,1098,l),
(668,1098,l),
(668,913,l),
(458,913,l),
(458,374,ls),
(458,209,o),
(476,173,o),
(566,173,cs),
(593,173,o),
(626,177,o),
(665,186,c)
);
}
);
width = 682;
},
{
layerId = "F7275F4E-BE84-4E16-A55D-D0D293F4C807";
shapes = (
{
closed = 1;
nodes = (
(530,-6,l),
(491,-18,o),
(454,-25,o),
(420,-25,cs),
(241,-25,o),
(152,83,o),
(152,300,cs),
(152,938,l),
(25,938,l),
(25,1086,l),
(152,1086,l),
(152,1313,l),
(349,1332,l),
(349,1086,l),
(589,1086,l),
(589,938,l),
(349,938,l),
(349,336,ls),
(349,160,o),
(369,123,o),
(462,123,cs),
(489,123,o),
(512,126,o),
(530,134,c)
);
}
);
width = 579;
},
{
layerId = "5B74239F-5503-441B-9A3C-1744D3E8E825";
shapes = (
{
closed = 1;
nodes = (
(485,-8,l),
(458,-19,o),
(430,-25,o),
(402,-25,cs),
(233,-25,o),
(149,79,o),
(149,288,cs),
(149,946,l),
(19,946,l),
(19,1082,l),
(149,1082,l),
(149,1313,l),
(313,1327,l),
(313,1082,l),
(563,1082,l),
(563,946,l),
(313,946,l),
(313,323,ls),
(313,144,o),
(333,106,o),
(427,106,cs),
(454,106,o),
(474,109,o),
(485,117,c)
);
}
);
width = 545;
},
{
layerId = "FCCE09BD-6896-404A-801B-05958BD13330";
shapes = (
{
closed = 1;
nodes = (
(710,3,l),
(622,-15,o),
(550,-25,o),
(493,-25,cs),
(274,-25,o),
(165,99,o),
(165,347,cs),
(165,905,l),
(48,905,l),
(48,1102,l),
(165,1102,l),
(165,1313,l),
(494,1352,l),
(494,1102,l),
(694,1102,l),
(694,905,l),
(494,905,l),
(494,387,ls),
(494,225,o),
(512,190,o),
(601,190,cs),
(628,190,o),
(664,194,o),
(710,203,c)
);
}
);
width = 716;
}
);
unicode = 116;
},
{
glyphname = u;
layers = (
{
layerId = "B4DBF483-61C5-4288-8615-E64CC28AC39C";
shapes = (
{
closed = 1;
nodes = (
(808,0,l),
(808,182,l),
(695,44,o),
(571,-25,o),
(434,-25,cs),
(235,-25,o),
(136,91,o),
(136,322,cs),
(136,1098,l),
(432,1098,l),
(432,395,ls),
(432,253,o),
(458,208,o),
(551,208,cs),
(630,208,o),
(716,266,o),
(808,382,c),
(808,1098,l),
(1104,1098,l),
(1104,0,l)
);
}
);
width = 1251;
},
{
layerId = "F7275F4E-BE84-4E16-A55D-D0D293F4C807";
shapes = (
{
closed = 1;
nodes = (
(787,0,l),
(787,203,l),
(683,51,o),
(560,-25,o),
(420,-25,cs),
(234,-25,o),
(142,85,o),
(142,306,cs),
(142,1086,l),
(339,1086,l),
(339,370,ls),
(339,190,o),
(368,145,o),
(471,145,cs),
(582,145,o),
(687,224,o),
(787,382,c),
(787,1086,l),
(984,1086,l),
(984,0,l)
);
}
);
width = 1139;
},
{
layerId = "5B74239F-5503-441B-9A3C-1744D3E8E825";
shapes = (
{
closed = 1;
nodes = (
(780,0,l),
(780,210,l),
(679,53,o),
(556,-25,o),
(415,-25,cs),
(234,-25,o),
(144,83,o),
(144,301,cs),
(144,1082,l),
(308,1082,l),
(308,362,ls),
(308,169,o),
(338,124,o),
(444,124,cs),
(566,124,o),
(677,210,o),
(780,382,c),
(780,1082,l),
(944,1082,l),
(944,0,l)
);
}
);
width = 1102;
},
{
layerId = "FCCE09BD-6896-404A-801B-05958BD13330";
shapes = (
{
closed = 1;
nodes = (
(815,0,l),
(815,175,l),
(699,42,o),
(575,-25,o),
(439,-25,cs),
(235,-25,o),
(134,93,o),
(134,327,cs),
(134,1102,l),
(463,1102,l),
(463,403,ls),
(463,274,o),
(488,229,o),
(578,229,cs),
(646,229,o),
(726,280,o),
(815,382,c),
(815,1102,l),
(1144,1102,l),
(1144,0,l)
);
}
);
width = 1288;
}
);
unicode = 117;
},
{
glyphname = v;
layers = (
{
layerId = "B4DBF483-61C5-4288-8615-E64CC28AC39C";
shapes = (
{
closed = 1;
nodes = (
(419,0,l),
(25,1098,l),
(337,1098,l),
(614,325,l),
(893,1098,l),
(1113,1098,l),
(715,0,l)
);
}
);
width = 1139;
},
{
layerId = "F7275F4E-BE84-4E16-A55D-D0D293F4C807";
shapes = (
{
closed = 1;
nodes = (
(404,0,l),
(19,1086,l),
(218,1086,l),
(519,241,l),
(837,1086,l),
(1012,1086,l),
(601,0,l)
);
}
);
width = 1024;
},
{
layerId = "5B74239F-5503-441B-9A3C-1744D3E8E825";
shapes = (
{
closed = 1;
nodes = (
(399,0,l),
(17,1082,l),
(178,1082,l),
(487,213,l),
(818,1082,l),
(978,1082,l),
(563,0,l)
);
}
);
width = 986;
},
{
layerId = "FCCE09BD-6896-404A-801B-05958BD13330";
shapes = (
{
closed = 1;
nodes = (
(424,0,l),
(27,1102,l),
(377,1102,l),
(646,353,l),
(912,1102,l),
(1147,1102,l),
(753,0,l)
);
}
);
width = 1177;
}
);
unicode = 118;
},
{
glyphname = w;
layers = (
{
layerId = "B4DBF483-61C5-4288-8615-E64CC28AC39C";
shapes = (
{
closed = 1;
nodes = (
(328,0,l),
(62,1098,l),
(329,1098,l),
(514,329,l),
(707,1098,l),
(963,1098,l),
(1133,325,l),
(1333,1098,l),
(1532,1098,l),
(1246,0,l),
(963,0,l),
(799,753,l),
(612,0,l)
);
}
);
width = 1593;
},
{
layerId = "F7275F4E-BE84-4E16-A55D-D0D293F4C807";
shapes = (
{
closed = 1;
nodes = (
(273,0,l),
(11,1086,l),
(204,1086,l),
(400,268,l),
(650,1086,l),
(847,1086,l),
(1067,265,l),
(1295,1086,l),
(1465,1086,l),
(1160,0,l),
(962,0,l),
(732,841,l),
(472,0,l)
);
}
);
width = 1479;
},
{
layerId = "5B74239F-5503-441B-9A3C-1744D3E8E825";
shapes = (
{
closed = 1;
nodes = (
(255,0,l),
(-6,1082,l),
(162,1082,l),
(362,248,l),
(631,1082,l),
(808,1082,l),
(1045,245,l),
(1282,1082,l),
(1443,1082,l),
(1131,0,l),
(962,0,l),
(710,870,l),
(425,0,l)
);
}
);
width = 1441;
},
{
layerId = "FCCE09BD-6896-404A-801B-05958BD13330";
shapes = (
{
closed = 1;
nodes = (
(346,0,l),
(79,1102,l),
(371,1102,l),
(552,349,l),
(726,1102,l),
(1002,1102,l),
(1155,345,l),
(1346,1102,l),
(1554,1102,l),
(1275,0,l),
(963,0,l),
(821,724,l),
(659,0,l)
);
}
);
width = 1631;
}
);
unicode = 119;
},
{
glyphname = x;
layers = (
{
layerId = "B4DBF483-61C5-4288-8615-E64CC28AC39C";
shapes = (
{
closed = 1;
nodes = (
(48,0,l),
(406,551,l),
(64,1098,l),
(401,1098,l),
(618,750,l),
(825,1098,l),
(1065,1098,l),
(740,558,l),
(1090,0,l),
(753,0,l),
(526,363,l),
(293,0,l)
);
}
);
width = 1139;
},
{
layerId = "F7275F4E-BE84-4E16-A55D-D0D293F4C807";
shapes = (
{
closed = 1;
nodes = (
(28,0,l),
(381,574,l),
(40,1086,l),
(268,1086,l),
(540,679,l),
(784,1086,l),
(966,1086,l),
(634,539,l),
(993,0,l),
(766,0,l),
(472,436,l),
(210,0,l)
);
}
);
width = 1024;
},
{
layerId = "5B74239F-5503-441B-9A3C-1744D3E8E825";
shapes = (
{
closed = 1;
nodes = (
(21,0,l),
(373,582,l),
(32,1082,l),
(224,1082,l),
(514,655,l),
(770,1082,l),
(933,1082,l),
(599,533,l),
(961,0,l),
(770,0,l),
(454,460,l),
(182,0,l)
);
}
);
width = 986;
},
{
layerId = "FCCE09BD-6896-404A-801B-05958BD13330";
shapes = (
{
closed = 1;
nodes = (
(55,0,l),
(414,543,l),
(72,1102,l),
(445,1102,l),
(644,774,l),
(839,1102,l),
(1098,1102,l),
(775,564,l),
(1122,0,l),
(749,0,l),
(544,339,l),
(321,0,l)
);
}
);
width = 1177;
}
);
unicode = 120;
},
{
glyphname = y;
layers = (
{
layerId = "B4DBF483-61C5-4288-8615-E64CC28AC39C";
shapes = (
{
closed = 1;
nodes = (
(419,0,l),
(25,1098,l),
(337,1098,l),
(591,388,l),
(893,1098,l),
(1113,1098,l),
(473,-395,l),
(171,-395,l)
);
}
);
width = 1139;
},
{
layerId = "F7275F4E-BE84-4E16-A55D-D0D293F4C807";
shapes = (
{
closed = 1;
nodes = (
(404,0,l),
(19,1086,l),
(219,1086,l),
(514,253,l),
(838,1086,l),
(1012,1086,l),
(438,-395,l),
(233,-395,l)
);
}
);
width = 1024;
},
{
layerId = "5B74239F-5503-441B-9A3C-1744D3E8E825";
shapes = (
{
closed = 1;
nodes = (
(399,0,l),
(17,1082,l),
(180,1082,l),
(488,208,l),
(820,1082,l),
(978,1082,l),
(426,-395,l),
(254,-395,l)
);
}
);
width = 986;
},
{
layerId = "FCCE09BD-6896-404A-801B-05958BD13330";
shapes = (
{
closed = 1;
nodes = (
(424,0,l),
(27,1102,l),
(376,1102,l),
(617,433,l),
(911,1102,l),
(1147,1102,l),
(485,-395,l),
(150,-395,l)
);
}
);
width = 1177;
}
);
unicode = 121;
},
{
glyphname = z;
layers = (
{
layerId = "B4DBF483-61C5-4288-8615-E64CC28AC39C";
shapes = (
{
closed = 1;
nodes = (
(111,0,l),
(111,197,l),
(582,913,l),
(139,913,l),
(139,1098,l),
(913,1098,l),
(913,913,l),
(442,197,l),
(925,197,l),
(925,0,l)
);
}
);
width = 1024;
},
{
layerId = "F7275F4E-BE84-4E16-A55D-D0D293F4C807";
shapes = (
{
closed = 1;
nodes = (
(74,0,l),
(74,148,l),
(695,938,l),
(105,938,l),
(105,1086,l),
(938,1086,l),
(938,938,l),
(317,148,l),
(950,148,l),
(950,0,l)
);
}
);
width = 1024;
},
{
layerId = "5B74239F-5503-441B-9A3C-1744D3E8E825";
shapes = (
{
closed = 1;
nodes = (
(62,0,l),
(62,132,l),
(733,946,l),
(94,946,l),
(94,1082,l),
(946,1082,l),
(946,946,l),
(275,132,l),
(958,132,l),
(958,0,l)
);
}
);
width = 1024;
},
{
layerId = "FCCE09BD-6896-404A-801B-05958BD13330";
shapes = (
{
closed = 1;
nodes = (
(123,0,l),
(123,213,l),
(544,905,l),
(150,905,l),
(150,1102,l),
(905,1102,l),
(905,905,l),
(484,213,l),
(917,213,l),
(917,0,l)
);
}
);
width = 1024;
}
);
unicode = 122;
},
{
glyphname = braceleft;
layers = (
{
layerId = "B4DBF483-61C5-4288-8615-E64CC28AC39C";
shapes = (
{
closed = 1;
nodes = (
(99,740,l),
(161,740,ls),
(253,740,o),
(299,784,o),
(299,871,cs),
(299,916,o),
(292,966,o),
(280,1013,cs),
(265,1074,l),
(244,1143,o),
(235,1212,o),
(235,1276,cs),
(235,1480,o),
(384,1579,o),
(673,1579,c),
(673,1406,l),
(594,1406,o),
(540,1389,o),
(510,1356,cs),
(492,1336,o),
(483,1310,o),
(483,1278,c),
(483,1257,o),
(487,1228,o),
(493,1188,cs),
(503,1131,l),
(514,1077,o),
(519,1020,o),
(519,961,cs),
(519,825,o),
(453,719,o),
(322,642,c),
(452,566,o),
(519,458,o),
(519,322,cs),
(519,273,o),
(515,226,o),
(508,180,cs),
(493,95,ls),
(486,54,o),
(483,24,o),
(483,5,cs),
(483,-60,o),
(519,-99,o),
(590,-115,cs),
(614,-120,o),
(641,-123,o),
(673,-123,c),
(673,-296,l),
(383,-296,o),
(235,-196,o),
(235,7,c),
(235,62,o),
(242,119,o),
(257,178,cs),
(280,270,ls),
(293,319,o),
(299,366,o),
(299,413,cs),
(299,501,o),
(254,543,o),
(161,543,cs),
(99,543,l)
);
}
);
width = 797;
},
{
layerId = "F7275F4E-BE84-4E16-A55D-D0D293F4C807";
shapes = (
{
closed = 1;
nodes = (
(25,716,l),
(86,716,ls),
(188,716,o),
(239,769,o),
(239,877,cs),
(239,922,o),
(233,969,o),
(223,1017,cs),
(204,1104,ls),
(191,1161,o),
(185,1217,o),
(185,1271,cs),
(185,1455,o),
(338,1579,o),
(568,1579,c),
(568,1431,l),
(491,1431,o),
(445,1430,o),
(402,1395,cs),
(372,1371,o),
(357,1342,o),
(357,1306,c),
(356,1291,o),
(362,1260,o),
(370,1212,cs),
(387,1110,ls),
(394,1066,o),
(398,1014,o),
(398,955,cs),
(398,829,o),
(349,724,o),
(251,642,c),
(349,558,o),
(398,454,o),
(398,328,cs),
(398,268,o),
(394,217,o),
(387,173,cs),
(370,71,ls),
(362,22,o),
(357,-8,o),
(357,-24,cs),
(357,-94,o),
(426,-148,o),
(515,-148,cs),
(533,-148,o),
(550,-148,o),
(568,-148,c),
(568,-296,l),
(337,-296,o),
(185,-170,o),
(185,13,c),
(184,67,o),
(191,122,o),
(204,179,cs),
(223,266,ls),
(233,314,o),
(239,361,o),
(239,408,cs),
(239,514,o),
(188,568,o),
(86,568,cs),
(25,568,l)
);
}
);
width = 684;
},
{
layerId = "5B74239F-5503-441B-9A3C-1744D3E8E825";
shapes = (
{
closed = 1;
nodes = (
(0,708,l),
(61,708,ls),
(166,708,o),
(219,764,o),
(219,879,cs),
(219,924,o),
(213,970,o),
(204,1018,c),
(184,1114,ls),
(173,1167,o),
(168,1219,o),
(168,1269,cs),
(168,1447,o),
(323,1579,o),
(533,1579,c),
(533,1439,l),
(457,1439,o),
(413,1444,o),
(366,1408,cs),
(332,1383,o),
(315,1353,o),
(315,1315,c),
(314,1302,o),
(320,1271,o),
(329,1220,cs),
(348,1103,l),
(354,1062,o),
(358,1012,o),
(358,953,cs),
(358,830,o),
(314,726,o),
(227,642,c),
(315,555,o),
(358,453,o),
(358,330,cs),
(358,266,o),
(354,214,o),
(347,171,cs),
(329,63,ls),
(321,11,o),
(315,-19,o),
(315,-34,cs),
(315,-105,o),
(395,-164,o),
(490,-159,c),
(506,-157,o),
(520,-156,o),
(533,-156,c),
(533,-296,l),
(322,-296,o),
(168,-161,o),
(168,15,c),
(167,69,o),
(174,123,o),
(186,179,cs),
(204,265,ls),
(213,312,o),
(219,359,o),
(219,406,cs),
(219,518,o),
(166,576,o),
(61,576,cs),
(0,576,l)
);
}
);
width = 646;
},
{
layerId = "FCCE09BD-6896-404A-801B-05958BD13330";
shapes = (
{
closed = 1;
nodes = (
(124,748,l),
(186,748,ls),
(275,748,o),
(319,789,o),
(319,869,cs),
(319,914,o),
(312,965,o),
(299,1012,cs),
(285,1064,l),
(262,1137,o),
(252,1210,o),
(252,1278,cs),
(252,1488,o),
(399,1579,o),
(708,1579,c),
(708,1398,l),
(628,1398,o),
(572,1375,o),
(546,1343,c),
(532,1324,o),
(525,1299,o),
(525,1269,c),
(525,1246,o),
(529,1217,o),
(534,1180,c),
(542,1138,l),
(554,1081,o),
(559,1022,o),
(559,963,cs),
(559,824,o),
(488,717,o),
(346,642,c),
(486,569,o),
(559,459,o),
(559,320,cs),
(559,275,o),
(555,229,o),
(548,182,c),
(534,103,ls),
(527,65,o),
(525,35,o),
(525,15,cs),
(525,-49,o),
(550,-83,o),
(615,-104,c),
(641,-111,o),
(671,-115,o),
(708,-115,c),
(708,-296,l),
(398,-296,o),
(252,-205,o),
(252,5,c),
(252,60,o),
(259,118,o),
(275,178,cs),
(299,271,l),
(313,321,o),
(319,368,o),
(319,415,cs),
(319,497,o),
(276,535,o),
(186,535,cs),
(124,535,l)
);
}
);
width = 835;
}
);
unicode = 123;
},
{
glyphname = bar;
layers = (
{
layerId = "B4DBF483-61C5-4288-8615-E64CC28AC39C";
shapes = (
{
closed = 1;
nodes = (
(177,-296,l),
(177,1579,l),
(397,1579,l),
(397,-296,l)
);
}
);
width = 573;
},
{
layerId = "F7275F4E-BE84-4E16-A55D-D0D293F4C807";
shapes = (
{
closed = 1;
nodes = (
(187,-296,l),
(187,1579,l),
(345,1579,l),
(345,-296,l)
);
}
);
width = 532;
},
{
layerId = "5B74239F-5503-441B-9A3C-1744D3E8E825";
shapes = (
{
closed = 1;
nodes = (
(190,-296,l),
(190,1579,l),
(328,1579,l),
(328,-296,l)
);
}
);
width = 518;
},
{
layerId = "FCCE09BD-6896-404A-801B-05958BD13330";
shapes = (
{
closed = 1;
nodes = (
(174,-296,l),
(174,1579,l),
(414,1579,l),
(414,-296,l)
);
}
);
width = 587;
}
);
unicode = 124;
},
{
glyphname = braceright;
layers = (
{
layerId = "B4DBF483-61C5-4288-8615-E64CC28AC39C";
shapes = (
{
closed = 1;
nodes = (
(697,543,l),
(635,543,ls),
(543,543,o),
(497,499,o),
(497,412,c),
(497,365,o),
(504,316,o),
(516,270,cs),
(531,209,l),
(552,140,o),
(561,71,o),
(561,7,cs),
(561,-197,o),
(412,-296,o),
(123,-296,c),
(123,-123,l),
(202,-123,o),
(256,-106,o),
(286,-73,cs),
(304,-53,o),
(313,-27,o),
(313,5,cs),
(313,26,o),
(309,55,o),
(303,95,cs),
(294,152,l),
(283,207,o),
(277,262,o),
(277,322,cs),
(277,458,o),
(343,565,o),
(474,642,c),
(344,719,o),
(277,826,o),
(277,961,cs),
(277,1010,o),
(281,1057,o),
(289,1103,cs),
(303,1188,ls),
(310,1229,o),
(313,1259,o),
(313,1278,cs),
(313,1343,o),
(277,1382,o),
(206,1398,cs),
(182,1403,o),
(155,1406,o),
(123,1406,c),
(123,1579,l),
(413,1579,o),
(561,1479,o),
(561,1276,c),
(561,1221,o),
(554,1164,o),
(539,1105,cs),
(516,1013,ls),
(503,964,o),
(497,917,o),
(497,870,cs),
(497,782,o),
(542,740,o),
(635,740,cs),
(697,740,l)
);
}
);
width = 797;
},
{
layerId = "F7275F4E-BE84-4E16-A55D-D0D293F4C807";
shapes = (
{
closed = 1;
nodes = (
(659,568,l),
(597,568,ls),
(495,568,o),
(445,514,o),
(445,406,c),
(446,360,o),
(449,314,o),
(460,266,cs),
(480,179,ls),
(493,122,o),
(499,65,o),
(499,12,cs),
(499,-172,o),
(342,-296,o),
(116,-296,c),
(116,-148,l),
(190,-148,o),
(237,-147,o),
(281,-112,cs),
(311,-88,o),
(326,-59,o),
(326,-23,cs),
(326,-8,o),
(322,23,o),
(314,71,cs),
(296,173,ls),
(288,217,o),
(285,269,o),
(285,328,cs),
(285,454,o),
(334,558,o),
(432,642,c),
(334,724,o),
(285,829,o),
(285,955,cs),
(285,1014,o),
(288,1066,o),
(296,1110,cs),
(314,1212,ls),
(322,1260,o),
(326,1292,o),
(326,1308,cs),
(326,1376,o),
(255,1431,o),
(168,1431,cs),
(151,1431,o),
(133,1431,o),
(116,1431,c),
(116,1579,l),
(342,1579,o),
(499,1456,o),
(499,1270,c),
(498,1216,o),
(493,1161,o),
(480,1104,cs),
(460,1017,ls),
(449,969,o),
(445,921,o),
(445,876,cs),
(445,769,o),
(495,716,o),
(597,716,cs),
(659,716,l)
);
}
);
width = 684;
},
{
layerId = "5B74239F-5503-441B-9A3C-1744D3E8E825";
shapes = (
{
closed = 1;
nodes = (
(646,576,l),
(584,576,ls),
(479,576,o),
(428,519,o),
(428,404,c),
(429,358,o),
(431,313,o),
(441,265,cs),
(463,169,l),
(473,116,o),
(478,63,o),
(478,14,cs),
(478,-164,o),
(319,-296,o),
(114,-296,c),
(114,-156,l),
(186,-156,o),
(231,-161,o),
(279,-125,cs),
(313,-100,o),
(330,-70,o),
(330,-32,cs),
(330,-19,o),
(326,12,o),
(318,63,cs),
(297,180,ls),
(290,220,o),
(288,271,o),
(288,330,cs),
(288,453,o),
(331,556,o),
(418,642,c),
(331,726,o),
(288,830,o),
(288,953,cs),
(288,1015,o),
(290,1069,o),
(298,1112,cs),
(318,1220,ls),
(326,1270,o),
(330,1303,o),
(330,1318,cs),
(330,1387,o),
(248,1447,o),
(155,1442,c),
(141,1440,o),
(126,1439,o),
(114,1439,c),
(114,1579,l),
(318,1579,o),
(478,1448,o),
(478,1268,c),
(477,1214,o),
(473,1160,o),
(460,1104,cs),
(441,1018,ls),
(431,971,o),
(428,922,o),
(428,878,cs),
(428,765,o),
(479,708,o),
(584,708,cs),
(646,708,l)
);
}
);
width = 646;
},
{
layerId = "FCCE09BD-6896-404A-801B-05958BD13330";
shapes = (
{
closed = 1;
nodes = (
(710,535,l),
(648,535,ls),
(559,535,o),
(514,494,o),
(514,414,c),
(514,367,o),
(522,317,o),
(535,271,c),
(548,219,l),
(572,146,o),
(582,73,o),
(582,5,cs),
(582,-205,o),
(435,-296,o),
(125,-296,c),
(125,-115,l),
(206,-115,o),
(262,-92,o),
(288,-60,c),
(302,-41,o),
(309,-16,o),
(309,14,cs),
(309,37,o),
(305,66,o),
(299,103,cs),
(293,145,l),
(281,204,o),
(274,260,o),
(274,320,cs),
(274,459,o),
(346,567,o),
(488,642,c),
(347,717,o),
(274,825,o),
(274,963,cs),
(274,1009,o),
(279,1054,o),
(287,1101,cs),
(299,1180,l),
(306,1219,o),
(309,1248,o),
(309,1268,cs),
(309,1332,o),
(284,1366,o),
(219,1387,c),
(192,1394,o),
(162,1398,o),
(125,1398,c),
(125,1579,l),
(437,1579,o),
(582,1487,o),
(582,1278,c),
(582,1223,o),
(574,1165,o),
(559,1105,cs),
(535,1012,l),
(521,962,o),
(514,916,o),
(514,868,cs),
(514,786,o),
(558,748,o),
(648,748,cs),
(710,748,l)
);
}
);
width = 835;
}
);
unicode = 125;
},
{
glyphname = asciitilde;
layers = (
{
layerId = "B4DBF483-61C5-4288-8615-E64CC28AC39C";
shapes = (
{
closed = 1;
nodes = (
(193,444,l),
(80,444,l),
(80,675,o),
(178,791,o),
(373,791,cs),
(453,791,o),
(527,764,o),
(598,713,cs),
(679,654,ls),
(737,610,o),
(800,587,o),
(860,587,cs),
(956,587,o),
(1004,635,o),
(1004,731,cs),
(1004,734,o),
(1003,737,o),
(1003,740,c),
(1116,740,l),
(1116,509,o),
(1018,394,o),
(823,394,cs),
(743,394,o),
(670,420,o),
(598,471,cs),
(517,530,ls),
(456,574,o),
(397,597,o),
(336,597,cs),
(241,597,o),
(193,549,o),
(193,453,c)
);
}
);
width = 1196;
},
{
layerId = "F7275F4E-BE84-4E16-A55D-D0D293F4C807";
shapes = (
{
closed = 1;
nodes = (
(104,444,l),
(104,662,o),
(194,772,o),
(375,772,cs),
(437,772,o),
(502,749,o),
(569,703,cs),
(681,626,ls),
(726,595,o),
(762,560,o),
(824,560,cs),
(877,560,o),
(912,587,o),
(930,640,cs),
(939,667,o),
(943,700,o),
(943,740,c),
(1091,740,l),
(1091,521,o),
(1001,412,o),
(821,412,cs),
(758,412,o),
(693,435,o),
(627,481,cs),
(515,558,ls),
(471,588,o),
(431,624,o),
(372,624,cs),
(292,624,o),
(252,564,o),
(252,444,c)
);
}
);
width = 1196;
},
{
layerId = "5B74239F-5503-441B-9A3C-1744D3E8E825";
shapes = (
{
closed = 1;
nodes = (
(272,444,l),
(112,444,l),
(112,658,o),
(199,766,o),
(376,766,cs),
(432,766,o),
(494,744,o),
(559,700,cs),
(682,617,ls),
(722,590,o),
(749,551,o),
(812,551,cs),
(851,551,o),
(881,571,o),
(905,610,c),
(917,645,o),
(923,688,o),
(923,740,c),
(1083,740,l),
(1083,525,o),
(995,418,o),
(820,418,cs),
(763,418,o),
(701,440,o),
(637,484,cs),
(514,567,ls),
(476,593,o),
(442,633,o),
(384,633,cs),
(309,633,o),
(272,569,o),
(272,441,c)
);
}
);
width = 1196;
},
{
layerId = "FCCE09BD-6896-404A-801B-05958BD13330";
shapes = (
{
closed = 1;
nodes = (
(173,444,l),
(72,444,l),
(72,679,o),
(173,797,o),
(372,797,cs),
(458,797,o),
(535,769,o),
(608,716,cs),
(678,663,ls),
(741,615,o),
(813,596,o),
(872,596,cs),
(982,596,o),
(1035,651,o),
(1029,761,c),
(1026,756,o),
(1023,749,o),
(1023,740,c),
(1124,740,l),
(1124,505,o),
(1024,388,o),
(824,388,cs),
(738,388,o),
(662,415,o),
(588,468,c),
(518,521,l),
(451,569,o),
(386,588,o),
(324,588,cs),
(224,588,o),
(173,544,o),
(173,456,cs)
);
}
);
width = 1196;
}
);
unicode = 126;
},
{
glyphname = exclamdown;
layers = (
{
layerId = "B4DBF483-61C5-4288-8615-E64CC28AC39C";
shapes = (
{
closed = 1;
nodes = (
(479,1098,l),
(479,842,l),
(183,842,l),
(183,1098,l)
);
},
{
closed = 1;
nodes = (
(430,679,l),
(479,-86,l),
(479,-382,l),
(183,-382,l),
(183,-86,l),
(232,679,l)
);
}
);
width = 682;
},
{
layerId = "F7275F4E-BE84-4E16-A55D-D0D293F4C807";
shapes = (
{
closed = 1;
nodes = (
(439,1086,l),
(439,888,l),
(242,888,l),
(242,1086,l)
);
},
{
closed = 1;
nodes = (
(415,691,l),
(439,-99,l),
(439,-395,l),
(242,-395,l),
(242,-99,l),
(267,691,l)
);
}
);
width = 682;
},
{
layerId = "5B74239F-5503-441B-9A3C-1744D3E8E825";
shapes = (
{
closed = 1;
nodes = (
(426,1082,l),
(426,903,l),
(262,903,l),
(262,1082,l)
);
},
{
closed = 1;
nodes = (
(410,695,l),
(426,-103,l),
(426,-399,l),
(262,-399,l),
(262,-103,l),
(279,695,l)
);
}
);
width = 682;
},
{
layerId = "FCCE09BD-6896-404A-801B-05958BD13330";
shapes = (
{
closed = 1;
nodes = (
(492,1102,l),
(492,827,l),
(163,827,l),
(163,1102,l)
);
},
{
closed = 1;
nodes = (
(435,675,l),
(492,-82,l),
(492,-378,l),
(163,-378,l),
(163,-82,l),
(220,675,l)
);
}
);
width = 682;
}
);
unicode = 161;
},
{
glyphname = cent;
layers = (
{
layerId = "B4DBF483-61C5-4288-8615-E64CC28AC39C";
shapes = (
{
closed = 1;
nodes = (
(643,0,l),
(643,176,l),
(337,192,o),
(148,411,o),
(148,753,cs),
(148,1095,o),
(321,1297,o),
(643,1327,c),
(643,1480,l),
(791,1480,l),
(791,1325,l),
(870,1320,o),
(948,1306,o),
(1023,1285,c),
(1023,1069,l),
(939,1108,o),
(862,1129,o),
(791,1134,c),
(791,374,l),
(869,379,o),
(946,398,o),
(1023,429,c),
(1023,228,l),
(947,202,o),
(870,186,o),
(791,180,c),
(791,0,l)
);
},
{
closed = 1;
nodes = (
(643,1131,l),
(502,1087,o),
(432,966,o),
(432,767,cs),
(432,568,o),
(502,443,o),
(643,391,c)
);
}
);
width = 1139;
},
{
layerId = "F7275F4E-BE84-4E16-A55D-D0D293F4C807";
shapes = (
{
closed = 1;
nodes = (
(631,0,l),
(631,173,l),
(361,199,o),
(173,431,o),
(173,738,cs),
(173,1050,o),
(338,1255,o),
(631,1295,c),
(631,1480,l),
(730,1480,l),
(730,1295,l),
(818,1291,o),
(913,1275,o),
(1014,1249,c),
(1014,1083,l),
(896,1123,o),
(801,1146,o),
(730,1153,c),
(730,313,l),
(820,313,o),
(915,335,o),
(1014,380,c),
(1014,231,l),
(914,192,o),
(820,173,o),
(730,173,c),
(730,0,l)
);
},
{
closed = 1;
nodes = (
(631,1144,l),
(469,1129,o),
(389,992,o),
(389,732,cs),
(389,512,o),
(469,376,o),
(631,324,c)
);
}
);
width = 1139;
},
{
layerId = "5B74239F-5503-441B-9A3C-1744D3E8E825";
shapes = (
{
closed = 1;
nodes = (
(627,0,l),
(627,172,l),
(369,201,o),
(181,438,o),
(181,733,cs),
(181,1035,o),
(344,1241,o),
(627,1284,c),
(627,1480,l),
(710,1480,l),
(710,1285,l),
(801,1281,o),
(901,1265,o),
(1011,1237,c),
(1011,1088,l),
(882,1128,o),
(781,1152,o),
(710,1159,c),
(710,293,l),
(804,291,o),
(905,314,o),
(1011,364,c),
(1011,232,l),
(903,189,o),
(803,169,o),
(710,171,c),
(710,0,l)
);
},
{
closed = 1;
nodes = (
(627,1148,l),
(458,1143,o),
(375,1001,o),
(375,720,cs),
(375,493,o),
(458,354,o),
(627,302,c)
);
}
);
width = 1139;
},
{
layerId = "FCCE09BD-6896-404A-801B-05958BD13330";
shapes = (
{
closed = 1;
nodes = (
(647,0,l),
(647,177,l),
(329,190,o),
(140,404,o),
(140,758,cs),
(140,1110,o),
(315,1311,o),
(647,1338,c),
(647,1480,l),
(811,1480,l),
(811,1335,l),
(887,1330,o),
(960,1316,o),
(1026,1297,c),
(1026,1064,l),
(953,1103,o),
(882,1123,o),
(811,1128,c),
(811,394,l),
(885,401,o),
(956,419,o),
(1026,445,c),
(1026,227,l),
(958,205,o),
(887,190,o),
(811,182,c),
(811,0,l)
);
},
{
closed = 1;
nodes = (
(647,1127,l),
(513,1073,o),
(446,957,o),
(446,779,cs),
(446,587,o),
(513,465,o),
(647,413,c)
);
}
);
width = 1139;
}
);
unicode = 162;
},
{
glyphname = sterling;
layers = (
{
layerId = "B4DBF483-61C5-4288-8615-E64CC28AC39C";
shapes = (
{
closed = 1;
nodes = (
(102,0,l),
(102,234,l),
(233,265,o),
(299,359,o),
(299,516,cs),
(299,697,l),
(136,697,l),
(136,882,l),
(299,882,l),
(299,1052,ls),
(299,1359,o),
(445,1517,o),
(748,1517,cs),
(829,1517,o),
(918,1509,o),
(1015,1494,c),
(1015,1291,l),
(936,1318,o),
(859,1332,o),
(784,1332,cs),
(658,1332,o),
(595,1259,o),
(595,1118,cs),
(595,882,l),
(790,882,l),
(790,697,l),
(595,697,l),
(595,397,o),
(533,338,o),
(379,234,c),
(1015,234,l),
(1015,0,l)
);
}
);
width = 1139;
},
{
layerId = "F7275F4E-BE84-4E16-A55D-D0D293F4C807";
shapes = (
{
closed = 1;
nodes = (
(121,0,l),
(121,173,l),
(261,217,o),
(331,323,o),
(331,489,cs),
(331,716,l),
(152,716,l),
(152,864,l),
(331,864,l),
(331,1079,ls),
(331,1361,o),
(468,1517,o),
(724,1517,cs),
(794,1517,o),
(869,1507,o),
(951,1487,c),
(951,1320,l),
(869,1352,o),
(789,1369,o),
(712,1369,cs),
(589,1369,o),
(528,1292,o),
(528,1139,cs),
(528,864,l),
(744,864,l),
(744,716,l),
(528,716,l),
(528,445,o),
(532,321,o),
(355,173,c),
(966,173,l),
(966,0,l)
);
}
);
width = 1139;
},
{
layerId = "5B74239F-5503-441B-9A3C-1744D3E8E825";
shapes = (
{
closed = 1;
nodes = (
(127,0,l),
(127,153,l),
(270,201,o),
(342,311,o),
(342,480,cs),
(342,722,l),
(157,722,l),
(157,858,l),
(342,858,l),
(342,1088,ls),
(342,1362,o),
(476,1517,o),
(716,1517,cs),
(782,1517,o),
(853,1506,o),
(930,1485,c),
(930,1330,l),
(847,1363,o),
(766,1381,o),
(688,1381,cs),
(566,1381,o),
(506,1303,o),
(506,1146,cs),
(506,858,l),
(729,858,l),
(729,722,l),
(506,722,l),
(506,461,o),
(532,315,o),
(347,153,c),
(950,153,l),
(950,0,l)
);
}
);
width = 1139;
},
{
layerId = "FCCE09BD-6896-404A-801B-05958BD13330";
shapes = (
{
closed = 1;
nodes = (
(96,0,l),
(96,254,l),
(224,281,o),
(288,371,o),
(288,525,cs),
(288,691,l),
(131,691,l),
(131,888,l),
(288,888,l),
(288,1043,ls),
(288,1358,o),
(437,1517,o),
(756,1517,cs),
(841,1517,o),
(934,1510,o),
(1036,1496,c),
(1036,1281,l),
(958,1307,o),
(882,1320,o),
(808,1320,cs),
(681,1320,o),
(617,1248,o),
(617,1111,cs),
(617,888,l),
(805,888,l),
(805,691,l),
(617,691,l),
(617,381,o),
(533,344,o),
(387,254,c),
(1031,254,l),
(1031,0,l)
);
}
);
width = 1139;
}
);
unicode = 163;
},
{
glyphname = currency;
layers = (
{
layerId = "B4DBF483-61C5-4288-8615-E64CC28AC39C";
shapes = (
{
closed = 1;
nodes = (
(124,173,l),
(2,295,l),
(200,494,l),
(150,573,o),
(125,655,o),
(125,740,cs),
(125,826,o),
(150,908,o),
(200,987,c),
(2,1185,l),
(124,1307,l),
(322,1109,l),
(402,1159,o),
(484,1184,o),
(569,1184,cs),
(653,1184,o),
(735,1159,o),
(815,1109,c),
(1014,1307,l),
(1136,1185,l),
(937,987,l),
(988,908,o),
(1013,825,o),
(1013,740,cs),
(1013,655,o),
(988,573,o),
(937,494,c),
(1135,295,l),
(1013,173,l),
(815,371,l),
(735,321,o),
(653,296,o),
(569,296,cs),
(484,296,o),
(402,321,o),
(322,371,c)
);
},
{
closed = 1;
nodes = (
(691,518,o),
(791,620,o),
(791,740,cs),
(791,862,o),
(688,962,o),
(571,962,cs),
(449,962,o),
(346,866,o),
(346,739,cs),
(346,617,o),
(445,518,o),
(569,518,cs)
);
}
);
width = 1139;
},
{
layerId = "F7275F4E-BE84-4E16-A55D-D0D293F4C807";
shapes = (
{
closed = 1;
nodes = (
(209,293,l),
(122,380,l),
(277,536,l),
(235,602,o),
(214,670,o),
(214,740,cs),
(214,809,o),
(235,877,o),
(278,944,c),
(122,1100,l),
(209,1188,l),
(365,1032,l),
(427,1074,o),
(495,1095,o),
(569,1095,cs),
(642,1095,o),
(710,1074,o),
(773,1032,c),
(929,1188,l),
(1016,1100,l),
(860,944,l),
(902,877,o),
(924,809,o),
(924,740,cs),
(924,670,o),
(903,602,o),
(861,536,c),
(1016,380,l),
(929,293,l),
(773,449,l),
(709,406,o),
(641,385,o),
(569,385,cs),
(495,385,o),
(429,407,o),
(365,449,c)
);
},
{
closed = 1;
nodes = (
(696,508,o),
(801,609,o),
(801,741,cs),
(801,869,o),
(698,972,o),
(569,972,cs),
(436,972,o),
(337,867,o),
(337,740,cs),
(337,611,o),
(437,508,o),
(566,508,cs)
);
}
);
width = 1139;
},
{
layerId = "5B74239F-5503-441B-9A3C-1744D3E8E825";
shapes = (
{
closed = 1;
nodes = (
(237,333,l),
(162,408,l),
(303,550,l),
(263,612,o),
(244,675,o),
(244,740,cs),
(244,803,o),
(263,867,o),
(304,930,c),
(162,1072,l),
(237,1148,l),
(379,1006,l),
(435,1046,o),
(499,1065,o),
(569,1065,cs),
(638,1065,o),
(702,1046,o),
(759,1006,c),
(901,1148,l),
(976,1072,l),
(834,930,l),
(873,867,o),
(894,804,o),
(894,740,cs),
(894,675,o),
(875,612,o),
(836,550,c),
(976,408,l),
(901,333,l),
(759,475,l),
(700,434,o),
(637,415,o),
(569,415,cs),
(499,415,o),
(438,436,o),
(379,475,c)
);
},
{
closed = 1;
nodes = (
(698,505,o),
(804,605,o),
(804,741,cs),
(804,871,o),
(701,975,o),
(568,975,cs),
(432,975,o),
(334,867,o),
(334,740,cs),
(334,609,o),
(434,505,o),
(565,505,cs)
);
}
);
width = 1139;
},
{
layerId = "FCCE09BD-6896-404A-801B-05958BD13330";
shapes = (
{
closed = 1;
nodes = (
(96,133,l),
(-38,267,l),
(174,480,l),
(122,563,o),
(95,650,o),
(95,740,cs),
(95,832,o),
(122,918,o),
(174,1001,c),
(-38,1213,l),
(96,1347,l),
(308,1135,l),
(394,1187,o),
(480,1214,o),
(569,1214,cs),
(657,1214,o),
(743,1187,o),
(829,1135,c),
(1042,1347,l),
(1176,1213,l),
(963,1001,l),
(1017,918,o),
(1043,830,o),
(1043,740,cs),
(1043,650,o),
(1016,563,o),
(962,480,c),
(1175,267,l),
(1041,133,l),
(829,345,l),
(744,293,o),
(657,266,o),
(569,266,cs),
(480,266,o),
(393,292,o),
(308,345,c)
);
},
{
closed = 1;
nodes = (
(689,521,o),
(788,624,o),
(788,740,cs),
(788,860,o),
(685,959,o),
(572,959,cs),
(453,959,o),
(349,866,o),
(349,739,cs),
(349,619,o),
(448,521,o),
(570,521,cs)
);
}
);
width = 1139;
}
);
unicode = 164;
},
{
glyphname = yen;
layers = (
{
layerId = "B4DBF483-61C5-4288-8615-E64CC28AC39C";
shapes = (
{
closed = 1;
nodes = (
(422,0,l),
(422,302,l),
(175,302,l),
(175,450,l),
(422,450,l),
(422,598,l),
(175,598,l),
(175,746,l),
(422,746,l),
(0,1480,l),
(343,1480,l),
(629,981,l),
(629,981,o),
(629,981,o),
(629,981,c),
(915,1480,l),
(1139,1480,l),
(718,746,l),
(965,746,l),
(965,598,l),
(718,598,l),
(718,450,l),
(965,450,l),
(965,302,l),
(718,302,l),
(718,0,l)
);
}
);
width = 1139;
},
{
layerId = "F7275F4E-BE84-4E16-A55D-D0D293F4C807";
shapes = (
{
closed = 1;
nodes = (
(453,0,l),
(453,345,l),
(157,345,l),
(157,459,l),
(453,459,l),
(453,627,l),
(157,627,l),
(157,740,l),
(453,740,l),
(25,1480,l),
(253,1480,l),
(575,922,l),
(576,922,o),
(576,922,o),
(577,922,c),
(900,1480,l),
(1077,1480,l),
(650,740,l),
(946,740,l),
(946,627,l),
(650,627,l),
(650,459,l),
(946,459,l),
(946,345,l),
(650,345,l),
(650,0,l)
);
}
);
width = 1139;
},
{
layerId = "5B74239F-5503-441B-9A3C-1744D3E8E825";
shapes = (
{
closed = 1;
nodes = (
(463,0,l),
(463,359,l),
(151,359,l),
(151,462,l),
(463,462,l),
(463,637,l),
(151,637,l),
(151,738,l),
(463,738,l),
(33,1480,l),
(223,1480,l),
(557,902,l),
(558,902,o),
(558,902,o),
(560,902,c),
(895,1480,l),
(1056,1480,l),
(627,738,l),
(940,738,l),
(940,637,l),
(627,637,l),
(627,462,l),
(940,462,l),
(940,359,l),
(627,359,l),
(627,0,l)
);
}
);
width = 1139;
},
{
layerId = "FCCE09BD-6896-404A-801B-05958BD13330";
shapes = (
{
closed = 1;
nodes = (
(412,0,l),
(412,288,l),
(181,288,l),
(181,447,l),
(412,447,l),
(412,588,l),
(181,588,l),
(181,748,l),
(412,748,l),
(-8,1480,l),
(373,1480,l),
(647,1001,l),
(647,1001,o),
(647,1001,o),
(646,1001,c),
(920,1480,l),
(1160,1480,l),
(741,748,l),
(971,748,l),
(971,588,l),
(741,588,l),
(741,447,l),
(971,447,l),
(971,288,l),
(741,288,l),
(741,0,l)
);
}
);
width = 1139;
}
);
unicode = 165;
},
{
glyphname = brokenbar;
layers = (
{
layerId = "B4DBF483-61C5-4288-8615-E64CC28AC39C";
shapes = (
{
closed = 1;
nodes = (
(177,-296,l),
(177,444,l),
(397,444,l),
(397,-296,l)
);
},
{
closed = 1;
nodes = (
(177,839,l),
(177,1579,l),
(397,1579,l),
(397,839,l)
);
}
);
width = 573;
},
{
layerId = "F7275F4E-BE84-4E16-A55D-D0D293F4C807";
shapes = (
{
closed = 1;
nodes = (
(192,-296,l),
(192,444,l),
(340,444,l),
(340,-296,l)
);
},
{
closed = 1;
nodes = (
(192,839,l),
(192,1579,l),
(340,1579,l),
(340,839,l)
);
}
);
width = 532;
},
{
layerId = "5B74239F-5503-441B-9A3C-1744D3E8E825";
shapes = (
{
closed = 1;
nodes = (
(197,-296,l),
(197,444,l),
(321,444,l),
(321,-296,l)
);
},
{
closed = 1;
nodes = (
(197,839,l),
(197,1579,l),
(321,1579,l),
(321,839,l)
);
}
);
width = 518;
},
{
layerId = "FCCE09BD-6896-404A-801B-05958BD13330";
shapes = (
{
closed = 1;
nodes = (
(172,-296,l),
(172,444,l),
(416,444,l),
(416,-296,l)
);
},
{
closed = 1;
nodes = (
(172,839,l),
(172,1579,l),
(416,1579,l),
(416,839,l)
);
}
);
width = 587;
}
);
unicode = 166;
},
{
glyphname = section;
layers = (
{
layerId = "B4DBF483-61C5-4288-8615-E64CC28AC39C";
shapes = (
{
closed = 1;
nodes = (
(150,-278,l),
(150,-59,l),
(301,-118,o),
(427,-148,o),
(526,-148,cs),
(677,-148,o),
(751,-101,o),
(751,-8,c),
(751,51,o),
(695,103,o),
(587,156,cs),
(449,222,ls),
(228,329,o),
(147,428,o),
(147,592,cs),
(147,695,o),
(192,797,o),
(282,896,c),
(189,963,o),
(141,1049,o),
(141,1153,cs),
(141,1372,o),
(322,1518,o),
(585,1518,cs),
(696,1518,o),
(813,1504,o),
(936,1477,c),
(936,1272,l),
(817,1312,o),
(709,1332,o),
(610,1332,cs),
(463,1332,o),
(388,1288,o),
(388,1196,cs),
(388,1141,o),
(437,1088,o),
(531,1047,cs),
(612,1010,ls),
(887,883,o),
(983,798,o),
(983,605,cs),
(983,505,o),
(940,403,o),
(853,298,c),
(950,229,o),
(998,137,o),
(998,22,cs),
(998,-217,o),
(830,-334,o),
(499,-334,cs),
(415,-334,o),
(318,-320,o),
(207,-293,c)
);
},
{
closed = 1;
nodes = (
(729,375,l),
(764,428,o),
(781,476,o),
(781,521,cs),
(781,610,o),
(742,651,o),
(600,721,c),
(406,818,l),
(371,769,o),
(354,723,o),
(354,678,cs),
(354,599,o),
(417,529,o),
(542,468,cs)
);
}
);
width = 1139;
},
{
layerId = "F7275F4E-BE84-4E16-A55D-D0D293F4C807";
shapes = (
{
closed = 1;
nodes = (
(129,-80,l),
(291,-150,o),
(428,-185,o),
(538,-185,cs),
(709,-185,o),
(830,-111,o),
(830,-5,c),
(829,84,o),
(796,117,o),
(600,201,cs),
(423,277,ls),
(230,360,o),
(134,470,o),
(134,613,cs),
(134,713,o),
(182,813,o),
(280,912,c),
(186,974,o),
(139,1054,o),
(139,1152,cs),
(139,1371,o),
(328,1517,o),
(609,1517,cs),
(709,1517,o),
(824,1501,o),
(954,1470,c),
(954,1310,l),
(820,1349,o),
(704,1369,o),
(608,1369,cs),
(435,1369,o),
(318,1294,o),
(318,1184,cs),
(318,1111,o),
(376,1053,o),
(493,1006,cs),
(629,951,ls),
(909,837,o),
(995,752,o),
(995,585,cs),
(995,490,o),
(945,387,o),
(846,277,c),
(955,213,o),
(1010,124,o),
(1010,9,cs),
(1010,-200,o),
(816,-334,o),
(516,-334,cs),
(414,-334,o),
(285,-309,o),
(129,-260,c)
);
},
{
closed = 1;
nodes = (
(748,341,l),
(797,407,o),
(822,471,o),
(822,535,cs),
(822,631,o),
(770,680,o),
(602,753,c),
(380,846,l),
(330,786,o),
(306,724,o),
(306,661,cs),
(305,571,o),
(382,496,o),
(536,431,cs)
);
}
);
width = 1139;
},
{
layerId = "5B74239F-5503-441B-9A3C-1744D3E8E825";
shapes = (
{
closed = 1;
nodes = (
(122,-254,l),
(122,-87,l),
(288,-161,o),
(428,-197,o),
(542,-197,cs),
(720,-197,o),
(856,-114,o),
(856,-4,c),
(855,95,o),
(830,122,o),
(604,216,cs),
(414,295,l),
(231,370,o),
(130,484,o),
(130,620,cs),
(130,719,o),
(179,818,o),
(279,917,c),
(185,978,o),
(138,1056,o),
(138,1152,cs),
(138,1371,o),
(330,1517,o),
(617,1517,cs),
(713,1517,o),
(828,1500,o),
(960,1468,c),
(960,1323,l),
(821,1361,o),
(702,1381,o),
(607,1381,cs),
(426,1381,o),
(295,1296,o),
(295,1180,cs),
(295,1101,o),
(356,1041,o),
(480,992,cs),
(635,931,ls),
(916,822,o),
(999,737,o),
(999,578,cs),
(999,485,o),
(947,382,o),
(844,270,c),
(957,208,o),
(1014,120,o),
(1014,5,cs),
(1014,-194,o),
(811,-334,o),
(522,-334,cs),
(414,-334,o),
(274,-305,o),
(103,-249,c)
);
},
{
closed = 1;
nodes = (
(754,330,l),
(808,400,o),
(836,469,o),
(836,540,cs),
(836,638,o),
(779,690,o),
(603,764,c),
(371,855,l),
(316,792,o),
(290,724,o),
(290,655,c),
(289,562,o),
(370,485,o),
(534,419,cs)
);
}
);
width = 1139;
},
{
layerId = "FCCE09BD-6896-404A-801B-05958BD13330";
shapes = (
{
closed = 1;
nodes = (
(157,-284,l),
(157,-52,l),
(304,-107,o),
(427,-136,o),
(522,-136,cs),
(666,-136,o),
(725,-98,o),
(725,-9,c),
(725,40,o),
(661,98,o),
(583,141,c),
(458,204,ls),
(227,319,o),
(151,414,o),
(151,585,cs),
(151,689,o),
(195,792,o),
(283,891,c),
(190,959,o),
(142,1047,o),
(142,1153,cs),
(142,1372,o),
(320,1518,o),
(577,1518,cs),
(692,1518,o),
(809,1505,o),
(930,1479,c),
(930,1259,l),
(816,1300,o),
(711,1320,o),
(611,1320,cs),
(472,1320,o),
(411,1286,o),
(411,1200,cs),
(411,1151,o),
(457,1100,o),
(544,1061,c),
(606,1030,ls),
(880,898,o),
(979,813,o),
(979,612,cs),
(979,510,o),
(938,408,o),
(855,305,c),
(948,234,o),
(994,141,o),
(994,26,cs),
(994,-223,o),
(835,-334,o),
(493,-334,cs),
(415,-334,o),
(329,-324,o),
(233,-304,c)
);
},
{
closed = 1;
nodes = (
(723,386,l),
(753,435,o),
(767,478,o),
(767,516,cs),
(767,603,o),
(733,641,o),
(599,710,c),
(415,809,l),
(385,763,o),
(370,723,o),
(370,684,c),
(370,608,o),
(429,540,o),
(544,480,cs)
);
}
);
width = 1139;
}
);
unicode = 167;
},
{
glyphname = dieresis;
layers = (
{
layerId = "B4DBF483-61C5-4288-8615-E64CC28AC39C";
shapes = (
{
closed = 1;
nodes = (
(20,1283,l),
(20,1505,l),
(242,1505,l),
(242,1283,l)
);
},
{
closed = 1;
nodes = (
(439,1283,l),
(439,1505,l),
(662,1505,l),
(662,1283,l)
);
}
);
width = 682;
},
{
layerId = "F7275F4E-BE84-4E16-A55D-D0D293F4C807";
shapes = (
{
closed = 1;
nodes = (
(57,1283,l),
(57,1456,l),
(230,1456,l),
(230,1283,l)
);
},
{
closed = 1;
nodes = (
(452,1283,l),
(452,1456,l),
(625,1456,l),
(625,1283,l)
);
}
);
width = 682;
},
{
layerId = "5B74239F-5503-441B-9A3C-1744D3E8E825";
shapes = (
{
closed = 1;
nodes = (
(69,1283,l),
(69,1440,l),
(226,1440,l),
(226,1283,l)
);
},
{
closed = 1;
nodes = (
(456,1283,l),
(456,1440,l),
(613,1440,l),
(613,1283,l)
);
}
);
width = 682;
},
{
layerId = "FCCE09BD-6896-404A-801B-05958BD13330";
shapes = (
{
closed = 1;
nodes = (
(8,1283,l),
(8,1521,l),
(246,1521,l),
(246,1283,l)
);
},
{
closed = 1;
nodes = (
(435,1283,l),
(435,1521,l),
(674,1521,l),
(674,1283,l)
);
}
);
width = 682;
}
);
unicode = 168;
},
{
glyphname = copyright;
layers = (
{
layerId = "B4DBF483-61C5-4288-8615-E64CC28AC39C";
shapes = (
{
closed = 1;
nodes = (
(544,0,o),
(372,73,o),
(228,218,cs),
(84,364,o),
(12,538,o),
(12,740,cs),
(12,945,o),
(84,1119,o),
(229,1263,cs),
(374,1408,o),
(548,1480,o),
(752,1480,cs),
(956,1480,o),
(1130,1408,o),
(1275,1263,cs),
(1420,1119,o),
(1492,945,o),
(1492,742,cs),
(1492,535,o),
(1419,359,o),
(1274,215,cs),
(1129,72,o),
(951,0,o),
(743,0,cs)
);
},
{
closed = 1;
nodes = (
(918,123,o),
(1066,183,o),
(1187,303,cs),
(1308,423,o),
(1369,569,o),
(1369,741,cs),
(1369,910,o),
(1308,1055,o),
(1187,1176,cs),
(1066,1297,o),
(921,1357,o),
(752,1357,cs),
(582,1357,o),
(437,1297,o),
(316,1176,cs),
(195,1055,o),
(135,910,o),
(135,740,cs),
(135,572,o),
(195,427,o),
(315,305,cs),
(436,183,o),
(578,123,o),
(744,123,cs)
);
},
{
closed = 1;
nodes = (
(1055,360,l),
(960,332,o),
(874,318,o),
(790,318,cs),
(528,318,o),
(353,491,o),
(353,744,cs),
(353,994,o),
(518,1161,o),
(781,1161,cs),
(867,1161,o),
(964,1149,o),
(1055,1126,c),
(1055,999,l),
(963,1036,o),
(879,1055,o),
(800,1055,cs),
(637,1055,o),
(529,923,o),
(529,742,cs),
(529,563,o),
(644,436,o),
(828,436,cs),
(917,436,o),
(992,453,o),
(1055,486,c)
);
}
);
width = 1509;
},
{
layerId = "F7275F4E-BE84-4E16-A55D-D0D293F4C807";
shapes = (
{
closed = 1;
nodes = (
(546,0,o),
(375,72,o),
(231,218,cs),
(87,364,o),
(15,538,o),
(15,740,cs),
(15,944,o),
(87,1119,o),
(232,1263,cs),
(376,1407,o),
(551,1480,o),
(755,1480,cs),
(959,1480,o),
(1133,1407,o),
(1278,1263,cs),
(1422,1119,o),
(1495,945,o),
(1495,742,cs),
(1495,534,o),
(1422,359,o),
(1277,215,cs),
(1132,71,o),
(955,0,o),
(746,0,cs)
);
},
{
closed = 1;
nodes = (
(925,106,o),
(1077,167,o),
(1202,291,cs),
(1327,414,o),
(1390,564,o),
(1390,741,cs),
(1390,915,o),
(1327,1064,o),
(1203,1188,cs),
(1079,1312,o),
(929,1375,o),
(755,1375,cs),
(580,1375,o),
(431,1312,o),
(307,1188,cs),
(183,1064,o),
(121,914,o),
(121,740,cs),
(121,567,o),
(182,418,o),
(306,293,cs),
(429,168,o),
(576,106,o),
(746,106,cs)
);
},
{
closed = 1;
nodes = (
(1025,364,l),
(935,332,o),
(854,317,o),
(783,317,cs),
(541,317,o),
(373,491,o),
(373,735,cs),
(373,989,o),
(533,1157,o),
(785,1157,cs),
(847,1157,o),
(933,1151,o),
(1025,1128,c),
(1025,1010,l),
(940,1045,o),
(863,1063,o),
(793,1063,cs),
(624,1063,o),
(514,929,o),
(514,739,cs),
(514,543,o),
(628,423,o),
(810,423,cs),
(882,423,o),
(953,442,o),
(1025,482,c)
);
}
);
width = 1509;
},
{
layerId = "5B74239F-5503-441B-9A3C-1744D3E8E825";
shapes = (
{
closed = 1;
nodes = (
(547,0,o),
(376,72,o),
(232,218,cs),
(88,364,o),
(16,538,o),
(16,740,cs),
(16,944,o),
(88,1119,o),
(233,1263,cs),
(377,1407,o),
(552,1480,o),
(756,1480,cs),
(960,1480,o),
(1134,1407,o),
(1279,1263,cs),
(1423,1119,o),
(1496,945,o),
(1496,742,cs),
(1496,534,o),
(1423,359,o),
(1278,215,cs),
(1133,71,o),
(956,0,o),
(747,0,cs)
);
},
{
closed = 1;
nodes = (
(927,100,o),
(1081,162,o),
(1207,287,cs),
(1333,411,o),
(1397,562,o),
(1397,741,cs),
(1397,917,o),
(1333,1067,o),
(1208,1192,cs),
(1083,1317,o),
(932,1381,o),
(756,1381,cs),
(579,1381,o),
(429,1317,o),
(304,1192,cs),
(179,1067,o),
(116,915,o),
(116,740,cs),
(116,565,o),
(178,415,o),
(303,289,cs),
(427,163,o),
(575,100,o),
(747,100,cs)
);
},
{
closed = 1;
nodes = (
(1015,365,l),
(927,332,o),
(847,317,o),
(781,317,cs),
(545,317,o),
(380,491,o),
(380,732,cs),
(380,987,o),
(538,1156,o),
(786,1156,cs),
(840,1156,o),
(923,1152,o),
(1015,1129,c),
(1015,1014,l),
(932,1048,o),
(858,1066,o),
(791,1066,cs),
(620,1066,o),
(509,931,o),
(509,738,cs),
(509,536,o),
(623,419,o),
(804,419,cs),
(870,419,o),
(940,438,o),
(1015,481,c)
);
}
);
width = 1509;
},
{
layerId = "FCCE09BD-6896-404A-801B-05958BD13330";
shapes = (
{
closed = 1;
nodes = (
(543,0,o),
(371,73,o),
(227,218,cs),
(83,364,o),
(11,538,o),
(11,740,cs),
(11,945,o),
(83,1119,o),
(228,1263,cs),
(373,1408,o),
(547,1480,o),
(751,1480,cs),
(955,1480,o),
(1129,1408,o),
(1274,1263,cs),
(1419,1119,o),
(1491,945,o),
(1491,742,cs),
(1491,535,o),
(1418,359,o),
(1273,215,cs),
(1128,72,o),
(950,0,o),
(742,0,cs)
);
},
{
closed = 1;
nodes = (
(916,129,o),
(1062,188,o),
(1182,307,cs),
(1302,426,o),
(1362,571,o),
(1362,741,cs),
(1362,908,o),
(1302,1052,o),
(1182,1172,cs),
(1062,1292,o),
(918,1351,o),
(751,1351,cs),
(583,1351,o),
(439,1292,o),
(319,1172,cs),
(199,1052,o),
(140,909,o),
(140,740,cs),
(140,574,o),
(199,430,o),
(318,309,cs),
(438,188,o),
(579,129,o),
(743,129,cs)
);
},
{
closed = 1;
nodes = (
(1065,359,l),
(968,332,o),
(881,318,o),
(792,318,cs),
(524,318,o),
(346,491,o),
(346,747,cs),
(346,996,o),
(513,1162,o),
(780,1162,cs),
(874,1162,o),
(974,1148,o),
(1065,1125,c),
(1065,995,l),
(971,1033,o),
(884,1052,o),
(802,1052,cs),
(641,1052,o),
(534,921,o),
(534,743,cs),
(534,570,o),
(649,440,o),
(834,440,cs),
(929,440,o),
(1005,457,o),
(1065,487,c)
);
}
);
width = 1509;
}
);
unicode = 169;
},
{
glyphname = ordfeminine;
layers = (
{
layerId = "B4DBF483-61C5-4288-8615-E64CC28AC39C";
shapes = (
{
closed = 1;
nodes = (
(430,900,l),
(378,848,o),
(323,823,o),
(257,823,cs),
(140,823,o),
(49,903,o),
(49,1022,cs),
(49,1175,o),
(164,1252,o),
(393,1252,cs),
(441,1252,l),
(441,1299,ls),
(441,1364,o),
(400,1393,o),
(323,1393,cs),
(248,1393,o),
(177,1373,o),
(108,1333,c),
(108,1474,l),
(188,1503,o),
(271,1517,o),
(356,1517,cs),
(551,1517,o),
(650,1448,o),
(650,1310,cs),
(650,1052,ls),
(650,993,o),
(653,961,o),
(690,961,cs),
(697,961,o),
(705,962,o),
(714,964,c),
(714,838,l),
(672,827,o),
(636,823,o),
(603,823,cs),
(524,823,o),
(470,849,o),
(443,900,c)
);
},
{
closed = 1;
nodes = (
(441,1132,l),
(327,1132,o),
(258,1097,o),
(258,1039,cs),
(258,988,o),
(283,962,o),
(333,962,cs),
(370,962,o),
(406,981,o),
(441,1019,c)
);
}
);
width = 758;
},
{
layerId = "F7275F4E-BE84-4E16-A55D-D0D293F4C807";
shapes = (
{
closed = 1;
nodes = (
(485,915,l),
(418,853,o),
(350,822,o),
(282,822,cs),
(167,822,o),
(86,901,o),
(86,1009,cs),
(86,1161,o),
(200,1237,o),
(428,1237,cs),
(476,1237,l),
(476,1307,ls),
(476,1380,o),
(436,1417,o),
(357,1417,cs),
(288,1417,o),
(217,1397,o),
(145,1358,c),
(145,1469,l),
(227,1501,o),
(306,1518,o),
(383,1518,cs),
(544,1518,o),
(625,1449,o),
(625,1311,cs),
(625,1013,ls),
(625,952,o),
(644,922,o),
(682,922,cs),
(688,922,o),
(696,922,o),
(706,924,c),
(712,841,l),
(679,828,o),
(647,822,o),
(616,822,cs),
(548,822,o),
(506,853,o),
(490,915,c)
);
},
{
closed = 1;
nodes = (
(476,1150,l),
(315,1150,o),
(234,1121,o),
(234,1029,cs),
(234,964,o),
(266,932,o),
(332,932,cs),
(378,932,o),
(426,953,o),
(476,996,c)
);
}
);
width = 758;
},
{
layerId = "5B74239F-5503-441B-9A3C-1744D3E8E825";
shapes = (
{
closed = 1;
nodes = (
(503,920,l),
(431,855,o),
(359,822,o),
(290,822,cs),
(176,822,o),
(98,900,o),
(98,1005,cs),
(98,1156,o),
(212,1232,o),
(440,1232,cs),
(488,1232,l),
(488,1310,ls),
(488,1385,o),
(448,1425,o),
(368,1425,cs),
(301,1425,o),
(230,1405,o),
(157,1366,c),
(157,1467,l),
(240,1500,o),
(318,1518,o),
(392,1518,cs),
(542,1518,o),
(617,1449,o),
(617,1311,cs),
(617,1000,ls),
(617,938,o),
(641,909,o),
(679,909,cs),
(685,909,o),
(693,909,o),
(703,911,c),
(711,842,l),
(681,828,o),
(651,822,o),
(620,822,cs),
(556,822,o),
(518,854,o),
(506,920,c)
);
},
{
closed = 1;
nodes = (
(488,1156,l),
(304,1156,o),
(226,1127,o),
(226,1026,cs),
(226,956,o),
(260,922,o),
(332,922,cs),
(381,922,o),
(433,944,o),
(488,988,c)
);
}
);
width = 758;
},
{
layerId = "FCCE09BD-6896-404A-801B-05958BD13330";
shapes = (
{
closed = 1;
nodes = (
(412,895,l),
(365,846,o),
(314,823,o),
(249,823,cs),
(131,823,o),
(37,904,o),
(37,1026,cs),
(37,1180,o),
(152,1257,o),
(381,1257,cs),
(429,1257,l),
(429,1296,ls),
(429,1359,o),
(388,1385,o),
(312,1385,cs),
(235,1385,o),
(164,1365,o),
(96,1325,c),
(96,1476,l),
(175,1504,o),
(259,1517,o),
(347,1517,cs),
(553,1517,o),
(658,1448,o),
(658,1310,cs),
(658,1065,ls),
(658,1007,o),
(656,974,o),
(693,974,cs),
(700,974,o),
(708,975,o),
(717,977,c),
(715,837,l),
(670,827,o),
(632,823,o),
(599,823,cs),
(516,823,o),
(458,848,o),
(427,895,c)
);
},
{
closed = 1;
nodes = (
(429,1126,l),
(331,1126,o),
(266,1089,o),
(266,1042,cs),
(266,996,o),
(289,972,o),
(333,972,cs),
(367,972,o),
(399,990,o),
(429,1027,c)
);
}
);
width = 758;
}
);
unicode = 170;
},
{
glyphname = guillemotleft;
layers = (
{
layerId = "B4DBF483-61C5-4288-8615-E64CC28AC39C";
shapes = (
{
closed = 1;
nodes = (
(1077,888,l),
(814,549,l),
(1077,210,l),
(938,105,l),
(521,549,l),
(938,993,l)
);
},
{
closed = 1;
nodes = (
(620,885,l),
(358,549,l),
(620,210,l),
(481,105,l),
(65,549,l),
(481,993,l)
);
}
);
width = 1139;
},
{
layerId = "F7275F4E-BE84-4E16-A55D-D0D293F4C807";
shapes = (
{
closed = 1;
nodes = (
(1003,913,l),
(707,543,l),
(1003,173,l),
(905,99,l),
(510,543,l),
(905,987,l)
);
},
{
closed = 1;
nodes = (
(608,913,l),
(312,543,l),
(608,173,l),
(510,99,l),
(115,543,l),
(510,987,l)
);
}
);
width = 1139;
},
{
layerId = "5B74239F-5503-441B-9A3C-1744D3E8E825";
shapes = (
{
closed = 1;
nodes = (
(978,921,l),
(671,541,l),
(978,161,l),
(894,97,l),
(506,541,l),
(894,985,l)
);
},
{
closed = 1;
nodes = (
(604,922,l),
(297,541,l),
(604,161,l),
(520,97,l),
(132,541,l),
(520,985,l)
);
}
);
width = 1139;
},
{
layerId = "FCCE09BD-6896-404A-801B-05958BD13330";
shapes = (
{
closed = 1;
nodes = (
(1102,880,l),
(850,551,l),
(1102,222,l),
(949,107,l),
(525,551,l),
(949,995,l)
);
},
{
closed = 1;
nodes = (
(624,876,l),
(373,551,l),
(624,222,l),
(471,107,l),
(48,551,l),
(471,995,l)
);
}
);
width = 1139;
}
);
unicode = 171;
},
{
glyphname = logicalnot;
layers = (
{
layerId = "B4DBF483-61C5-4288-8615-E64CC28AC39C";
shapes = (
{
closed = 1;
nodes = (
(104,716,l),
(104,888,l),
(1091,888,l),
(1091,296,l),
(918,296,l),
(918,716,l)
);
}
);
width = 1196;
},
{
layerId = "F7275F4E-BE84-4E16-A55D-D0D293F4C807";
shapes = (
{
closed = 1;
nodes = (
(86,740,l),
(86,888,l),
(1073,888,l),
(1073,296,l),
(925,296,l),
(925,740,l)
);
}
);
width = 1196;
},
{
layerId = "5B74239F-5503-441B-9A3C-1744D3E8E825";
shapes = (
{
closed = 1;
nodes = (
(80,748,l),
(80,888,l),
(1067,888,l),
(1067,296,l),
(927,296,l),
(927,748,l)
);
}
);
width = 1196;
},
{
layerId = "FCCE09BD-6896-404A-801B-05958BD13330";
shapes = (
{
closed = 1;
nodes = (
(110,708,l),
(110,888,l),
(1097,888,l),
(1097,296,l),
(916,296,l),
(916,708,l)
);
}
);
width = 1196;
}
);
unicode = 172;
},
{
glyphname = softhyphen;
layers = (
{
layerId = "B4DBF483-61C5-4288-8615-E64CC28AC39C";
shapes = (
{
closed = 1;
nodes = (
(74,543,l),
(74,728,l),
(608,728,l),
(608,543,l)
);
}
);
width = 682;
},
{
layerId = "F7275F4E-BE84-4E16-A55D-D0D293F4C807";
shapes = (
{
closed = 1;
nodes = (
(88,518,l),
(88,666,l),
(594,666,l),
(594,518,l)
);
}
);
width = 682;
},
{
layerId = "5B74239F-5503-441B-9A3C-1744D3E8E825";
shapes = (
{
closed = 1;
nodes = (
(93,510,l),
(93,645,l),
(589,645,l),
(589,510,l)
);
}
);
width = 682;
},
{
layerId = "FCCE09BD-6896-404A-801B-05958BD13330";
shapes = (
{
closed = 1;
nodes = (
(69,551,l),
(69,749,l),
(613,749,l),
(613,551,l)
);
}
);
width = 682;
}
);
unicode = 173;
},
{
glyphname = registered;
layers = (
{
layerId = "B4DBF483-61C5-4288-8615-E64CC28AC39C";
shapes = (
{
closed = 1;
nodes = (
(546,0,o),
(374,73,o),
(230,218,cs),
(86,364,o),
(14,538,o),
(14,740,cs),
(14,945,o),
(86,1119,o),
(231,1263,cs),
(376,1408,o),
(550,1480,o),
(754,1480,cs),
(958,1480,o),
(1132,1408,o),
(1277,1263,cs),
(1422,1119,o),
(1494,945,o),
(1494,742,cs),
(1494,535,o),
(1421,359,o),
(1276,215,cs),
(1131,72,o),
(953,0,o),
(745,0,cs)
);
},
{
closed = 1;
nodes = (
(920,123,o),
(1068,183,o),
(1189,303,cs),
(1310,423,o),
(1371,569,o),
(1371,741,cs),
(1371,910,o),
(1310,1055,o),
(1189,1176,cs),
(1068,1297,o),
(923,1357,o),
(754,1357,cs),
(584,1357,o),
(439,1297,o),
(318,1176,cs),
(197,1055,o),
(137,910,o),
(137,740,cs),
(137,572,o),
(197,427,o),
(317,305,cs),
(438,183,o),
(580,123,o),
(746,123,cs)
);
},
{
closed = 1;
nodes = (
(477,342,l),
(477,1144,l),
(739,1144,ls),
(950,1144,o),
(1067,1123,o),
(1067,945,cs),
(1067,839,o),
(1016,763,o),
(915,716,c),
(1141,342,l),
(954,342,l),
(765,669,l),
(634,669,l),
(634,342,l)
);
},
{
closed = 1;
nodes = (
(634,780,l),
(722,780,ls),
(843,780,o),
(904,829,o),
(904,927,cs),
(904,999,o),
(848,1034,o),
(741,1034,cs),
(634,1034,l)
);
}
);
width = 1509;
},
{
layerId = "F7275F4E-BE84-4E16-A55D-D0D293F4C807";
shapes = (
{
closed = 1;
nodes = (
(546,0,o),
(375,72,o),
(231,218,cs),
(87,364,o),
(15,538,o),
(15,740,cs),
(15,944,o),
(87,1119,o),
(232,1263,cs),
(376,1407,o),
(551,1480,o),
(755,1480,cs),
(959,1480,o),
(1133,1407,o),
(1278,1263,cs),
(1422,1119,o),
(1495,945,o),
(1495,742,cs),
(1495,534,o),
(1422,359,o),
(1277,215,cs),
(1132,71,o),
(955,0,o),
(746,0,cs)
);
},
{
closed = 1;
nodes = (
(925,106,o),
(1077,167,o),
(1202,291,cs),
(1327,414,o),
(1390,564,o),
(1390,741,cs),
(1390,915,o),
(1327,1064,o),
(1203,1188,cs),
(1079,1312,o),
(929,1375,o),
(755,1375,cs),
(580,1375,o),
(431,1312,o),
(307,1188,cs),
(183,1064,o),
(121,914,o),
(121,740,cs),
(121,567,o),
(182,418,o),
(306,293,cs),
(429,168,o),
(576,106,o),
(746,106,cs)
);
},
{
closed = 1;
nodes = (
(511,337,l),
(511,1137,l),
(763,1137,ls),
(924,1137,o),
(1005,1071,o),
(1005,941,cs),
(1005,845,o),
(958,767,o),
(865,709,c),
(1106,337,l),
(957,337,l),
(741,671,l),
(640,671,l),
(640,337,l)
);
},
{
closed = 1;
nodes = (
(632,770,l),
(668,770,ls),
(809,770,o),
(880,822,o),
(880,927,cs),
(880,1012,o),
(821,1055,o),
(703,1055,cs),
(632,1055,l)
);
}
);
width = 1509;
},
{
layerId = "5B74239F-5503-441B-9A3C-1744D3E8E825";
shapes = (
{
closed = 1;
nodes = (
(546,0,o),
(375,72,o),
(231,218,cs),
(87,364,o),
(15,538,o),
(15,740,cs),
(15,944,o),
(87,1119,o),
(232,1263,cs),
(376,1407,o),
(551,1480,o),
(755,1480,cs),
(959,1480,o),
(1133,1407,o),
(1278,1263,cs),
(1422,1119,o),
(1495,945,o),
(1495,742,cs),
(1495,534,o),
(1422,359,o),
(1277,215,cs),
(1132,71,o),
(956,0,o),
(746,0,cs)
);
},
{
closed = 1;
nodes = (
(927,100,o),
(1080,162,o),
(1206,287,cs),
(1333,411,o),
(1396,562,o),
(1396,741,cs),
(1396,917,o),
(1333,1067,o),
(1208,1192,cs),
(1083,1317,o),
(931,1381,o),
(755,1381,cs),
(579,1381,o),
(428,1317,o),
(303,1192,cs),
(178,1067,o),
(116,915,o),
(116,740,cs),
(116,565,o),
(177,415,o),
(302,289,cs),
(426,163,o),
(575,100,o),
(746,100,cs)
);
},
{
closed = 1;
nodes = (
(522,335,l),
(522,1135,l),
(771,1135,ls),
(915,1135,o),
(984,1054,o),
(984,940,cs),
(984,847,o),
(939,768,o),
(848,707,c),
(1094,335,l),
(958,335,l),
(733,672,l),
(642,672,l),
(642,335,l)
);
},
{
closed = 1;
nodes = (
(631,767,l),
(650,767,ls),
(798,767,o),
(872,820,o),
(872,927,cs),
(872,1016,o),
(812,1062,o),
(690,1062,cs),
(631,1062,l)
);
}
);
width = 1509;
},
{
layerId = "FCCE09BD-6896-404A-801B-05958BD13330";
shapes = (
{
closed = 1;
nodes = (
(546,0,o),
(374,73,o),
(230,218,cs),
(86,364,o),
(14,538,o),
(14,740,cs),
(14,945,o),
(86,1119,o),
(231,1263,cs),
(376,1408,o),
(550,1480,o),
(754,1480,cs),
(958,1480,o),
(1132,1408,o),
(1277,1263,cs),
(1422,1119,o),
(1494,945,o),
(1494,742,cs),
(1494,535,o),
(1421,359,o),
(1276,215,cs),
(1131,72,o),
(952,0,o),
(745,0,cs)
);
},
{
closed = 1;
nodes = (
(918,129,o),
(1065,188,o),
(1185,307,cs),
(1304,426,o),
(1365,571,o),
(1365,741,cs),
(1365,908,o),
(1304,1052,o),
(1184,1172,cs),
(1064,1292,o),
(921,1351,o),
(754,1351,cs),
(585,1351,o),
(442,1292,o),
(322,1172,cs),
(202,1052,o),
(142,909,o),
(142,740,cs),
(142,574,o),
(202,430,o),
(321,309,cs),
(441,188,o),
(581,129,o),
(746,129,cs)
);
},
{
closed = 1;
nodes = (
(466,344,l),
(466,1146,l),
(731,1146,ls),
(959,1146,o),
(1088,1140,o),
(1088,946,cs),
(1088,837,o),
(1035,762,o),
(932,718,c),
(1153,344,l),
(953,344,l),
(773,668,l),
(632,668,l),
(632,344,l)
);
},
{
closed = 1;
nodes = (
(635,783,l),
(740,783,ls),
(854,783,o),
(912,831,o),
(912,927,cs),
(912,995,o),
(857,1027,o),
(754,1027,cs),
(635,1027,l)
);
}
);
width = 1509;
}
);
unicode = 174;
},
